<?xml version="1.0" encoding="UTF-8"?>
<svg id="Capa_1" xmlns="http://www.w3.org/2000/svg" xmlns:xlink="http://www.w3.org/1999/xlink" version="1.1" viewBox="0 0 160 160">
  <!-- Generator: Adobe Illustrator 29.3.1, SVG Export Plug-In . SVG Version: 2.1.0 Build 151)  -->
  <defs>
    <style>
      .st0 {
        fill: none;
      }

      .st1 {
        clip-path: url(#clippath-1);
      }

      .st2 {
        fill: #35bdef;
      }

      .st3 {
        fill: #4e8cca;
      }

      .st4 {
        clip-path: url(#clippath);
      }
    </style>
    <clipPath id="clippath">
      <path class="st0" d="M602.1,122.4c-6-8.5-35.3-20.5-29.2-33.4-25.3-1-50.5-9.2-75.6-6.4-18.2,2-32.4,8.5-48.7,16.7-30.7,15.5-62.6,22.5-96.9,16.4-27.2-4.9-52.9-16.2-79.1-23.8s-52.4-2.6-74.6,6.4-46,27-73.5,29.4c-42.2,3.6-94.2-9.3-115.5-46.3-2.4,12.1-3.1,25.3-3.9,37.8-.6,10.5-6.3,33.1-1.5,42.8,11.7,23.6,89.8,4.1,111.6,2.6,125.7-8.7,251.8-12.9,378-12.9s51.1-.8,77.2-10.3c9.6-3.5,28.2-7.9,31.8-18.8Z"/>
    </clipPath>
    <clipPath id="clippath-1">
      <path class="st0" d="M9.8,64.4c21.4,37,73.3,50,115.5,46.3,27.4-2.4,48.7-19.4,73.5-29.4,22.3-8.9,50.7-13.3,74.6-6.4,26.3,7.6,52,18.9,79.1,23.8,34.3,6.2,66.2-.9,96.9-16.4,16.3-8.2,30.5-14.7,48.7-16.7,25.1-2.8,50.4,5.4,75.6,6.4,26.6,1,84.2,6.8,98.4-22.6,14.5-29.9-18.4-59.6-42.8-69.7-56.8-23.4-122.6-33.5-183.8-33.7-84.6-.4-170.2-6.6-254.5-13.2-38.6-3-70.6,8.5-106.4,21.5C58.5-36,25.6-25.7,2.7-9.9-8.4-2.3-19.9,9.8-17.4,24.8c2.5,15,20.3,32.7,27.2,39.6Z"/>
    </clipPath>
  </defs>
  <g class="st4">
    <path class="st3" d="M103.4,140.7l-4.7-15.3c-.2-.4-.5-.6-.8-.6h-38.3c-.3,0-.6.2-.8.6l-4.5,15.3c-.3,1-1,1.6-2,1.6h-19.8c-.6,0-1.1-.2-1.4-.5-.3-.4-.4-.9-.2-1.6l33.6-105.2c.3-1,1-1.6,2-1.6h24.4c1,0,1.7.5,2,1.6l33.6,105.2c.1.2.2.5.2.8,0,.9-.6,1.4-1.7,1.4h-19.8c-1,0-1.7-.5-2-1.6ZM65.1,107.8h27.4c.6,0,.8-.3.6-.9l-14-46.2c-.1-.4-.3-.6-.5-.5-.2,0-.4.2-.5.5l-13.7,46.2c-.1.6.1.9.6.9Z"/>
  </g>
  <g class="st1">
    <path class="st2" d="M104.3,123.8l-4.7-15.3c-.2-.4-.5-.6-.8-.6h-38.3c-.3,0-.6.2-.8.6l-4.5,15.3c-.3,1-1,1.6-2,1.6h-19.8c-.6,0-1.1-.2-1.4-.5-.3-.4-.4-.9-.2-1.6L65.6,18c.3-1,1-1.6,2-1.6h24.4c1,0,1.7.5,2,1.6l33.6,105.2c.1.2.2.5.2.8,0,.9-.6,1.4-1.7,1.4h-19.8c-1,0-1.7-.5-2-1.6ZM66,91h27.4c.6,0,.8-.3.6-.9l-14-46.2c-.1-.4-.3-.6-.5-.5-.2,0-.4.2-.5.5l-13.7,46.2c-.1.6.1.9.6.9Z"/>
  </g>
</svg>