<?xml version="1.0" encoding="UTF-8"?>
<svg id="Capa_2" data-name="Capa 2" xmlns="http://www.w3.org/2000/svg" viewBox="0 0 64.56 64.57">
  <defs>
    <style>
      .cls-1 {
        fill: #527cbd;
      }
    </style>
  </defs>
  <g id="Capa_13" data-name="Capa 13">
    <path class="cls-1" d="M0,32.25C.03,14.42,14.5-.02,32.32,0c17.84.02,32.27,14.52,32.24,32.4-.03,17.77-14.54,32.2-32.35,32.17C14.42,64.54-.03,50.04,0,32.25ZM29.55,26.12c-.1-.03-.14-.05-.17-.05-.67,0-1.35-.01-2.02,0-3.79.02-6.97,1.44-9.5,4.27-3.85,4.32-4.15,10.79-.76,15.54,3.36,4.7,9.64,6.55,14.92,4.25,4.98-2.17,7.61-6.08,7.74-11.51.11-4.76.03-9.53.03-14.29,0-.19,0-.38,0-.72,2.51,2.46,5.45,3.63,8.78,4.06.42-2.12.82-4.2,1.24-6.3-.36-.07-.62-.13-.89-.17-1.96-.3-3.66-1.15-5.16-2.43-1.57-1.34-2.79-2.96-3.73-4.79-.18-.36-.4-.48-.8-.48-1.82.02-3.64,0-5.46.01-.17,0-.35.02-.56.04,0,.26,0,.48,0,.69,0,3.98,0,7.97,0,11.95,0,4.2.03,8.4-.02,12.6-.04,3.41-3.14,6.07-6.51,5.7-3.48-.38-5.9-3.6-5.24-6.99.55-2.84,2.93-4.83,5.83-4.86.76,0,1.51,0,2.29,0v-6.51Z"/>
  </g>
</svg>