<?xml version="1.0" encoding="UTF-8"?>
<svg id="Capa_1" xmlns="http://www.w3.org/2000/svg" version="1.1" viewBox="0 0 512 512">
  <!-- Generator: Adobe Illustrator 29.3.1, SVG Export Plug-In . SVG Version: 2.1.0 Build 151)  -->
  <defs>
    <style>
      .st0 {
        fill: #527cbd;
      }
    </style>
  </defs>
  <path class="st0" d="M275,0c122.3,2.7,233.5,113.4,237,236v40c-3.6,122.2-114.1,232.7-236,236h-40C113.8,508.4,3.3,397.9,0,276c.6-13.1-.8-27,0-40,0-60.8,31.3-120,73.6-162.4S175.2,0,236,0h39ZM147.8,109.3c-46.3,3.4-42,70.5,10.6,63.6,12.1-1.6,24.5-12.3,26.3-24.7,3.5-24.1-13.1-40.7-36.9-38.9ZM406,387v-118.5c-2.8-49.8-39.4-83-90-71s-27.7,15.4-38,28.5v-26h-62v187h62v-111.5c0-23.3,32.6-40.9,52.5-26.5,6.2,4.5,13.5,18,13.5,25.5v112.5h62ZM181,200h-61v187h61v-187Z"/>
</svg>