<?xml version="1.0" encoding="UTF-8"?>
<svg id="Capa_1" xmlns="http://www.w3.org/2000/svg" version="1.1" viewBox="0 0 64.1 64.1">
  <!-- Generator: Adobe Illustrator 29.3.1, SVG Export Plug-In . SVG Version: 2.1.0 Build 151)  -->
  <defs>
    <style>
      .st0 {
        fill: #527cbd;
      }
    </style>
  </defs>
  <path class="st0" d="M33.9,0l3.3.4c13.7,2.2,24.7,13.5,26.5,27.3,0,.8,0,1.6.3,2.3,0,1.3,0,2.7,0,4-1.6,27.3-35.3,40.1-54.8,20.6C-10.2,35.2,2.7,1.6,29.9,0h4ZM49.1,13.1h-3.1l-12,13.9-9.6-13.9h-10.8l14.4,21-14.4,16.7h3.2l12.5-14.5.3.2,9.8,14.3h10.9l-14.9-21.6,13.6-16.1Z"/>
  <path class="st0" d="M45.8,48.6h-4.8L17.9,15.6h4.9c7.3,10.6,15,21,22.2,31.6s.6.8.8,1.3Z"/>
</svg>