<?xml version="1.0" encoding="UTF-8"?>
<svg id="Capa_2" data-name="Capa 2" xmlns="http://www.w3.org/2000/svg" viewBox="0 0 64.08 64.03">
  <defs>
    <style>
      .cls-1 {
        fill: #527cbd;
      }
    </style>
  </defs>
  <g id="Capa_13" data-name="Capa 13">
    <path class="cls-1" d="M0,31.98C0,13.87,15.01-.59,33.15.02c17.27.58,31.54,15.02,30.91,33.2-.6,17.18-14.99,31.37-33.09,30.79C13.54,63.46-.08,49.1,0,31.98ZM26.92,32.07v20.54h8.23v-20.66h5.72c.21-2.32.4-4.56.61-6.89h-6.34c0-1.58-.02-3.08,0-4.58.02-1.12.36-1.49,1.46-1.6.64-.07,1.29-.06,1.94-.07.97,0,1.94,0,2.93,0v-7.12c-2.02,0-3.98-.02-5.95.01-.87.01-1.75.09-2.62.22-3.64.57-5.91,3.17-5.98,6.85-.04,2.09,0,4.18,0,6.35h-4.31v6.95h4.32Z"/>
  </g>
</svg>