<?xml version="1.0" encoding="UTF-8"?>
<svg id="Capa_1" xmlns="http://www.w3.org/2000/svg" version="1.1" viewBox="0 0 64.1 64.1">
  <!-- Generator: Adobe Illustrator 29.3.1, SVG Export Plug-In . SVG Version: 2.1.0 Build 151)  -->
  <defs>
    <style>
      .st0 {
        fill: #527cbd;
      }

      .st1 {
        fill: #fefefe;
      }
    </style>
  </defs>
  <path class="st0" d="M34.8,0c15.4.3,29.2,14.3,29.6,29.5,0,1.6.1,3.4,0,5-.2,11-7.9,21.6-17.7,26.4-5.7,2.8-10.7,3.4-17,3.1-13-.7-24.5-10.2-28.2-22.6s-1.2-4.6-1-6.9v-.6c-.3-1.2-.3-2.5-.1-3.7v-.6c-.1-2.5.6-5.3,1.4-7.7C5.8,9.8,17.2.1,30.1,0h4.7Z"/>
  <path class="st0" d="M.5,30c0-.3.1-.6.1-.6,0,.2,0,.5-.1.6Z"/>
  <path class="st0" d="M.6,34.4c0,0-.1-.3-.1-.6.2.1.1.4.1.6Z"/>
  <g>
    <path class="st1" d="M11.3,53.3l3-10.8c-8.8-15.7,4.3-34.4,22.2-31.2,8,1.4,14.7,7.9,16.5,15.7,4.2,17.9-14.5,31.9-30.6,23.5l-11.1,2.9Z"/>
    <g>
      <path class="st0" d="M16.4,48.3l1.7-6.4c-8.5-12.7,1.6-29.2,16.8-27.3s13.2,6.6,14.6,13.6c3.2,15.3-13.5,26.8-26.6,18.4l-6.5,1.7Z"/>
      <path class="st1" d="M24.7,22.2c.4,0,1.6,0,1.9,0s.6.6.8,1c.3.5,1.7,4.1,1.7,4.4,0,1.1-1.9,2-1.7,3s.8,1.3,1,1.6c1.3,1.8,3.3,3.5,5.3,4.4s1.3.7,1.9.4,1.8-2.6,2.5-2.6.8.2,1,.3c.9.3,2.9,1.3,3.6,1.7s.6.6.5,1.3c-.1,1.6-.8,2.6-2.2,3.3-4.6,2.6-11.6-2.2-14.7-5.6s-6-7.5-3.6-11.5,1.4-1.8,2-1.9Z"/>
    </g>
  </g>
</svg>