<?xml version="1.0" encoding="UTF-8"?>
<svg id="Capa_1" xmlns="http://www.w3.org/2000/svg" version="1.1" viewBox="0 0 64.1 64.1">
  <!-- Generator: Adobe Illustrator 29.3.1, SVG Export Plug-In . SVG Version: 2.1.0 Build 151)  -->
  <defs>
    <style>
      .st0 {
        display: none;
      }

      .st0, .st1 {
        fill: #fff;
      }

      .st0, .st1, .st2 {
        fill-rule: evenodd;
      }

      .st3, .st2 {
        fill: #527cbd;
      }
    </style>
  </defs>
  <path class="st3" d="M34.8,0c15.4.3,29.2,14.3,29.6,29.5,0,1.6.1,3.4,0,5-.2,11-7.9,21.6-17.7,26.4-5.7,2.8-10.7,3.4-17,3.1-13-.7-24.5-10.2-28.2-22.6s-1.2-4.6-1-6.9v-.6c-.3-1.2-.3-2.5-.1-3.7v-.6c-.1-2.5.6-5.3,1.4-7.7C5.8,9.8,17.2.1,30.1,0h4.7Z"/>
  <path class="st0" d="M19.7,113.8l2.5-9.1c-1.5-2.7-2.4-5.7-2.4-8.8,0-9.7,7.9-17.6,17.6-17.6,4.7,0,9.1,1.8,12.5,5.2,3.3,3.3,5.2,7.7,5.2,12.5,0,9.7-7.9,17.6-17.6,17.6s0,0,0,0h0c-2.9,0-5.8-.7-8.4-2.1l-9.3,2.4Z"/>
  <path class="st1" d="M11.2,52.4c-.1,0-.3,0-.4-.2-.1-.1-.2-.3-.1-.5l2.9-10.5c-1.8-3.2-2.7-6.8-2.7-10.4,0-11.7,9.5-21.3,21.3-21.3,5.7,0,11,2.2,15,6.2,4,4,6.2,9.4,6.2,15,0,11.7-9.5,21.3-21.3,21.3-3.5,0-6.9-.9-10-2.5l-10.8,2.8s0,0-.1,0Z"/>
  <path class="st1" d="M32.1,10.1c5.5,0,10.7,2.2,14.7,6.1,3.9,3.9,6.1,9.1,6.1,14.7,0,11.4-9.3,20.7-20.7,20.7h0c-3.5,0-6.9-.9-9.9-2.5l-11,2.9,2.9-10.7c-1.8-3.1-2.8-6.7-2.8-10.4,0-11.4,9.3-20.7,20.7-20.7M32.1,51.5h0M32.1,51.5h0M32.1,9h0c-12,0-21.8,9.8-21.8,21.8,0,3.7.9,7.3,2.7,10.5l-2.8,10.3c-.1.4,0,.8.3,1.1.2.2.5.3.8.3s.2,0,.3,0l10.6-2.8c3.1,1.6,6.5,2.4,10,2.4,12,0,21.8-9.8,21.8-21.8,0-5.8-2.3-11.3-6.4-15.4-4.1-4.1-9.6-6.4-15.4-6.4h0Z"/>
  <path class="st2" d="M44.3,18.6c-3.3-3.3-7.6-5-12.2-5.1-9.5,0-17.2,7.7-17.2,17.2,0,3.3.9,6.4,2.6,9.2l.4.7-1.7,6.4,6.5-1.7.6.4c2.6,1.6,5.7,2.4,8.8,2.4h0c9.5,0,17.2-7.7,17.2-17.2,0-4.6-1.8-8.9-5-12.2Z"/>
  <path class="st1" d="M27,22.1c-.4-.9-.8-.9-1.2-.9-.3,0-.6,0-1,0s-.9.1-1.4.6c-.5.5-1.8,1.8-1.8,4.3s1.9,5,2.1,5.4,3.6,5.7,8.8,7.8c4.4,1.7,5.3,1.4,6.2,1.3.9,0,3.1-1.3,3.5-2.5.4-1.2.4-2.2.3-2.5-.1-.2-.5-.3-1-.6s-3.1-1.5-3.5-1.7c-.5-.2-.8-.3-1.2.3-.3.5-1.3,1.7-1.6,2-.3.3-.6.4-1.1.1-.5-.3-2.2-.8-4.2-2.6-1.5-1.4-2.6-3.1-2.9-3.6-.3-.5,0-.8.2-1.1.2-.2.5-.6.8-.9.3-.3.3-.5.5-.9.2-.3,0-.6,0-.9-.1-.3-1.1-2.8-1.6-3.8Z"/>
</svg>