<?xml version="1.0" encoding="UTF-8"?>
<svg id="Capa_1" xmlns="http://www.w3.org/2000/svg" version="1.1" viewBox="0 0 64.6 64.6">
  <!-- Generator: Adobe Illustrator 29.3.1, SVG Export Plug-In . SVG Version: 2.1.0 Build 151)  -->
  <defs>
    <style>
      .st0 {
        fill: #527cbd;
      }
    </style>
  </defs>
  <path class="st0" d="M64.6,30.3v3.9l-.7,4.9c-2.8,13.1-13.9,23.5-27.2,25.2s-1.6,0-2.3.3h-4l-4.8-.7C13.2,61.2,3.3,51.4.7,39.1L0,34.4c0-1.3,0-2.7,0-4C1,14,14.6.8,31,.1s32.6,12.9,33.6,30.2ZM20.7,20.3c-2.5.5-4.6,2.3-5.2,4.9-.1,4.2-.6,9.1-.2,13.2s2.6,5.7,5.8,6c7.2.6,15.1-.4,22.3,0,3.3-.4,5.6-2.9,5.9-6.1s.3-8.8,0-12-2.5-5.7-5.7-6.1h-22.9Z"/>
  <polygon class="st0" points="27.8 27.2 36.7 32.4 27.8 37.5 27.8 27.2"/>
</svg>