<?xml version="1.0" encoding="UTF-8"?>
<svg id="Capa_1" xmlns="http://www.w3.org/2000/svg" version="1.1" viewBox="0 0 1090 800">
  <!-- Generator: Adobe Illustrator 29.3.1, SVG Export Plug-In . SVG Version: 2.1.0 Build 151)  -->
  <defs>
    <style>
      .st0 {
        fill: #fcfafd;
      }

      .st1 {
        opacity: .7;
      }

      .st2 {
        fill: #4e8cca;
      }
    </style>
  </defs>
  <g>
    <g class="st1">
      <path class="st0" d="M270.9,264.1c-9.3-.2-18.6-.2-27.9-.5-3.8,0-7.6-.2-11.3-.9-12.4-2.4-21.4-11.8-23.2-24.4-1.4-9.8-2.1-19.7-3.1-29.6-1.8-17.5-3.7-35-5.6-52.5-.7-6.9-1.8-13.8-2.1-20.7-.5-15.1,11.6-29.3,27.3-31.8,7.5-1.2,15.2-1.4,22.8-1.9,16.9-1.2,33.8-2.3,50.7-3.4,19-1.3,38-2.6,57-3.9,12.1-.8,24.2-1.4,36.3-2.6,8.3-.8,15.8.5,22.7,4.8,8.4,5.3,14.4,12.6,18,21.5,1.7,4.2,2.8,8.6,2.1,13.2-3.4,21.8-6.9,43.6-10.3,65.4-2,12.7-3.8,25.4-5.9,38.1-.4,2.5-1,5.1-2.3,7.3-9.2,15.6-23.4,23.8-42.2,23.9-16.9,0-33.7-.8-50.6-1.2-1.3,0-2.8.4-3.9,1.1-16.8,10.9-33.5,21.9-50.2,32.8-1.1.7-2.1,1.5-3.5.7-1.4-.9-1-2.1-.7-3.3,1.3-5.6,2.7-11.2,4-16.7,1.2-5,2.4-10.1,3.6-15.3-.7,0-1.3-.1-1.9-.1Z"/>
    </g>
    <g>
      <path class="st2" d="M275.3,128.1c1.2.6,2.1,1.5,2.7,2.7.6,1.2,1,2.5,1,4s-.3,2.8-1,3.9c-.7,1.1-1.6,2-2.8,2.6-1.2.6-2.6.9-4.1.9h-5c-.1,0-.2,0-.2.2v8.9c0,.1,0,.2-.1.3,0,0-.2.1-.3.1h-4.1c-.1,0-.2,0-.3-.1,0,0-.1-.2-.1-.3v-23.7c0-.1,0-.2.1-.3,0,0,.2-.1.3-.1h9.9c1.5,0,2.9.3,4.1.9ZM273.1,137.3c.7-.6,1-1.4,1-2.4s-.3-1.9-1-2.5c-.7-.6-1.5-.9-2.6-.9h-4.4c-.1,0-.2,0-.2.2v6.4c0,.1,0,.2.2.2h4.4c1.1,0,1.9-.3,2.6-.9Z"/>
      <path class="st2" d="M292.7,134.2c1.2.5,2.1,1.2,2.8,2.2s1,1.9,1,3v11.9c0,.1,0,.2-.1.3,0,0-.2.1-.3.1h-4.1c-.1,0-.2,0-.3-.1,0,0-.1-.2-.1-.3v-1.2c0,0,0-.1,0-.1,0,0,0,0-.1,0-1,1.3-2.6,1.9-4.7,1.9s-3.3-.4-4.4-1.3c-1.1-.9-1.7-2.2-1.7-3.9s.6-3.2,1.9-4.2,3.1-1.5,5.4-1.5h3.6c.1,0,.2,0,.2-.2v-.8c0-.8-.2-1.4-.7-1.8-.5-.4-1.2-.6-2.1-.6s-1.3.1-1.8.4c-.5.3-.8.6-.9,1.1,0,.3-.2.4-.5.3l-4.2-.6c-.3,0-.4-.2-.4-.3,0-1,.5-1.9,1.2-2.7.7-.8,1.6-1.4,2.7-1.9,1.1-.4,2.4-.7,3.8-.7s2.9.3,4.1.8ZM290.5,147.5c.7-.5,1-1.2,1-2.1v-1.3c0-.1,0-.2-.2-.2h-2.5c-1,0-1.9.2-2.5.6-.6.4-.9,1-.9,1.7s.2,1.1.7,1.5c.4.4,1,.5,1.8.5s1.9-.3,2.6-.8Z"/>
      <path class="st2" d="M310.9,133.9c.2,0,.3.3.2.5l-.7,4c0,.3-.2.4-.5.2-.3-.1-.8-.2-1.2-.2s-.4,0-.8,0c-.8,0-1.6.4-2.1.9s-.9,1.3-.9,2.2v9.5c0,.1,0,.2-.1.3,0,0-.2.1-.3.1h-4.1c-.1,0-.2,0-.3-.1,0,0-.1-.2-.1-.3v-17.1c0-.1,0-.2.1-.3,0,0,.2-.1.3-.1h4.1c.1,0,.2,0,.3.1,0,0,.1.2.1.3v1.3c0,0,0,.1,0,.1,0,0,0,0,.1,0,1-1.4,2.2-2.1,3.8-2.1s1.5.2,2,.5Z"/>
      <path class="st2" d="M328.9,143.8c0,.3-.2.4-.5.4h-10.8c-.1,0-.2,0-.1.2,0,.5.2.9.4,1.4.6,1.3,1.8,2,3.7,2,1.5,0,2.7-.6,3.5-1.8,0-.1.2-.2.3-.2s.2,0,.2.1l2.5,2.5c.1.1.2.2.2.3s0,.1-.1.3c-.8,1-1.8,1.7-3,2.2-1.2.5-2.5.8-4,.8s-3.7-.5-5.1-1.4c-1.4-.9-2.4-2.2-3-3.8-.5-1.2-.7-2.7-.7-4.6s.2-2.4.5-3.4c.5-1.7,1.5-3,2.8-4,1.3-1,2.9-1.5,4.8-1.5s4.2.7,5.6,2c1.4,1.4,2.3,3.2,2.6,5.4.1.9.2,1.9.1,3ZM317.7,139.7c0,.3-.2.7-.2,1.1,0,.1,0,.2.2.2h6.1c.1,0,.2,0,.1-.2-.1-.7-.2-1-.2-1-.2-.7-.6-1.2-1.1-1.6-.5-.4-1.2-.6-1.9-.6-1.5,0-2.4.7-2.9,2.1Z"/>
      <path class="st2" d="M335,150.5c-1.4-.9-2.3-2.2-2.9-3.8-.4-1.2-.6-2.5-.6-4.1s.2-2.9.6-4.1c.6-1.6,1.5-2.8,2.9-3.7,1.4-.9,3-1.4,4.9-1.4s3.5.5,4.9,1.4c1.4.9,2.3,2.1,2.8,3.5.2.6.3,1,.3,1.3h0c0,.3-.1.4-.4.5l-4,.6h0c-.2,0-.4-.1-.4-.3v-.6c-.3-.6-.6-1.1-1.2-1.5-.6-.4-1.2-.6-2-.6s-1.4.2-1.9.6c-.5.4-.9.9-1.1,1.5-.3.7-.4,1.7-.4,2.9s.1,2.2.3,2.9c.2.7.6,1.2,1.1,1.6s1.2.6,1.9.6,1.4-.2,1.9-.6c.5-.4.9-.9,1.1-1.6,0,0,0-.1,0-.2,0,0,0,0,0-.1,0-.3.2-.4.5-.3l4,.6c.2,0,.3.2.3.4s0,.5-.2,1c-.5,1.6-1.4,2.8-2.9,3.7-1.4.9-3,1.3-4.9,1.3s-3.5-.5-4.8-1.4Z"/>
      <path class="st2" d="M366.6,143.8c0,.3-.2.4-.5.4h-10.8c-.1,0-.2,0-.1.2,0,.5.2.9.4,1.4.6,1.3,1.8,2,3.7,2,1.5,0,2.7-.6,3.5-1.8,0-.1.2-.2.3-.2s.2,0,.2.1l2.5,2.5c.1.1.2.2.2.3s0,.1-.1.3c-.8,1-1.8,1.7-3,2.2-1.2.5-2.5.8-4,.8s-3.7-.5-5.1-1.4c-1.4-.9-2.4-2.2-3-3.8-.5-1.2-.7-2.7-.7-4.6s.2-2.4.5-3.4c.5-1.7,1.5-3,2.8-4,1.3-1,2.9-1.5,4.8-1.5s4.2.7,5.6,2c1.4,1.4,2.3,3.2,2.6,5.4.1.9.2,1.9.1,3ZM355.4,139.7c0,.3-.2.7-.2,1.1,0,.1,0,.2.2.2h6.1c.1,0,.2,0,.1-.2-.1-.7-.2-1-.2-1-.2-.7-.6-1.2-1.1-1.6-.5-.4-1.2-.6-1.9-.6-1.5,0-2.4.7-2.9,2.1Z"/>
      <path class="st2" d="M254,193.2c-1.2-.4-2.1-1.1-2.7-1.9-.6-.8-1-1.7-1-2.7v-.3c0-.1,0-.2.1-.3,0,0,.2-.1.3-.1h3.9c.1,0,.2,0,.3.1,0,0,.1.2.1.3h0c0,.5.3,1,.9,1.3.6.4,1.3.5,2.2.5s1.4-.2,1.9-.5c.5-.3.7-.7.7-1.2s-.2-.7-.6-.9c-.4-.2-1.1-.4-2.1-.7-1.1-.3-2-.5-2.6-.8-1.5-.5-2.7-1.1-3.6-1.9-.9-.7-1.3-1.8-1.3-3.2s.7-3.1,2-4.1c1.3-1,3.1-1.5,5.3-1.5s2.8.2,3.9.7c1.1.5,2,1.1,2.6,2,.6.9.9,1.8.9,2.9s0,.2-.1.3c0,0-.2.1-.3.1h-3.7c-.1,0-.2,0-.3-.1,0,0-.1-.2-.1-.3,0-.5-.3-.9-.8-1.3-.5-.3-1.2-.5-2.1-.5s-1.4.1-1.9.4-.7.7-.7,1.2.2.8.7,1c.5.2,1.3.5,2.4.7.3,0,.5.1.9.2.3,0,.7.2,1,.3,1.7.5,3,1.1,3.9,1.9,1,.8,1.4,1.9,1.4,3.4s-.7,3.1-2,4c-1.4,1-3.2,1.5-5.5,1.5s-2.9-.2-4.1-.7Z"/>
      <path class="st2" d="M284.5,185.8c0,.3-.2.4-.5.4h-10.8c-.1,0-.2,0-.1.2,0,.5.2.9.4,1.4.6,1.3,1.8,2,3.7,2,1.5,0,2.7-.6,3.5-1.8,0-.1.2-.2.3-.2s.2,0,.2.1l2.5,2.5c.1.1.2.2.2.3s0,.1-.1.3c-.8,1-1.8,1.7-3,2.2-1.2.5-2.5.8-4,.8s-3.7-.5-5.1-1.4c-1.4-.9-2.4-2.2-3-3.8-.5-1.2-.7-2.7-.7-4.6s.2-2.4.5-3.4c.5-1.7,1.5-3,2.8-4,1.3-1,2.9-1.5,4.8-1.5s4.2.7,5.6,2c1.4,1.4,2.3,3.2,2.6,5.4.1.9.2,1.9.1,3ZM273.3,181.7c0,.3-.2.7-.2,1.1,0,.1,0,.2.2.2h6.1c.1,0,.2,0,.1-.2-.1-.7-.2-1-.2-1-.2-.7-.6-1.2-1.1-1.6-.5-.4-1.2-.6-1.9-.6-1.5,0-2.4.7-2.9,2.1Z"/>
      <path class="st2" d="M301.4,177.1c1.1,1.1,1.7,2.7,1.7,4.7v11.5c0,.1,0,.2-.1.3,0,0-.2.1-.3.1h-4.1c-.1,0-.2,0-.3-.1,0,0-.1-.2-.1-.3v-10.5c0-.9-.3-1.7-.8-2.3s-1.2-.9-2.1-.9-1.6.3-2.1.9c-.5.6-.8,1.3-.8,2.3v10.5c0,.1,0,.2-.1.3,0,0-.2.1-.3.1h-4.1c-.1,0-.2,0-.3-.1,0,0-.1-.2-.1-.3v-17.1c0-.1,0-.2.1-.3,0,0,.2-.1.3-.1h4.1c.1,0,.2,0,.3.1,0,0,.1.2.1.3v1.2c0,0,0,.1,0,.1,0,0,0,0,.1,0,1-1.4,2.4-2,4.3-2s3.4.6,4.5,1.7Z"/>
      <path class="st2" d="M309.6,192.5c-1.4-.9-2.3-2.2-2.9-3.8-.4-1.2-.6-2.5-.6-4.1s.2-2.9.6-4.1c.6-1.6,1.5-2.8,2.9-3.7,1.4-.9,3-1.4,4.9-1.4s3.5.5,4.9,1.4c1.4.9,2.3,2.1,2.8,3.5.2.6.3,1,.3,1.3h0c0,.3-.1.4-.4.5l-4,.6h0c-.2,0-.4-.1-.4-.3v-.6c-.3-.6-.6-1.1-1.2-1.5-.6-.4-1.2-.6-2-.6s-1.4.2-1.9.6c-.5.4-.9.9-1.1,1.5-.3.7-.4,1.7-.4,2.9s.1,2.2.3,2.9c.2.7.6,1.2,1.1,1.6s1.2.6,1.9.6,1.4-.2,1.9-.6c.5-.4.9-.9,1.1-1.6,0,0,0-.1,0-.2,0,0,0,0,0-.1,0-.3.2-.4.5-.3l4,.6c.2,0,.3.2.3.4s0,.5-.2,1c-.5,1.6-1.4,2.8-2.9,3.7-1.4.9-3,1.3-4.9,1.3s-3.5-.5-4.8-1.4Z"/>
      <path class="st2" d="M326.1,172.9c-.5-.5-.8-1.2-.8-2s.3-1.5.8-2c.5-.5,1.2-.8,2-.8s1.5.3,2,.8c.5.5.8,1.2.8,2s-.3,1.5-.8,2c-.5.5-1.2.8-2,.8s-1.5-.3-2-.8ZM325.6,193.5c0,0-.1-.2-.1-.3v-17.2c0-.1,0-.2.1-.3,0,0,.2-.1.3-.1h4.1c.1,0,.2,0,.3.1,0,0,.1.2.1.3v17.2c0,.1,0,.2-.1.3,0,0-.2.1-.3.1h-4.1c-.1,0-.2,0-.3-.1Z"/>
      <path class="st2" d="M334.4,193.5c0,0-.1-.2-.1-.3v-23.6c0-.1,0-.2.1-.3,0,0,.2-.1.3-.1h4.1c.1,0,.2,0,.3.1,0,0,.1.2.1.3v23.6c0,.1,0,.2-.1.3,0,0-.2.1-.3.1h-4.1c-.1,0-.2,0-.3-.1Z"/>
      <path class="st2" d="M343,193.5c0,0-.1-.2-.1-.3v-23.6c0-.1,0-.2.1-.3,0,0,.2-.1.3-.1h4.1c.1,0,.2,0,.3.1,0,0,.1.2.1.3v23.6c0,.1,0,.2-.1.3,0,0-.2.1-.3.1h-4.1c-.1,0-.2,0-.3-.1Z"/>
      <path class="st2" d="M354.3,192.4c-1.4-1-2.4-2.4-2.9-4.2-.3-1.1-.5-2.3-.5-3.6s.2-2.6.5-3.7c.5-1.7,1.5-3.1,2.9-4.1,1.4-1,3.1-1.5,5-1.5s3.5.5,4.9,1.5c1.4,1,2.3,2.3,2.9,4,.4,1.2.6,2.4.6,3.7s-.2,2.4-.5,3.5c-.5,1.8-1.5,3.2-2.9,4.3-1.4,1-3.1,1.6-5,1.6s-3.6-.5-5-1.5ZM361.3,189c.5-.5.9-1.1,1.2-1.9.2-.7.3-1.6.3-2.4s0-1.8-.3-2.5c-.3-.8-.7-1.4-1.2-1.9-.5-.4-1.2-.7-2-.7s-1.5.2-2,.7c-.5.4-.9,1.1-1.1,1.9-.2.6-.3,1.4-.3,2.5s0,1.9.2,2.4c.2.8.6,1.5,1.2,1.9.5.5,1.2.7,2,.7s1.4-.2,2-.7Z"/>
      <path class="st2" d="M369.9,196.6l1.2-8.1c0-.3.2-.4.5-.4h3.6c.3,0,.4.2.3.5l-2.2,8.2c0,.2-.2.4-.5.4h-2.5c-.3,0-.4-.2-.4-.5Z"/>
      <path class="st2" d="M253.7,226c0,0,.1.2.1.3v1.1c0,1.2-.3,2.1-.9,2.8-.6.7-1.5,1.5-2.6,2.2-.9.6-1.6,1.2-2,1.7-.4.5-.7,1.1-.7,1.8s.3,1.3.8,1.8c.6.5,1.3.7,2.2.7s1.8-.2,2.4-.7c.6-.5.9-1.1.9-1.9v-.6c0-.3.1-.4.4-.4l4.1.2c.1,0,.2,0,.3.1,0,0,.1.2.1.3v.3c0,1.4-.4,2.6-1,3.7s-1.7,1.9-2.9,2.5c-1.2.6-2.7.9-4.3.9s-3-.3-4.2-.9-2.1-1.4-2.8-2.4c-.7-1-1-2.2-1-3.6s.2-1.9.5-2.6c.4-.7.8-1.3,1.3-1.8.5-.5,1.2-1,2-1.5.8-.6,1.5-1.1,1.9-1.5.4-.4.6-.9.6-1.5v-.8c0-.1,0-.2.1-.3,0,0,.2-.1.3-.1h4.1c.1,0,.2,0,.3.1ZM253.5,218.8c.5.5.8,1.2.8,2s-.3,1.4-.8,2c-.5.5-1.2.8-2,.8s-1.5-.3-2-.8c-.5-.5-.8-1.2-.8-2s.3-1.5.8-2c.5-.5,1.2-.8,2-.8s1.4.3,2,.8Z"/>
      <path class="st2" d="M266.2,235.3l-5.6-17.2s0-.1,0-.2c0-.2.1-.3.4-.3h4.5c.3,0,.4.1.5.3l2.9,10.6c0,0,0,.1.1.1s0,0,.1-.1l2.9-10.6c0-.2.2-.3.5-.3h4.5c.1,0,.2.1.3.2s0,.2,0,.4l-5.6,17.1c0,.2-.2.3-.5.3h-4.6c-.2,0-.4-.1-.5-.3Z"/>
      <path class="st2" d="M294.7,227.8c0,.3-.2.4-.5.4h-10.8c-.1,0-.2,0-.1.2,0,.5.2.9.4,1.4.6,1.3,1.8,2,3.7,2,1.5,0,2.7-.6,3.5-1.8,0-.1.2-.2.3-.2s.2,0,.2.1l2.5,2.5c.1.1.2.2.2.3s0,.1-.1.3c-.8,1-1.8,1.7-3,2.2-1.2.5-2.5.8-4,.8s-3.7-.5-5.1-1.4c-1.4-.9-2.4-2.2-3-3.8-.5-1.2-.7-2.7-.7-4.6s.2-2.4.5-3.4c.5-1.7,1.5-3,2.8-4,1.3-1,2.9-1.5,4.8-1.5s4.2.7,5.6,2c1.4,1.4,2.3,3.2,2.6,5.4.1.9.2,1.9.1,3ZM283.6,223.7c0,.3-.2.7-.2,1.1,0,.1,0,.2.2.2h6.1c.1,0,.2,0,.1-.2-.1-.7-.2-1-.2-1-.2-.7-.6-1.2-1.1-1.6-.5-.4-1.2-.6-1.9-.6-1.5,0-2.4.7-2.9,2.1Z"/>
      <path class="st2" d="M308.7,217.9c.2,0,.3.3.2.5l-.7,4c0,.3-.2.4-.5.2-.3-.1-.8-.2-1.2-.2s-.4,0-.8,0c-.8,0-1.6.4-2.1.9s-.9,1.3-.9,2.2v9.5c0,.1,0,.2-.1.3,0,0-.2.1-.3.1h-4.1c-.1,0-.2,0-.3-.1,0,0-.1-.2-.1-.3v-17.1c0-.1,0-.2.1-.3,0,0,.2-.1.3-.1h4.1c.1,0,.2,0,.3.1,0,0,.1.2.1.3v1.3c0,0,0,.1,0,.1,0,0,0,0,.1,0,1-1.4,2.2-2.1,3.8-2.1s1.5.2,2,.5Z"/>
      <path class="st2" d="M322,211.3c0,0,.2-.1.3-.1h4.1c.1,0,.2,0,.3.1,0,0,.1.2.1.3v23.6c0,.1,0,.2-.1.3,0,0-.2.1-.3.1h-4.1c-.1,0-.2,0-.3-.1,0,0-.1-.2-.1-.3v-1.2c0,0,0-.1,0-.1,0,0,0,0-.1,0-1,1.3-2.3,1.9-4,1.9s-3-.5-4.2-1.4c-1.2-.9-2-2.2-2.5-3.7-.4-1.2-.6-2.6-.6-4.2s.2-3.1.6-4.3c.5-1.5,1.4-2.7,2.5-3.6,1.2-.9,2.6-1.3,4.3-1.3s3,.6,3.9,1.7c0,0,0,0,.1,0,0,0,0,0,0-.1v-7.5c0-.1,0-.2.1-.3ZM321.9,226.6c0-1.6-.3-2.8-.8-3.7-.5-.9-1.3-1.4-2.3-1.4s-1.9.5-2.5,1.4c-.6.9-.9,2.1-.9,3.7s.2,2.6.7,3.5c.6,1,1.4,1.5,2.6,1.5s1.9-.5,2.4-1.5c.5-.9.7-2,.7-3.5Z"/>
      <path class="st2" d="M341.8,218.2c1.2.5,2.1,1.2,2.8,2.2s1,1.9,1,3v11.9c0,.1,0,.2-.1.3,0,0-.2.1-.3.1h-4.1c-.1,0-.2,0-.3-.1,0,0-.1-.2-.1-.3v-1.2c0,0,0-.1,0-.1,0,0,0,0-.1,0-1,1.3-2.6,1.9-4.7,1.9s-3.3-.4-4.4-1.3c-1.1-.9-1.7-2.2-1.7-3.9s.6-3.2,1.9-4.2,3.1-1.5,5.4-1.5h3.6c.1,0,.2,0,.2-.2v-.8c0-.8-.2-1.4-.7-1.8-.5-.4-1.2-.6-2.1-.6s-1.3.1-1.8.4c-.5.3-.8.6-.9,1.1,0,.3-.2.4-.5.3l-4.2-.6c-.3,0-.4-.2-.4-.3,0-1,.5-1.9,1.2-2.7.7-.8,1.6-1.4,2.7-1.9,1.1-.4,2.4-.7,3.8-.7s2.9.3,4.1.8ZM339.6,231.4c.7-.5,1-1.2,1-2.1v-1.3c0-.1,0-.2-.2-.2h-2.5c-1,0-1.9.2-2.5.6-.6.4-.9,1-.9,1.7s.2,1.1.7,1.5c.4.4,1,.5,1.8.5s1.9-.3,2.6-.8Z"/>
      <path class="st2" d="M360.3,211.3c0,0,.2-.1.3-.1h4.1c.1,0,.2,0,.3.1,0,0,.1.2.1.3v23.6c0,.1,0,.2-.1.3,0,0-.2.1-.3.1h-4.1c-.1,0-.2,0-.3-.1,0,0-.1-.2-.1-.3v-1.2c0,0,0-.1,0-.1,0,0,0,0-.1,0-1,1.3-2.3,1.9-4,1.9s-3-.5-4.2-1.4c-1.2-.9-2-2.2-2.5-3.7-.4-1.2-.6-2.6-.6-4.2s.2-3.1.6-4.3c.5-1.5,1.4-2.7,2.5-3.6,1.2-.9,2.6-1.3,4.3-1.3s3,.6,3.9,1.7c0,0,0,0,.1,0,0,0,0,0,0-.1v-7.5c0-.1,0-.2.1-.3ZM360.1,226.6c0-1.6-.3-2.8-.8-3.7-.5-.9-1.3-1.4-2.3-1.4s-1.9.5-2.5,1.4c-.6.9-.9,2.1-.9,3.7s.2,2.6.7,3.5c.6,1,1.4,1.5,2.6,1.5s1.9-.5,2.4-1.5c.5-.9.7-2,.7-3.5Z"/>
      <path class="st2" d="M373.2,227.7c0,0-.1-.2-.1-.3v-1.1c0-1.2.3-2.1.9-2.8.6-.7,1.5-1.5,2.6-2.3.9-.6,1.6-1.2,2-1.7.4-.5.7-1.1.7-1.8s-.3-1.3-.8-1.8c-.6-.5-1.3-.7-2.2-.7s-1.8.2-2.4.7c-.6.5-.9,1.1-.9,1.9v.6c0,.3-.1.4-.4.4l-4.1-.2c-.1,0-.2,0-.3-.1,0,0-.1-.2-.1-.3v-.3c0-1.4.3-2.6,1-3.7.7-1.1,1.7-1.9,2.9-2.5,1.2-.6,2.7-.9,4.3-.9s3,.3,4.2.9,2.1,1.4,2.8,2.4c.7,1,1,2.2,1,3.6s-.2,1.9-.5,2.6c-.4.7-.8,1.3-1.3,1.8-.5.5-1.2,1-2,1.5-.8.6-1.5,1.1-1.9,1.5-.4.4-.6.9-.6,1.5v.8c0,.1,0,.2-.1.3,0,0-.2.1-.3.1h-4.1c-.1,0-.2,0-.3-.1ZM373.4,234.9c-.5-.5-.8-1.2-.8-2s.3-1.4.8-2c.5-.5,1.2-.8,2-.8s1.5.2,2,.8c.5.5.8,1.2.8,2s-.3,1.5-.8,2c-.5.5-1.2.8-2,.8s-1.5-.3-2-.8Z"/>
    </g>
    <path class="st2" d="M270.7,264.2c-9.3-.2-18.6-.2-27.9-.5-3.8,0-7.6-.2-11.3-.9-12.4-2.4-21.4-11.8-23.2-24.4-1.4-9.8-2.1-19.7-3.1-29.6-1.8-17.5-3.7-35-5.6-52.5-.7-6.9-1.8-13.8-2.1-20.7-.5-15.1,11.6-29.3,27.3-31.8,7.5-1.2,15.2-1.4,22.8-1.9,16.9-1.2,33.8-2.3,50.7-3.4,19-1.3,38-2.6,57-3.9,12.1-.8,24.2-1.4,36.3-2.6,8.3-.8,15.8.5,22.7,4.8,8.4,5.3,14.4,12.6,18,21.5,1.7,4.2,2.8,8.6,2.1,13.2-3.4,21.8-6.9,43.6-10.3,65.4-2,12.7-3.8,25.4-5.9,38.1-.4,2.5-1,5.1-2.3,7.3-9.2,15.6-23.4,23.8-42.2,23.9-16.9,0-33.7-.8-50.6-1.2-1.3,0-2.8.4-3.9,1.1-16.8,10.9-33.5,21.9-50.2,32.8-1.1.7-2.1,1.5-3.5.7-1.4-.9-1-2.1-.7-3.3,1.3-5.6,2.7-11.2,4-16.7,1.2-5,2.4-10.1,3.6-15.3-.7,0-1.3-.1-1.9-.1ZM283.1,284.8c11.7-7.7,23.4-15.4,35.2-23,.9-.6,2.1-.9,3.2-.9,15.9.4,31.8.5,47.7,1.4,14,.8,25.9-3.3,35.9-12.3,5.5-4.9,8.7-10.8,9.4-18.2.7-8.2,2.5-16.4,3.8-24.6,2.5-16.1,5.1-32.1,7.6-48.2,1.4-8.5,2.6-17.1,4.1-25.6,1.2-7-.8-13.2-4.3-19-5-8.4-11.9-14.7-21.9-17.6-4.2-1.2-8.4-.7-12.6-.4-15.7,1-31.4,2.1-47,3.2-18.2,1.3-36.5,2.5-54.7,3.8-15.4,1-30.7,2.1-46.1,3.1-4.6.3-9.2.5-13.8.9-15.2,1.1-27.2,12.8-27.7,27.2-.1,4.3.7,8.7,1.1,13.1,1.3,12.5,2.7,25.1,4,37.6,1.6,15.5,3.3,31,4.8,46.5.4,4.3.7,8.5,2.4,12.5,4,9.2,11.3,14.6,21.6,15.2,12.5.7,25.1.6,37.7.8,3.5,0,4.1.7,3.4,3.9-2.2,9.3-4.4,18.5-6.6,27.8,0,.3,0,.6-.2,1.4,4.6-3,8.7-5.7,12.9-8.4Z"/>
  </g>
  <g>
    <g class="st1">
      <path class="st0" d="M820.3,263.7c-13.7-.2-27.4-.3-41.1-.7-5.6-.1-11.2-.3-16.6-1.3-18.2-3.5-31.6-17.4-34.1-35.9-2-14.5-3.1-29.1-4.6-43.6-2.7-25.8-5.5-51.6-8.2-77.3-1.1-10.2-2.7-20.3-3-30.5-.8-22.2,17.1-43.2,40.3-46.9,11-1.8,22.4-2,33.6-2.8,24.9-1.7,49.8-3.3,74.7-5,28-1.9,56-3.8,84-5.8,17.8-1.2,35.7-2.1,53.4-3.8,12.2-1.2,23.3.7,33.5,7.1,12.4,7.8,21.2,18.5,26.5,31.7,2.5,6.2,4.2,12.7,3.1,19.5-5,32.1-10.2,64.2-15.2,96.3-2.9,18.7-5.6,37.4-8.7,56.1-.6,3.7-1.5,7.5-3.4,10.7-13.5,23-34.5,35.1-62.1,35.3-24.8.1-49.7-1.2-74.5-1.8-1.9,0-4.2.5-5.7,1.6-24.7,16.1-49.3,32.2-74,48.4-1.6,1-3.2,2.2-5.1,1-2-1.3-1.5-3.1-1-4.9,2-8.2,4-16.4,5.9-24.6,1.8-7.4,3.5-14.8,5.3-22.5-1.1,0-1.9-.2-2.7-.2Z"/>
    </g>
    <path class="st2" d="M820.1,263.9c-13.7-.2-27.4-.3-41.1-.7-5.6-.1-11.2-.3-16.6-1.3-18.2-3.5-31.6-17.4-34.1-35.9-2-14.5-3.1-29.1-4.6-43.6-2.7-25.8-5.5-51.6-8.2-77.3-1.1-10.2-2.7-20.3-3-30.5-.8-22.2,17.1-43.2,40.3-46.9,11-1.8,22.4-2,33.6-2.8,24.9-1.7,49.8-3.3,74.7-5,28-1.9,56-3.8,84-5.8,17.8-1.2,35.7-2.1,53.4-3.8,12.2-1.2,23.3.7,33.5,7.1,12.4,7.8,21.2,18.5,26.5,31.7,2.5,6.2,4.2,12.7,3.1,19.5-5,32.1-10.2,64.2-15.2,96.3-2.9,18.7-5.6,37.4-8.7,56.1-.6,3.7-1.5,7.5-3.4,10.7-13.5,23-34.5,35.1-62.1,35.3-24.8.1-49.7-1.2-74.5-1.8-1.9,0-4.2.5-5.7,1.6-24.7,16.1-49.3,32.2-74,48.4-1.6,1-3.2,2.2-5.1,1-2-1.3-1.5-3.1-1-4.9,2-8.2,4-16.4,5.9-24.6,1.8-7.4,3.5-14.8,5.3-22.5-1.1,0-1.9-.2-2.7-.2ZM838.4,294.2c17.3-11.3,34.5-22.6,51.8-33.9,1.3-.8,3.1-1.4,4.7-1.4,23.4.5,46.9.7,70.3,2,20.7,1.1,38.1-4.8,52.9-18.2,8.1-7.2,12.9-15.9,13.8-26.8,1.1-12.1,3.6-24.1,5.5-36.2,3.8-23.7,7.5-47.3,11.3-71,2-12.6,3.8-25.2,6.1-37.7,1.8-10.2-1.2-19.4-6.4-28.1-7.4-12.3-17.6-21.7-32.2-26-6.2-1.8-12.4-1-18.6-.6-23.1,1.5-46.2,3.1-69.3,4.7-26.9,1.8-53.7,3.7-80.6,5.5-22.6,1.5-45.2,3.1-67.9,4.6-6.8.5-13.6.8-20.4,1.3-22.4,1.6-40.1,18.8-40.7,40.1-.2,6.4,1,12.9,1.7,19.3,1.9,18.5,4,36.9,5.9,55.4,2.4,22.8,4.9,45.7,7.1,68.5.6,6.3,1,12.5,3.5,18.4,5.9,13.5,16.6,21.5,31.9,22.3,18.5,1,37,.9,55.6,1.2,5.2,0,6.1,1.1,5,5.8-3.2,13.6-6.5,27.3-9.8,40.9-.1.4-.1.9-.3,2,6.7-4.4,12.8-8.4,19-12.4Z"/>
  </g>
  <g>
    <path class="st2" d="M743.4,65c1,.5,1.8,1.3,2.3,2.3s.8,2.1.8,3.4-.3,2.4-.9,3.3c-.6,1-1.4,1.7-2.4,2.2-1,.5-2.2.8-3.6.8h-4.3c-.1,0-.1,0-.1.2v7.6c0,.1,0,.2-.1.3,0,0-.2.1-.3.1h-3.5c-.1,0-.2,0-.3-.1,0,0-.1-.2-.1-.3v-20.3c0,0,0-.2.1-.3,0,0,.2-.1.3-.1h8.5c1.3,0,2.5.3,3.5.8ZM741.5,72.9c.6-.5.8-1.2.8-2.1s-.3-1.6-.8-2.1c-.6-.5-1.3-.8-2.2-.8h-3.8c-.1,0-.1,0-.1.2v5.5c0,.1,0,.2.1.2h3.8c.9,0,1.7-.3,2.2-.8Z"/>
    <path class="st2" d="M761.8,78.5c0,.2-.2.4-.4.4h-9.3c-.1,0-.2,0-.1.1,0,.4.2.8.3,1.2.5,1.1,1.6,1.7,3.2,1.7,1.3,0,2.3-.5,3-1.6,0-.1.2-.2.3-.2s.1,0,.2.1l2.2,2.1c.1,0,.2.2.2.3s0,.1-.1.2c-.7.8-1.5,1.5-2.5,1.9-1,.4-2.2.7-3.4.7s-3.2-.4-4.4-1.2c-1.2-.8-2-1.9-2.6-3.3-.4-1-.6-2.3-.6-3.9s.2-2.1.5-2.9c.5-1.4,1.3-2.5,2.4-3.4,1.1-.8,2.5-1.3,4.1-1.3s3.6.6,4.8,1.7c1.2,1.2,1.9,2.7,2.2,4.7.1.8.2,1.6.1,2.5ZM752.2,75c0,.3-.1.6-.2,1,0,.1,0,.1.2.1h5.2c.1,0,.2,0,.1-.1,0-.6-.1-.9-.1-.8-.2-.6-.5-1.1-.9-1.4s-1-.5-1.7-.5c-1.3,0-2.1.6-2.5,1.8Z"/>
    <path class="st2" d="M773.8,70c.2,0,.2.2.2.5l-.6,3.4c0,.2-.2.3-.4.2-.3,0-.7-.2-1.1-.2s-.4,0-.7,0c-.7,0-1.3.3-1.8.8-.5.5-.8,1.1-.8,1.9v8.2c0,.1,0,.2-.1.3,0,0-.2.1-.3.1h-3.5c-.1,0-.2,0-.3-.1,0,0-.1-.2-.1-.3v-14.7c0-.1,0-.2.1-.3s.2-.1.3-.1h3.5c0,0,.2,0,.3.1,0,0,.1.2.1.3v1.1c0,0,0,.1,0,.1s0,0,0,0c.8-1.2,1.9-1.8,3.3-1.8s1.3.1,1.7.4Z"/>
    <path class="st2" d="M778,84.1c-1.2-.9-2-2.1-2.5-3.6-.3-.9-.4-2-.4-3.1s.1-2.2.4-3.2c.5-1.5,1.3-2.6,2.5-3.5,1.2-.8,2.6-1.3,4.3-1.3s3,.4,4.2,1.2c1.2.8,2,2,2.5,3.5.3,1,.5,2.1.5,3.2s-.1,2.1-.4,3c-.4,1.6-1.3,2.8-2.4,3.7-1.2.9-2.6,1.3-4.3,1.3s-3.1-.4-4.3-1.3ZM784,81.2c.5-.4.8-.9,1-1.6.2-.6.2-1.3.2-2.1s0-1.5-.2-2.1c-.2-.7-.6-1.2-1-1.6-.5-.4-1-.6-1.7-.6s-1.2.2-1.7.6-.8.9-1,1.6c-.2.5-.2,1.2-.2,2.1s0,1.6.2,2.1c.2.7.5,1.2,1,1.6.5.4,1,.6,1.7.6s1.2-.2,1.7-.6Z"/>
    <path class="st2" d="M791.4,87.8l1-7c0-.2.2-.3.4-.3h3.1c.3,0,.4.1.3.4l-1.9,7c0,.2-.2.3-.4.3h-2.1c-.2,0-.3-.1-.3-.4Z"/>
    <path class="st2" d="M814.5,77c0,0,.1.2.1.3v1c0,1-.3,1.8-.8,2.4-.5.6-1.3,1.3-2.2,1.9-.8.5-1.4,1-1.7,1.4-.4.4-.6.9-.6,1.5s.2,1.2.7,1.5c.5.4,1.1.6,1.9.6s1.5-.2,2-.6.8-1,.8-1.6v-.5c0-.2.1-.3.4-.3h3.5c0,.1.2.2.3.3s.1.2.1.3v.3c0,1.2-.3,2.3-.9,3.2-.6.9-1.4,1.7-2.5,2.2-1.1.5-2.3.8-3.7.8s-2.6-.2-3.6-.7c-1-.5-1.8-1.2-2.4-2.1-.6-.9-.8-1.9-.8-3.1s.2-1.6.5-2.3c.3-.6.7-1.1,1.1-1.5.4-.4,1-.8,1.7-1.3.7-.5,1.2-.9,1.6-1.3.3-.4.5-.8.5-1.3v-.7c0,0,0-.2.1-.3,0,0,.2-.1.3-.1h3.5c.1,0,.2,0,.3.1ZM814.3,70.8c.4.4.7,1,.7,1.7s-.2,1.2-.6,1.7-1,.7-1.7.7-1.3-.2-1.7-.7c-.4-.4-.7-1-.7-1.7s.2-1.3.7-1.7c.5-.4,1-.7,1.7-.7s1.2.2,1.7.7Z"/>
    <path class="st2" d="M830.9,70.2c1,.5,1.8,1.1,2.4,1.8.6.8.9,1.6.9,2.6v10.2c0,.1,0,.2-.1.3s-.2.1-.3.1h-3.5c-.1,0-.2,0-.3-.1,0,0-.1-.2-.1-.3v-1c0,0,0-.1,0-.1s0,0-.1,0c-.8,1.1-2.2,1.7-4,1.7s-2.8-.4-3.8-1.1c-1-.8-1.4-1.9-1.4-3.4s.5-2.7,1.6-3.6c1.1-.9,2.6-1.3,4.6-1.3h3.1c0,0,.2,0,.2-.1v-.7c0-.7-.2-1.2-.6-1.5s-1-.6-1.8-.6-1.1.1-1.5.3c-.4.2-.7.5-.8.9,0,.2-.2.3-.4.3l-3.6-.5c-.2,0-.3-.1-.3-.3,0-.8.4-1.6,1-2.3.6-.7,1.4-1.2,2.3-1.6,1-.4,2.1-.6,3.3-.6s2.5.2,3.5.7ZM829.1,81.6c.6-.5.9-1.1.9-1.8v-1.1c0,0,0-.1-.2-.1h-2.2c-.9,0-1.6.2-2.1.5-.5.3-.8.8-.8,1.4s.2,1,.6,1.3c.4.3.9.5,1.5.5s1.6-.2,2.2-.7Z"/>
    <path class="st2" d="M837.3,85.1c0,0-.1-.2-.1-.3v-20.3c0-.1,0-.2.1-.3,0,0,.2-.1.3-.1h3.5c0,0,.2,0,.3.1s.1.2.1.3v20.3c0,.1,0,.2-.1.3,0,0-.2.1-.3.1h-3.5c-.1,0-.2,0-.3-.1Z"/>
    <path class="st2" d="M854,69.9c0,0,.2-.1.3-.1h3.5c0,0,.2,0,.3.1,0,0,.1.2.1.3v13.7c0,2.6-.8,4.5-2.3,5.6-1.5,1.1-3.5,1.7-5.8,1.7s-1.5,0-2.3-.2c-.2,0-.3-.1-.3-.4v-3.1c.1-.3.3-.4.5-.3.7.1,1.4.2,2,.2,1.3,0,2.3-.3,3-.8.7-.6,1-1.5,1-2.7s0,0,0-.1,0,0-.1,0c-.8.8-1.9,1.2-3.3,1.2s-2.5-.3-3.6-.9c-1.1-.6-1.9-1.6-2.3-3-.3-.9-.5-2.1-.5-3.6s.2-2.8.5-3.8c.4-1.2,1.1-2.2,2.1-2.9s2.2-1.1,3.5-1.1,2.7.5,3.5,1.4c0,0,0,0,.1,0,0,0,0,0,0-.1v-.7c0-.1,0-.2.1-.3ZM853.9,77.4c0-.6,0-1.1,0-1.4s-.1-.7-.2-1c-.2-.5-.5-1-.9-1.3s-.9-.5-1.6-.5-1.1.2-1.5.5c-.4.3-.7.8-.9,1.3-.3.6-.4,1.4-.4,2.4s.1,1.9.4,2.4c.2.5.5,1,.9,1.3.5.3,1,.5,1.6.5s1.2-.2,1.6-.5.7-.8.9-1.3c.2-.6.2-1.4.2-2.5Z"/>
    <path class="st2" d="M870.3,69.9c0,0,.2-.1.3-.1h3.5c0,0,.2,0,.3.1,0,0,.1.2.1.3v14.7c0,.1,0,.2-.1.3,0,0-.2.1-.3.1h-3.5c-.1,0-.2,0-.3-.1,0,0-.1-.2-.1-.3v-1c0,0,0,0,0-.1,0,0,0,0-.1,0-.8,1.1-2,1.6-3.7,1.6s-2.8-.5-3.8-1.4c-1-.9-1.5-2.2-1.5-3.9v-10c0-.1,0-.2.1-.3s.2-.1.3-.1h3.5c.1,0,.2,0,.3.1,0,0,.1.2.1.3v9c0,.8.2,1.5.6,2,.4.5,1,.8,1.8.8s1.2-.2,1.7-.6c.4-.4.7-.9.8-1.6v-9.4c0-.1,0-.2.1-.3Z"/>
    <path class="st2" d="M889.4,71c1,1,1.5,2.3,1.5,4v9.8c0,.1,0,.2-.1.3,0,0-.2.1-.3.1h-3.5c-.1,0-.2,0-.3-.1,0,0-.1-.2-.1-.3v-9c0-.8-.2-1.5-.7-2-.5-.5-1-.8-1.8-.8s-1.3.3-1.8.8c-.4.5-.7,1.2-.7,2v9c0,.1,0,.2-.1.3s-.2.1-.3.1h-3.5c0,0-.2,0-.3-.1,0,0-.1-.2-.1-.3v-14.7c0-.1,0-.2.1-.3,0,0,.2-.1.3-.1h3.5c0,0,.2,0,.3.1,0,0,.1.2.1.3v1c0,0,0,0,0,.1s0,0,0,0c.8-1.2,2-1.7,3.7-1.7s2.9.5,3.9,1.5Z"/>
    <path class="st2" d="M903.5,70.2c1,.5,1.8,1.1,2.4,1.8.6.8.9,1.6.9,2.6v10.2c0,.1,0,.2-.1.3s-.2.1-.3.1h-3.5c-.1,0-.2,0-.3-.1,0,0-.1-.2-.1-.3v-1c0,0,0-.1,0-.1s0,0-.1,0c-.8,1.1-2.2,1.7-4,1.7s-2.8-.4-3.8-1.1c-1-.8-1.4-1.9-1.4-3.4s.5-2.7,1.6-3.6c1.1-.9,2.6-1.3,4.6-1.3h3.1c0,0,.2,0,.2-.1v-.7c0-.7-.2-1.2-.6-1.5s-1-.6-1.8-.6-1.1.1-1.5.3c-.4.2-.7.5-.8.9,0,.2-.2.3-.4.3l-3.6-.5c-.2,0-.3-.1-.3-.3,0-.8.4-1.6,1-2.3.6-.7,1.4-1.2,2.3-1.6,1-.4,2.1-.6,3.3-.6s2.5.2,3.5.7ZM901.7,81.6c.6-.5.9-1.1.9-1.8v-1.1c0,0,0-.1-.2-.1h-2.2c-.9,0-1.6.2-2.1.5-.5.3-.8.8-.8,1.4s.2,1,.6,1.3c.4.3.9.5,1.5.5s1.6-.2,2.2-.7Z"/>
    <path class="st2" d="M919.7,84.9l-4.8-14.7s0,0,0-.1c0-.2.1-.3.3-.3h3.9c.2,0,.4.1.4.3l2.5,9.1c0,0,0,0,0,0s0,0,0,0l2.5-9.1c0-.2.2-.3.4-.3h3.9c.1,0,.2,0,.3.2,0,0,0,.2,0,.3l-4.8,14.7c0,.2-.2.3-.4.3h-3.9c-.2,0-.3,0-.4-.3Z"/>
    <path class="st2" d="M944.1,78.5c0,.2-.2.4-.4.4h-9.3c-.1,0-.2,0-.1.1,0,.4.2.8.3,1.2.5,1.1,1.6,1.7,3.2,1.7,1.3,0,2.3-.5,3-1.6,0-.1.2-.2.3-.2s.1,0,.2.1l2.2,2.1c.1,0,.2.2.2.3s0,.1-.1.2c-.7.8-1.5,1.5-2.5,1.9-1,.4-2.2.7-3.4.7s-3.2-.4-4.4-1.2c-1.2-.8-2-1.9-2.6-3.3-.4-1-.6-2.3-.6-3.9s.2-2.1.5-2.9c.5-1.4,1.3-2.5,2.4-3.4,1.1-.8,2.5-1.3,4.1-1.3s3.6.6,4.8,1.7c1.2,1.2,1.9,2.7,2.2,4.7.1.8.2,1.6.1,2.5ZM934.5,75c0,.3-.1.6-.2,1,0,.1,0,.1.2.1h5.2c.1,0,.2,0,.1-.1,0-.6-.1-.9-.1-.8-.2-.6-.5-1.1-.9-1.4s-1-.5-1.7-.5c-1.3,0-2.1.6-2.5,1.8Z"/>
    <path class="st2" d="M946,85.1c0,0-.1-.2-.1-.3v-3.2c0-.2,0-.3.2-.4l6.8-7.4c.1-.1,0-.2,0-.2h-6.3c-.1,0-.2,0-.3-.1,0,0-.1-.2-.1-.3v-3.1c0-.1,0-.2.1-.3s.2-.1.3-.1h11.2c.1,0,.2,0,.3.1,0,0,.1.2.1.3v3.2c0,.1,0,.3-.2.5l-7,7.4c0,.1,0,.2,0,.2h6.9c0,0,.2,0,.3.1,0,0,.1.2.1.3v3.1c0,.1,0,.2-.1.3,0,0-.2.1-.3.1h-11.5c-.1,0-.2,0-.3-.1Z"/>
    <path class="st2" d="M975.3,73.1c0,0-.2.1-.3.1h-2.9c-.1,0-.2,0-.2.2v6.4c0,.7.1,1.1.4,1.5.3.3.7.5,1.3.5h1c0,0,.2,0,.3.1s.1.2.1.3v2.8c0,.2-.1.4-.4.4-.8,0-1.4,0-1.8,0-1.7,0-2.9-.3-3.7-.8-.8-.5-1.2-1.6-1.3-3.1v-8c0,0,0-.2-.1-.2h-1.7c-.1,0-.2,0-.3-.1,0,0-.1-.2-.1-.3v-2.7c0-.1,0-.2.1-.3s.2-.1.3-.1h1.7c0,0,.1,0,.1-.2v-3.6c0-.1,0-.2.1-.3,0,0,.2-.1.3-.1h3.4c0,0,.2,0,.3.1,0,0,.1.2.1.3v3.6c0,.1,0,.2.2.2h2.9c0,0,.2,0,.3.1,0,0,.1.2.1.3v2.7c0,0,0,.2-.1.3Z"/>
    <path class="st2" d="M991.5,78.5c0,.2-.1.4-.4.4h-9.3c-.1,0-.2,0-.1.1,0,.4.2.8.3,1.2.5,1.1,1.6,1.7,3.2,1.7,1.3,0,2.3-.5,3-1.6,0-.1.2-.2.3-.2s.1,0,.2.1l2.2,2.1c0,0,.1.2.1.3s0,.1-.1.2c-.7.8-1.5,1.5-2.5,1.9-1,.4-2.2.7-3.4.7s-3.2-.4-4.4-1.2c-1.2-.8-2-1.9-2.6-3.3-.4-1-.6-2.3-.6-3.9s.1-2.1.5-2.9c.5-1.4,1.3-2.5,2.4-3.4,1.1-.8,2.5-1.3,4.1-1.3s3.6.6,4.8,1.7c1.2,1.2,1.9,2.7,2.2,4.7.1.8.2,1.6.1,2.5ZM981.9,75c0,.3-.2.6-.2,1,0,.1,0,.1.1.1h5.2c.1,0,.2,0,.1-.1-.1-.6-.2-.9-.2-.8-.2-.6-.5-1.1-.9-1.4-.4-.3-1-.5-1.7-.5-1.3,0-2.1.6-2.5,1.8Z"/>
    <path class="st2" d="M1012,71c1,1,1.5,2.3,1.5,4v9.8c0,.1,0,.2-.1.3,0,0-.2.1-.3.1h-3.5c-.1,0-.2,0-.3-.1,0,0-.1-.2-.1-.3v-9c0-.8-.2-1.5-.7-2-.5-.5-1-.8-1.8-.8s-1.3.3-1.8.8c-.4.5-.7,1.2-.7,2v9c0,.1,0,.2-.1.3s-.2.1-.3.1h-3.5c0,0-.2,0-.3-.1,0,0-.1-.2-.1-.3v-20.3c0-.1,0-.2.1-.3s.2-.1.3-.1h3.5c0,0,.2,0,.3.1,0,0,.1.2.1.3v6.6c0,0,0,0,0,.1s0,0,0,0c.8-1.2,2-1.7,3.7-1.7s2.9.5,3.9,1.5Z"/>
    <path class="st2" d="M1026.2,70.2c1,.5,1.8,1.1,2.4,1.8.6.8.9,1.6.9,2.6v10.2c0,.1,0,.2-.1.3s-.2.1-.3.1h-3.5c-.1,0-.2,0-.3-.1,0,0-.1-.2-.1-.3v-1c0,0,0-.1,0-.1s0,0-.1,0c-.8,1.1-2.2,1.7-4,1.7s-2.8-.4-3.8-1.1c-1-.8-1.4-1.9-1.4-3.4s.5-2.7,1.6-3.6c1.1-.9,2.6-1.3,4.6-1.3h3.1c0,0,.2,0,.2-.1v-.7c0-.7-.2-1.2-.6-1.5s-1-.6-1.8-.6-1.1.1-1.5.3c-.4.2-.7.5-.8.9,0,.2-.2.3-.4.3l-3.6-.5c-.2,0-.3-.1-.3-.3,0-.8.4-1.6,1-2.3.6-.7,1.4-1.2,2.3-1.6,1-.4,2.1-.6,3.3-.6s2.5.2,3.5.7ZM1024.3,81.6c.6-.5.9-1.1.9-1.8v-1.1c0,0,0-.1-.2-.1h-2.2c-.9,0-1.6.2-2.1.5-.5.3-.8.8-.8,1.4s.2,1,.6,1.3c.4.3.9.5,1.5.5s1.6-.2,2.2-.7Z"/>
    <path class="st2" d="M1035,84.9c-1-.4-1.8-.9-2.3-1.6-.6-.7-.8-1.4-.8-2.3v-.3c0-.1,0-.2.1-.3,0,0,.2-.1.3-.1h3.3c0,0,.2,0,.3.1,0,0,.1.2.1.3h0c0,.5.2.8.7,1.2.5.3,1.1.5,1.8.5s1.2-.1,1.7-.4c.4-.3.6-.6.6-1s-.2-.6-.5-.8c-.4-.2-1-.4-1.8-.6-.9-.2-1.7-.5-2.2-.7-1.3-.4-2.3-1-3.1-1.6-.8-.6-1.1-1.6-1.1-2.8s.6-2.7,1.7-3.5c1.1-.9,2.7-1.3,4.6-1.3s2.4.2,3.4.6,1.7,1,2.2,1.7c.5.7.8,1.6.8,2.5s0,.2-.1.3-.2.1-.3.1h-3.2c-.1,0-.2,0-.3-.1s-.1-.2-.1-.3c0-.4-.2-.8-.7-1.1-.4-.3-1-.5-1.8-.5s-1.2.1-1.6.4c-.4.2-.6.6-.6,1s.2.7.6.9c.4.2,1.1.4,2.1.6.2,0,.5.1.8.2.3,0,.6.2.9.3,1.4.4,2.5,1,3.4,1.6.8.7,1.2,1.6,1.2,2.9s-.6,2.6-1.8,3.5c-1.2.8-2.7,1.2-4.7,1.2s-2.5-.2-3.5-.6Z"/>
    <path class="st2" d="M761.8,113.5c0,1.4-.2,2.6-.6,3.8-.5,1.3-1.2,2.3-2.2,3s-2.2,1.1-3.7,1.1-2.6-.5-3.4-1.5c0,0,0,0-.1,0s0,0,0,.1v6.4c0,.1,0,.2-.1.3,0,0-.2.1-.3.1h-3.5c-.1,0-.2,0-.3-.1s-.1-.2-.1-.3v-20.3c0-.1,0-.2.1-.3,0,0,.2-.1.3-.1h3.5c.1,0,.2,0,.3.1,0,0,.1.2.1.3v1c0,0,0,0,0,.1,0,0,0,0,.1,0,.8-1.1,2-1.7,3.5-1.7s2.6.4,3.6,1.2c1,.8,1.7,1.8,2.2,3.2.4,1,.5,2.2.5,3.6ZM757.4,113.5c0-1.3-.2-2.3-.6-3-.5-.9-1.2-1.3-2.2-1.3s-1.6.4-2.1,1.3c-.4.7-.6,1.7-.6,3s.2,2.4.7,3.1c.5.8,1.1,1.2,2,1.2s1.6-.4,2.1-1.2c.5-.8.8-1.8.8-3.2Z"/>
    <path class="st2" d="M773.9,106c.2,0,.2.2.2.5l-.6,3.4c0,.2-.2.3-.4.2-.3,0-.7-.2-1.1-.2s-.4,0-.7,0c-.7,0-1.3.3-1.8.8-.5.5-.8,1.1-.8,1.9v8.2c0,.1,0,.2-.1.3,0,0-.2.1-.3.1h-3.5c-.1,0-.2,0-.3-.1,0,0-.1-.2-.1-.3v-14.7c0-.1,0-.2.1-.3s.2-.1.3-.1h3.5c0,0,.2,0,.3.1,0,0,.1.2.1.3v1.1c0,0,0,.1,0,.1s0,0,0,0c.8-1.2,1.9-1.8,3.3-1.8s1.3.1,1.7.4Z"/>
    <path class="st2" d="M789.4,114.5c0,.2-.1.4-.4.4h-9.3c-.1,0-.2,0-.1.1,0,.4.2.8.3,1.2.5,1.1,1.6,1.7,3.2,1.7,1.3,0,2.3-.5,3-1.6,0-.1.2-.2.3-.2s.1,0,.2.1l2.2,2.1c0,0,.1.2.1.3s0,.1-.1.2c-.7.8-1.5,1.5-2.5,1.9-1,.4-2.2.7-3.4.7s-3.2-.4-4.4-1.2c-1.2-.8-2-1.9-2.6-3.3-.4-1-.6-2.3-.6-3.9s.1-2.1.5-2.9c.5-1.4,1.3-2.5,2.4-3.4,1.1-.8,2.5-1.3,4.1-1.3s3.6.6,4.8,1.7c1.2,1.2,1.9,2.7,2.2,4.7.1.8.2,1.6.1,2.5ZM779.8,111c0,.3-.2.6-.2,1,0,.1,0,.1.1.1h5.2c.1,0,.2,0,.1-.1-.1-.6-.2-.9-.2-.8-.2-.6-.5-1.1-.9-1.4-.4-.3-1-.5-1.7-.5-1.3,0-2.1.6-2.5,1.8Z"/>
    <path class="st2" d="M801.6,105.9c0,0,.2-.1.3-.1h3.5c0,0,.2,0,.3.1,0,0,.1.2.1.3v13.7c0,2.6-.8,4.5-2.3,5.6-1.5,1.1-3.5,1.7-5.8,1.7s-1.5,0-2.3-.2c-.2,0-.3-.1-.3-.4v-3.1c.1-.3.3-.4.5-.3.7.1,1.4.2,2,.2,1.3,0,2.3-.3,3-.8.7-.6,1-1.5,1-2.7s0,0,0-.1,0,0-.1,0c-.8.8-1.9,1.2-3.3,1.2s-2.5-.3-3.6-.9c-1.1-.6-1.9-1.6-2.3-3-.3-.9-.5-2.1-.5-3.6s.2-2.8.5-3.8c.4-1.2,1.1-2.2,2.1-2.9s2.2-1.1,3.5-1.1,2.7.5,3.5,1.4c0,0,0,0,.1,0,0,0,0,0,0-.1v-.7c0-.1,0-.2.1-.3ZM801.5,113.4c0-.6,0-1.1,0-1.4s-.1-.7-.2-1c-.2-.5-.5-1-.9-1.3s-.9-.5-1.6-.5-1.1.2-1.5.5c-.4.3-.7.8-.9,1.3-.3.6-.4,1.4-.4,2.4s.1,1.9.4,2.4c.2.5.5,1,.9,1.3.5.3,1,.5,1.6.5s1.2-.2,1.6-.5.7-.8.9-1.3c.2-.6.2-1.4.2-2.5Z"/>
    <path class="st2" d="M817.8,105.9c0,0,.2-.1.3-.1h3.5c0,0,.2,0,.3.1,0,0,.1.2.1.3v14.7c0,.1,0,.2-.1.3,0,0-.2.1-.3.1h-3.5c-.1,0-.2,0-.3-.1,0,0-.1-.2-.1-.3v-1c0,0,0,0,0-.1,0,0,0,0-.1,0-.8,1.1-2,1.6-3.7,1.6s-2.8-.5-3.8-1.4c-1-.9-1.5-2.2-1.5-3.9v-10c0-.1,0-.2.1-.3s.2-.1.3-.1h3.5c.1,0,.2,0,.3.1,0,0,.1.2.1.3v9c0,.8.2,1.5.6,2,.4.5,1,.8,1.8.8s1.2-.2,1.7-.6c.4-.4.7-.9.8-1.6v-9.4c0-.1,0-.2.1-.3Z"/>
    <path class="st2" d="M837,107c1,1,1.5,2.3,1.5,4v9.8c0,.1,0,.2-.1.3,0,0-.2.1-.3.1h-3.5c-.1,0-.2,0-.3-.1,0,0-.1-.2-.1-.3v-9c0-.8-.2-1.5-.7-2-.5-.5-1-.8-1.8-.8s-1.3.3-1.8.8c-.4.5-.7,1.2-.7,2v9c0,.1,0,.2-.1.3s-.2.1-.3.1h-3.5c0,0-.2,0-.3-.1,0,0-.1-.2-.1-.3v-14.7c0-.1,0-.2.1-.3,0,0,.2-.1.3-.1h3.5c0,0,.2,0,.3.1,0,0,.1.2.1.3v1c0,0,0,0,0,.1s0,0,0,0c.8-1.2,2-1.7,3.7-1.7s2.9.5,3.9,1.5Z"/>
    <path class="st2" d="M850.2,109.1c0,0-.2.1-.3.1h-2.9c-.1,0-.2,0-.2.2v6.4c0,.7.1,1.1.4,1.5.3.3.7.5,1.3.5h1c0,0,.2,0,.3.1s.1.2.1.3v2.8c0,.2-.1.4-.4.4-.8,0-1.4,0-1.8,0-1.7,0-2.9-.3-3.7-.8-.8-.5-1.2-1.6-1.3-3.1v-8c0,0,0-.2-.1-.2h-1.7c-.1,0-.2,0-.3-.1,0,0-.1-.2-.1-.3v-2.7c0-.1,0-.2.1-.3s.2-.1.3-.1h1.7c0,0,.1,0,.1-.2v-3.6c0-.1,0-.2.1-.3,0,0,.2-.1.3-.1h3.4c0,0,.2,0,.3.1,0,0,.1.2.1.3v3.6c0,.1,0,.2.2.2h2.9c0,0,.2,0,.3.1,0,0,.1.2.1.3v2.7c0,0,0,.2-.1.3Z"/>
    <path class="st2" d="M862.5,106.2c1,.5,1.8,1.1,2.4,1.8.6.8.9,1.6.9,2.6v10.2c0,.1,0,.2-.1.3,0,0-.2.1-.3.1h-3.5c-.1,0-.2,0-.3-.1,0,0-.1-.2-.1-.3v-1c0,0,0-.1,0-.1,0,0,0,0-.1,0-.8,1.1-2.2,1.7-4,1.7s-2.8-.4-3.8-1.1c-1-.8-1.4-1.9-1.4-3.4s.5-2.7,1.6-3.6c1.1-.9,2.6-1.3,4.6-1.3h3.1c.1,0,.2,0,.2-.1v-.7c0-.7-.2-1.2-.6-1.5-.4-.4-1-.6-1.8-.6s-1.1.1-1.5.3c-.4.2-.7.5-.8.9,0,.2-.2.3-.4.3l-3.6-.5c-.2,0-.4-.1-.3-.3,0-.8.4-1.6,1-2.3s1.4-1.2,2.3-1.6,2.1-.6,3.3-.6,2.5.2,3.5.7ZM860.6,117.6c.6-.5.9-1.1.9-1.8v-1.1c0,0,0-.1-.2-.1h-2.2c-.9,0-1.6.2-2.1.5s-.8.8-.8,1.4.2,1,.6,1.3c.4.3.9.5,1.5.5s1.6-.2,2.2-.7Z"/>
    <path class="st2" d="M878.4,100.3c0,0,.2-.1.3-.1h3.5c0,0,.2,0,.3.1s.1.2.1.3v20.3c0,.1,0,.2-.1.3,0,0-.2.1-.3.1h-3.5c-.1,0-.2,0-.3-.1,0,0-.1-.2-.1-.3v-1c0,0,0,0,0-.1,0,0,0,0-.1,0-.8,1.1-2,1.7-3.5,1.7s-2.6-.4-3.6-1.2c-1-.8-1.7-1.8-2.2-3.2-.3-1-.5-2.2-.5-3.6s.2-2.7.5-3.7c.5-1.3,1.2-2.3,2.2-3s2.2-1.1,3.7-1.1,2.6.5,3.4,1.5c0,0,0,0,.1,0,0,0,0,0,0-.1v-6.4c0-.1,0-.2.1-.3ZM878.3,113.5c0-1.3-.2-2.4-.7-3.2-.5-.8-1.1-1.2-2-1.2s-1.7.4-2.1,1.2c-.5.8-.8,1.8-.8,3.2s.2,2.2.6,3c.5.9,1.2,1.3,2.2,1.3s1.6-.4,2.1-1.3c.4-.7.6-1.8.6-3Z"/>
    <path class="st2" d="M888.2,120.1c-1.2-.9-2-2.1-2.5-3.6-.3-.9-.4-2-.4-3.1s.1-2.2.4-3.2c.5-1.5,1.3-2.6,2.5-3.5,1.2-.8,2.6-1.3,4.3-1.3s3,.4,4.2,1.2,2,2,2.5,3.5c.3,1,.5,2.1.5,3.2s-.1,2.1-.4,3c-.4,1.6-1.3,2.8-2.4,3.7-1.2.9-2.6,1.3-4.3,1.3s-3.1-.4-4.3-1.3ZM894.2,117.2c.5-.4.8-.9,1-1.6.2-.6.2-1.3.2-2.1s0-1.5-.2-2.1c-.2-.7-.6-1.2-1-1.6s-1-.6-1.7-.6-1.2.2-1.7.6-.8.9-1,1.6c-.2.5-.2,1.2-.2,2.1s0,1.6.2,2.1c.2.7.5,1.2,1,1.6.5.4,1,.6,1.7.6s1.2-.2,1.7-.6Z"/>
    <path class="st2" d="M918.1,100.3c0,0,.2-.1.3-.1h3.5c0,0,.2,0,.3.1,0,0,.1.2.1.3v20.3c0,.1,0,.2-.1.3s-.2.1-.3.1h-3.5c-.1,0-.2,0-.3-.1,0,0-.1-.2-.1-.3v-1c0,0,0,0,0-.1,0,0,0,0-.1,0-.8,1.1-2,1.7-3.5,1.7s-2.6-.4-3.6-1.2c-1-.8-1.7-1.8-2.2-3.2-.3-1-.5-2.2-.5-3.6s.2-2.7.5-3.7c.5-1.3,1.2-2.3,2.2-3,1-.8,2.2-1.1,3.7-1.1s2.6.5,3.4,1.5c0,0,0,0,.1,0,0,0,0,0,0-.1v-6.4c0-.1,0-.2.1-.3ZM917.9,113.5c0-1.3-.2-2.4-.7-3.2-.5-.8-1.1-1.2-2-1.2s-1.7.4-2.1,1.2c-.5.8-.8,1.8-.8,3.2s.2,2.2.6,3c.5.9,1.2,1.3,2.2,1.3s1.6-.4,2.1-1.3c.4-.7.6-1.8.6-3Z"/>
    <path class="st2" d="M939.2,114.5c0,.2-.1.4-.4.4h-9.3c-.1,0-.2,0-.1.1,0,.4.2.8.3,1.2.5,1.1,1.6,1.7,3.2,1.7,1.3,0,2.3-.5,3-1.6,0-.1.2-.2.3-.2s.1,0,.2.1l2.2,2.1c0,0,.1.2.1.3s0,.1-.1.2c-.7.8-1.5,1.5-2.5,1.9-1,.4-2.2.7-3.4.7s-3.2-.4-4.4-1.2c-1.2-.8-2-1.9-2.6-3.3-.4-1-.6-2.3-.6-3.9s.1-2.1.5-2.9c.5-1.4,1.3-2.5,2.4-3.4,1.1-.8,2.5-1.3,4.1-1.3s3.6.6,4.8,1.7c1.2,1.2,1.9,2.7,2.2,4.7.1.8.2,1.6.1,2.5ZM929.6,111c0,.3-.2.6-.2,1,0,.1,0,.1.1.1h5.2c.1,0,.2,0,.1-.1-.1-.6-.2-.9-.2-.8-.2-.6-.5-1.1-.9-1.4-.4-.3-1-.5-1.7-.5-1.3,0-2.1.6-2.5,1.8Z"/>
    <path class="st2" d="M957.4,100.3c0,0,.2-.1.3-.1h3.5c0,0,.2,0,.3.1s.1.2.1.3v20.3c0,.1,0,.2-.1.3,0,0-.2.1-.3.1h-3.5c-.1,0-.2,0-.3-.1,0,0-.1-.2-.1-.3v-1c0,0,0,0,0-.1,0,0,0,0-.1,0-.8,1.1-2,1.7-3.5,1.7s-2.6-.4-3.6-1.2c-1-.8-1.7-1.8-2.2-3.2-.3-1-.5-2.2-.5-3.6s.2-2.7.5-3.7c.5-1.3,1.2-2.3,2.2-3s2.2-1.1,3.7-1.1,2.6.5,3.4,1.5c0,0,0,0,.1,0,0,0,0,0,0-.1v-6.4c0-.1,0-.2.1-.3ZM957.3,113.5c0-1.3-.2-2.4-.7-3.2-.5-.8-1.1-1.2-2-1.2s-1.7.4-2.1,1.2c-.5.8-.8,1.8-.8,3.2s.2,2.2.6,3c.5.9,1.2,1.3,2.2,1.3s1.6-.4,2.1-1.3c.4-.7.6-1.8.6-3Z"/>
    <path class="st2" d="M967.2,120.1c-1.2-.9-2-2.1-2.5-3.6-.3-.9-.4-2-.4-3.1s.1-2.2.4-3.2c.5-1.5,1.3-2.6,2.5-3.5,1.2-.8,2.6-1.3,4.3-1.3s3,.4,4.2,1.2,2,2,2.5,3.5c.3,1,.5,2.1.5,3.2s-.1,2.1-.4,3c-.4,1.6-1.3,2.8-2.4,3.7-1.2.9-2.6,1.3-4.3,1.3s-3.1-.4-4.3-1.3ZM973.2,117.2c.5-.4.8-.9,1-1.6.2-.6.2-1.3.2-2.1s0-1.5-.2-2.1c-.2-.7-.6-1.2-1-1.6s-1-.6-1.7-.6-1.2.2-1.7.6-.8.9-1,1.6c-.2.5-.2,1.2-.2,2.1s0,1.6.2,2.1c.2.7.5,1.2,1,1.6.5.4,1,.6,1.7.6s1.2-.2,1.7-.6ZM969.5,103.8c0,0,0-.2,0-.3l1.6-3c0-.2.2-.3.5-.3h3c.1,0,.2,0,.3.1s0,.2,0,.3l-2.1,3c-.1.2-.2.2-.4.2h-2.5c-.1,0-.2,0-.3-.1Z"/>
    <path class="st2" d="M993.1,107c1,1,1.5,2.3,1.5,4v9.8c0,.1,0,.2-.1.3s-.2.1-.3.1h-3.5c0,0-.2,0-.3-.1,0,0-.1-.2-.1-.3v-9c0-.8-.2-1.5-.7-2-.5-.5-1-.8-1.8-.8s-1.3.3-1.8.8c-.5.5-.7,1.2-.7,2v9c0,.1,0,.2-.1.3,0,0-.2.1-.3.1h-3.5c-.1,0-.2,0-.3-.1,0,0-.1-.2-.1-.3v-14.7c0-.1,0-.2.1-.3s.2-.1.3-.1h3.5c0,0,.2,0,.3.1,0,0,.1.2.1.3v1c0,0,0,0,0,.1,0,0,0,0,0,0,.8-1.2,2-1.7,3.7-1.7s2.9.5,3.9,1.5Z"/>
    <path class="st2" d="M1007.2,100.3c0,0,.2-.1.3-.1h3.5c0,0,.2,0,.3.1,0,0,.1.2.1.3v20.3c0,.1,0,.2-.1.3s-.2.1-.3.1h-3.5c-.1,0-.2,0-.3-.1,0,0-.1-.2-.1-.3v-1c0,0,0,0,0-.1,0,0,0,0-.1,0-.8,1.1-2,1.7-3.5,1.7s-2.6-.4-3.6-1.2c-1-.8-1.7-1.8-2.2-3.2-.3-1-.5-2.2-.5-3.6s.2-2.7.5-3.7c.5-1.3,1.2-2.3,2.2-3,1-.8,2.2-1.1,3.7-1.1s2.6.5,3.4,1.5c0,0,0,0,.1,0,0,0,0,0,0-.1v-6.4c0-.1,0-.2.1-.3ZM1007.1,113.5c0-1.3-.2-2.4-.7-3.2-.5-.8-1.1-1.2-2-1.2s-1.7.4-2.1,1.2c-.5.8-.8,1.8-.8,3.2s.2,2.2.6,3c.5.9,1.2,1.3,2.2,1.3s1.6-.4,2.1-1.3c.4-.7.6-1.8.6-3Z"/>
    <path class="st2" d="M1028.3,114.5c0,.2-.1.4-.4.4h-9.3c-.1,0-.2,0-.1.1,0,.4.2.8.3,1.2.5,1.1,1.6,1.7,3.2,1.7,1.3,0,2.3-.5,3-1.6,0-.1.2-.2.3-.2s.1,0,.2.1l2.2,2.1c0,0,.1.2.1.3s0,.1-.1.2c-.7.8-1.5,1.5-2.5,1.9-1,.4-2.2.7-3.4.7s-3.2-.4-4.4-1.2c-1.2-.8-2-1.9-2.6-3.3-.4-1-.6-2.3-.6-3.9s.1-2.1.5-2.9c.5-1.4,1.3-2.5,2.4-3.4,1.1-.8,2.5-1.3,4.1-1.3s3.6.6,4.8,1.7c1.2,1.2,1.9,2.7,2.2,4.7.1.8.2,1.6.1,2.5ZM1018.7,111c0,.3-.2.6-.2,1,0,.1,0,.1.1.1h5.2c.1,0,.2,0,.1-.1-.1-.6-.2-.9-.2-.8-.2-.6-.5-1.1-.9-1.4-.4-.3-1-.5-1.7-.5-1.3,0-2.1.6-2.5,1.8Z"/>
    <path class="st2" d="M760.4,156.9l-4.8-14.7s0,0,0-.1c0-.2.1-.3.3-.3h3.9c.2,0,.4.1.4.3l2.5,9.1c0,0,0,0,0,0s0,0,0,0l2.5-9.1c0-.2.2-.3.4-.3h3.9c.1,0,.2,0,.3.2,0,0,0,.2,0,.3l-4.8,14.7c0,.2-.2.3-.4.3h-3.9c-.2,0-.3,0-.4-.3Z"/>
    <path class="st2" d="M772.7,139.4c-.5-.5-.7-1-.7-1.7s.2-1.3.7-1.7c.4-.4,1-.7,1.7-.7s1.3.2,1.7.7.7,1,.7,1.7-.2,1.2-.7,1.7-1,.7-1.7.7-1.2-.2-1.7-.7ZM772.4,157.1c0,0-.1-.2-.1-.3v-14.7c0,0,0-.2.1-.3s.2-.1.3-.1h3.5c.1,0,.2,0,.3.1,0,0,.1.2.1.3v14.7c0,.1,0,.2-.1.3s-.2.1-.3.1h-3.5c-.1,0-.2,0-.3-.1Z"/>
    <path class="st2" d="M793.5,150.5c0,.2-.2.4-.4.4h-9.3c-.1,0-.2,0-.1.1,0,.4.2.8.3,1.2.5,1.1,1.6,1.7,3.2,1.7,1.3,0,2.3-.5,3-1.6,0-.1.2-.2.3-.2s.1,0,.2.1l2.2,2.1c.1,0,.2.2.2.3s0,.1-.1.2c-.7.8-1.5,1.5-2.5,1.9-1,.4-2.2.7-3.4.7s-3.2-.4-4.4-1.2c-1.2-.8-2-1.9-2.6-3.3-.4-1-.6-2.3-.6-3.9s.2-2.1.5-2.9c.5-1.4,1.3-2.5,2.4-3.4,1.1-.8,2.5-1.3,4.1-1.3s3.6.6,4.8,1.7c1.2,1.2,1.9,2.7,2.2,4.7.1.8.2,1.6.1,2.5ZM783.9,147c0,.3-.1.6-.2,1,0,.1,0,.1.2.1h5.2c.1,0,.2,0,.1-.1,0-.6-.1-.9-.1-.8-.2-.6-.5-1.1-.9-1.4s-1-.5-1.7-.5c-1.3,0-2.1.6-2.5,1.8Z"/>
    <path class="st2" d="M808.1,143c1,1,1.5,2.3,1.5,4v9.8c0,.1,0,.2-.1.3s-.2.1-.3.1h-3.5c0,0-.2,0-.3-.1,0,0-.1-.2-.1-.3v-9c0-.8-.2-1.5-.7-2-.5-.5-1-.8-1.8-.8s-1.3.3-1.8.8c-.5.5-.7,1.2-.7,2v9c0,.1,0,.2-.1.3,0,0-.2.1-.3.1h-3.5c-.1,0-.2,0-.3-.1,0,0-.1-.2-.1-.3v-14.7c0-.1,0-.2.1-.3s.2-.1.3-.1h3.5c0,0,.2,0,.3.1,0,0,.1.2.1.3v1c0,0,0,0,0,.1,0,0,0,0,0,0,.8-1.2,2-1.7,3.7-1.7s2.9.5,3.9,1.5Z"/>
    <path class="st2" d="M826.2,150.5c0,.2-.2.4-.4.4h-9.3c-.1,0-.2,0-.1.1,0,.4.2.8.3,1.2.5,1.1,1.6,1.7,3.2,1.7,1.3,0,2.3-.5,3-1.6,0-.1.2-.2.3-.2s.1,0,.2.1l2.2,2.1c.1,0,.2.2.2.3s0,.1-.1.2c-.7.8-1.5,1.5-2.5,1.9-1,.4-2.2.7-3.4.7s-3.2-.4-4.4-1.2c-1.2-.8-2-1.9-2.6-3.3-.4-1-.6-2.3-.6-3.9s.2-2.1.5-2.9c.5-1.4,1.3-2.5,2.4-3.4,1.1-.8,2.5-1.3,4.1-1.3s3.6.6,4.8,1.7c1.2,1.2,1.9,2.7,2.2,4.7.1.8.2,1.6.1,2.5ZM816.6,147c0,.3-.1.6-.2,1,0,.1,0,.1.2.1h5.2c.1,0,.2,0,.1-.1,0-.6-.1-.9-.1-.8-.2-.6-.5-1.1-.9-1.4s-1-.5-1.7-.5c-1.3,0-2.1.6-2.5,1.8Z"/>
    <path class="st2" d="M840.8,143c1,1,1.5,2.3,1.5,4v9.8c0,.1,0,.2-.1.3s-.2.1-.3.1h-3.5c0,0-.2,0-.3-.1,0,0-.1-.2-.1-.3v-9c0-.8-.2-1.5-.7-2-.5-.5-1-.8-1.8-.8s-1.3.3-1.8.8c-.5.5-.7,1.2-.7,2v9c0,.1,0,.2-.1.3,0,0-.2.1-.3.1h-3.5c-.1,0-.2,0-.3-.1,0,0-.1-.2-.1-.3v-14.7c0-.1,0-.2.1-.3s.2-.1.3-.1h3.5c0,0,.2,0,.3.1,0,0,.1.2.1.3v1c0,0,0,0,0,.1,0,0,0,0,0,0,.8-1.2,2-1.7,3.7-1.7s2.9.5,3.9,1.5Z"/>
    <path class="st2" d="M865,150.5c0,.2-.2.4-.4.4h-9.3c-.1,0-.2,0-.1.1,0,.4.2.8.3,1.2.5,1.1,1.6,1.7,3.2,1.7,1.3,0,2.3-.5,3-1.6,0-.1.2-.2.3-.2s.1,0,.2.1l2.2,2.1c.1,0,.2.2.2.3s0,.1-.1.2c-.7.8-1.5,1.5-2.5,1.9-1,.4-2.2.7-3.4.7s-3.2-.4-4.4-1.2c-1.2-.8-2-1.9-2.6-3.3-.4-1-.6-2.3-.6-3.9s.2-2.1.5-2.9c.5-1.4,1.3-2.5,2.4-3.4,1.1-.8,2.5-1.3,4.1-1.3s3.6.6,4.8,1.7c1.2,1.2,1.9,2.7,2.2,4.7.1.8.2,1.6.1,2.5ZM855.4,147c0,.3-.1.6-.2,1,0,.1,0,.1.2.1h5.2c.1,0,.2,0,.1-.1,0-.6-.1-.9-.1-.8-.2-.6-.5-1.1-.9-1.4s-1-.5-1.7-.5c-1.3,0-2.1.6-2.5,1.8Z"/>
    <path class="st2" d="M870.1,156.9c-1-.4-1.8-.9-2.3-1.6-.5-.7-.8-1.4-.8-2.3v-.3c0-.1,0-.2.1-.3s.2-.1.3-.1h3.3c0,0,.2,0,.3.1,0,0,.1.2.1.3h0c0,.5.2.8.7,1.2.5.3,1.1.5,1.8.5s1.2-.1,1.6-.4c.4-.3.6-.6.6-1s-.2-.6-.5-.8c-.4-.2-1-.4-1.8-.6-.9-.2-1.7-.5-2.2-.7-1.3-.4-2.3-1-3.1-1.6-.8-.6-1.1-1.6-1.1-2.8s.6-2.7,1.7-3.5,2.7-1.3,4.6-1.3,2.4.2,3.4.6,1.7,1,2.2,1.7c.5.7.8,1.6.8,2.5s0,.2-.1.3c0,0-.2.1-.3.1h-3.2c-.1,0-.2,0-.3-.1,0,0-.1-.2-.1-.3,0-.4-.2-.8-.7-1.1s-1-.5-1.8-.5-1.2.1-1.6.4c-.4.2-.6.6-.6,1s.2.7.6.9c.4.2,1.1.4,2.1.6.2,0,.5.1.8.2s.6.2.9.3c1.4.4,2.5,1,3.4,1.6s1.2,1.6,1.2,2.9-.6,2.6-1.8,3.5c-1.2.8-2.7,1.2-4.7,1.2s-2.5-.2-3.5-.6Z"/>
    <path class="st2" d="M892.1,142.2c1,.5,1.8,1.1,2.4,1.8.6.8.9,1.6.9,2.6v10.2c0,.1,0,.2-.1.3s-.2.1-.3.1h-3.5c-.1,0-.2,0-.3-.1,0,0-.1-.2-.1-.3v-1c0,0,0-.1,0-.1s0,0-.1,0c-.8,1.1-2.2,1.7-4,1.7s-2.8-.4-3.8-1.1c-1-.8-1.4-1.9-1.4-3.4s.5-2.7,1.6-3.6c1.1-.9,2.6-1.3,4.6-1.3h3.1c0,0,.2,0,.2-.1v-.7c0-.7-.2-1.2-.6-1.5s-1-.6-1.8-.6-1.1.1-1.5.3c-.4.2-.7.5-.8.9,0,.2-.2.3-.4.3l-3.6-.5c-.2,0-.3-.1-.3-.3,0-.8.4-1.6,1-2.3.6-.7,1.4-1.2,2.3-1.6,1-.4,2.1-.6,3.3-.6s2.5.2,3.5.7ZM890.2,153.6c.6-.5.9-1.1.9-1.8v-1.1c0,0,0-.1-.2-.1h-2.2c-.9,0-1.6.2-2.1.5-.5.3-.8.8-.8,1.4s.2,1,.6,1.3c.4.3.9.5,1.5.5s1.6-.2,2.2-.7Z"/>
    <path class="st2" d="M901,156.9c-1-.4-1.8-.9-2.3-1.6-.6-.7-.8-1.4-.8-2.3v-.3c0-.1,0-.2.1-.3,0,0,.2-.1.3-.1h3.3c0,0,.2,0,.3.1,0,0,.1.2.1.3h0c0,.5.2.8.7,1.2.5.3,1.1.5,1.8.5s1.2-.1,1.7-.4c.4-.3.6-.6.6-1s-.2-.6-.5-.8c-.4-.2-1-.4-1.8-.6-.9-.2-1.7-.5-2.2-.7-1.3-.4-2.3-1-3.1-1.6-.8-.6-1.1-1.6-1.1-2.8s.6-2.7,1.7-3.5c1.1-.9,2.7-1.3,4.6-1.3s2.4.2,3.4.6,1.7,1,2.2,1.7c.5.7.8,1.6.8,2.5s0,.2-.1.3-.2.1-.3.1h-3.2c-.1,0-.2,0-.3-.1s-.1-.2-.1-.3c0-.4-.2-.8-.7-1.1-.4-.3-1-.5-1.8-.5s-1.2.1-1.6.4c-.4.2-.6.6-.6,1s.2.7.6.9c.4.2,1.1.4,2.1.6.2,0,.5.1.8.2.3,0,.6.2.9.3,1.4.4,2.5,1,3.4,1.6.8.7,1.2,1.6,1.2,2.9s-.6,2.6-1.8,3.5c-1.2.8-2.7,1.2-4.7,1.2s-2.5-.2-3.5-.6Z"/>
    <path class="st2" d="M929,142.2c1,.5,1.8,1.1,2.4,1.8.6.8.9,1.6.9,2.6v10.2c0,.1,0,.2-.1.3,0,0-.2.1-.3.1h-3.5c-.1,0-.2,0-.3-.1,0,0-.1-.2-.1-.3v-1c0,0,0-.1,0-.1,0,0,0,0-.1,0-.8,1.1-2.2,1.7-4,1.7s-2.8-.4-3.8-1.1c-1-.8-1.4-1.9-1.4-3.4s.5-2.7,1.6-3.6c1.1-.9,2.6-1.3,4.6-1.3h3.1c.1,0,.2,0,.2-.1v-.7c0-.7-.2-1.2-.6-1.5-.4-.4-1-.6-1.8-.6s-1.1.1-1.5.3c-.4.2-.7.5-.8.9,0,.2-.2.3-.4.3l-3.6-.5c-.2,0-.4-.1-.3-.3,0-.8.4-1.6,1-2.3s1.4-1.2,2.3-1.6,2.1-.6,3.3-.6,2.5.2,3.5.7ZM927.1,153.6c.6-.5.9-1.1.9-1.8v-1.1c0,0,0-.1-.2-.1h-2.2c-.9,0-1.6.2-2.1.5s-.8.8-.8,1.4.2,1,.6,1.3c.4.3.9.5,1.5.5s1.6-.2,2.2-.7Z"/>
    <path class="st2" d="M944.8,141.9c0,0,.2-.1.3-.1h3.5c0,0,.2,0,.3.1,0,0,.1.2.1.3v13.7c0,2.6-.8,4.5-2.3,5.6-1.5,1.1-3.5,1.7-5.8,1.7s-1.5,0-2.3-.2c-.2,0-.3-.1-.3-.4v-3.1c.1-.3.3-.4.5-.3.7.1,1.4.2,2,.2,1.3,0,2.3-.3,3-.8.7-.6,1-1.5,1-2.7s0,0,0-.1,0,0-.1,0c-.8.8-1.9,1.2-3.3,1.2s-2.5-.3-3.6-.9c-1.1-.6-1.9-1.6-2.3-3-.3-.9-.5-2.1-.5-3.6s.2-2.8.5-3.8c.4-1.2,1.1-2.2,2.1-2.9s2.2-1.1,3.5-1.1,2.7.5,3.5,1.4c0,0,0,0,.1,0,0,0,0,0,0-.1v-.7c0-.1,0-.2.1-.3ZM944.7,149.4c0-.6,0-1.1,0-1.4s-.1-.7-.2-1c-.2-.5-.5-1-.9-1.3s-.9-.5-1.6-.5-1.1.2-1.5.5c-.4.3-.7.8-.9,1.3-.3.6-.4,1.4-.4,2.4s.1,1.9.4,2.4c.2.5.5,1,.9,1.3.5.3,1,.5,1.6.5s1.2-.2,1.6-.5.7-.8.9-1.3c.2-.6.2-1.4.2-2.5Z"/>
    <path class="st2" d="M961,141.9c0,0,.2-.1.3-.1h3.5c0,0,.2,0,.3.1,0,0,.1.2.1.3v14.7c0,.1,0,.2-.1.3,0,0-.2.1-.3.1h-3.5c-.1,0-.2,0-.3-.1,0,0-.1-.2-.1-.3v-1c0,0,0,0,0-.1,0,0,0,0-.1,0-.8,1.1-2,1.6-3.7,1.6s-2.8-.5-3.8-1.4c-1-.9-1.5-2.2-1.5-3.9v-10c0-.1,0-.2.1-.3s.2-.1.3-.1h3.5c.1,0,.2,0,.3.1,0,0,.1.2.1.3v9c0,.8.2,1.5.6,2,.4.5,1,.8,1.8.8s1.2-.2,1.7-.6c.4-.4.7-.9.8-1.6v-9.4c0-.1,0-.2.1-.3Z"/>
    <path class="st2" d="M977.9,142.2c1,.5,1.8,1.1,2.4,1.8.6.8.9,1.6.9,2.6v10.2c0,.1,0,.2-.1.3,0,0-.2.1-.3.1h-3.5c-.1,0-.2,0-.3-.1,0,0-.1-.2-.1-.3v-1c0,0,0-.1,0-.1,0,0,0,0-.1,0-.8,1.1-2.2,1.7-4,1.7s-2.8-.4-3.8-1.1c-1-.8-1.4-1.9-1.4-3.4s.5-2.7,1.6-3.6c1.1-.9,2.6-1.3,4.6-1.3h3.1c.1,0,.2,0,.2-.1v-.7c0-.7-.2-1.2-.6-1.5-.4-.4-1-.6-1.8-.6s-1.1.1-1.5.3c-.4.2-.7.5-.8.9,0,.2-.2.3-.4.3l-3.6-.5c-.2,0-.4-.1-.3-.3,0-.8.4-1.6,1-2.3s1.4-1.2,2.3-1.6,2.1-.6,3.3-.6,2.5.2,3.5.7ZM976,153.6c.6-.5.9-1.1.9-1.8v-1.1c0,0,0-.1-.2-.1h-2.2c-.9,0-1.6.2-2.1.5s-.8.8-.8,1.4.2,1,.6,1.3c.4.3.9.5,1.5.5s1.6-.2,2.2-.7Z"/>
    <path class="st2" d="M986.7,156.9c-1-.4-1.8-.9-2.3-1.6-.5-.7-.8-1.4-.8-2.3v-.3c0-.1,0-.2.1-.3s.2-.1.3-.1h3.3c0,0,.2,0,.3.1,0,0,.1.2.1.3h0c0,.5.2.8.7,1.2.5.3,1.1.5,1.8.5s1.2-.1,1.6-.4c.4-.3.6-.6.6-1s-.2-.6-.5-.8c-.4-.2-1-.4-1.8-.6-.9-.2-1.7-.5-2.2-.7-1.3-.4-2.3-1-3.1-1.6-.8-.6-1.1-1.6-1.1-2.8s.6-2.7,1.7-3.5,2.7-1.3,4.6-1.3,2.4.2,3.4.6,1.7,1,2.2,1.7c.5.7.8,1.6.8,2.5s0,.2-.1.3c0,0-.2.1-.3.1h-3.2c-.1,0-.2,0-.3-.1,0,0-.1-.2-.1-.3,0-.4-.2-.8-.7-1.1s-1-.5-1.8-.5-1.2.1-1.6.4c-.4.2-.6.6-.6,1s.2.7.6.9c.4.2,1.1.4,2.1.6.2,0,.5.1.8.2s.6.2.9.3c1.4.4,2.5,1,3.4,1.6s1.2,1.6,1.2,2.9-.6,2.6-1.8,3.5c-1.2.8-2.7,1.2-4.7,1.2s-2.5-.2-3.5-.6Z"/>
    <path class="st2" d="M1007.7,156.1c-1.2-.9-2-2.1-2.5-3.6-.3-.9-.4-2-.4-3.1s.1-2.2.4-3.2c.5-1.5,1.3-2.6,2.5-3.5,1.2-.8,2.6-1.3,4.3-1.3s3,.4,4.2,1.2,2,2,2.5,3.5c.3,1,.5,2.1.5,3.2s-.1,2.1-.4,3c-.4,1.6-1.3,2.8-2.4,3.7-1.2.9-2.6,1.3-4.3,1.3s-3.1-.4-4.3-1.3ZM1013.7,153.2c.5-.4.8-.9,1-1.6.2-.6.2-1.3.2-2.1s0-1.5-.2-2.1c-.2-.7-.6-1.2-1-1.6s-1-.6-1.7-.6-1.2.2-1.7.6-.8.9-1,1.6c-.2.5-.2,1.2-.2,2.1s0,1.6.2,2.1c.2.7.5,1.2,1,1.6.5.4,1,.6,1.7.6s1.2-.2,1.7-.6Z"/>
    <path class="st2" d="M785.2,177.9c0,0,.2-.1.3-.1h3.5c0,0,.2,0,.3.1,0,0,.1.2.1.3v20.3c0,.1,0,.2-.1.3s-.2.1-.3.1h-3.5c-.1,0-.2,0-.3-.1,0,0-.1-.2-.1-.3v-6.4c0,0,0,0,0-.1,0,0,0,0-.1,0-.8,1-1.9,1.5-3.4,1.5s-2.7-.4-3.7-1.1-1.7-1.8-2.2-3c-.4-1.1-.5-2.3-.5-3.8s.2-2.6.5-3.6c.4-1.4,1.2-2.5,2.2-3.2,1-.8,2.2-1.2,3.6-1.2s2.6.6,3.5,1.7c0,0,0,0,.1,0s0,0,0-.1v-1c0-.1,0-.2.1-.3ZM785,185.5c0-1.3-.2-2.3-.6-3-.5-.9-1.2-1.3-2.1-1.3s-1.7.4-2.2,1.3c-.4.8-.6,1.8-.6,3s.2,2.4.8,3.2c.5.8,1.2,1.2,2.1,1.2s1.5-.4,2-1.2c.4-.7.7-1.8.7-3.1Z"/>
    <path class="st2" d="M801.6,177.9c0,0,.2-.1.3-.1h3.5c0,0,.2,0,.3.1,0,0,.1.2.1.3v14.7c0,.1,0,.2-.1.3,0,0-.2.1-.3.1h-3.5c-.1,0-.2,0-.3-.1,0,0-.1-.2-.1-.3v-1c0,0,0,0,0-.1,0,0,0,0-.1,0-.8,1.1-2,1.6-3.7,1.6s-2.8-.5-3.8-1.4c-1-.9-1.5-2.2-1.5-3.9v-10c0-.1,0-.2.1-.3s.2-.1.3-.1h3.5c.1,0,.2,0,.3.1,0,0,.1.2.1.3v9c0,.8.2,1.5.6,2,.4.5,1,.8,1.8.8s1.2-.2,1.7-.6c.4-.4.7-.9.8-1.6v-9.4c0-.1,0-.2.1-.3Z"/>
    <path class="st2" d="M822.7,186.5c0,.2-.1.4-.4.4h-9.3c-.1,0-.2,0-.1.1,0,.4.2.8.3,1.2.5,1.1,1.6,1.7,3.2,1.7,1.3,0,2.3-.5,3-1.6,0-.1.2-.2.3-.2s.1,0,.2.1l2.2,2.1c0,0,.1.2.1.3s0,.1-.1.2c-.7.8-1.5,1.5-2.5,1.9-1,.4-2.2.7-3.4.7s-3.2-.4-4.4-1.2c-1.2-.8-2-1.9-2.6-3.3-.4-1-.6-2.3-.6-3.9s.1-2.1.5-2.9c.5-1.4,1.3-2.5,2.4-3.4,1.1-.8,2.5-1.3,4.1-1.3s3.6.6,4.8,1.7c1.2,1.2,1.9,2.7,2.2,4.7.1.8.2,1.6.1,2.5ZM813.1,183c0,.3-.2.6-.2,1,0,.1,0,.1.1.1h5.2c.1,0,.2,0,.1-.1-.1-.6-.2-.9-.2-.8-.2-.6-.5-1.1-.9-1.4-.4-.3-1-.5-1.7-.5-1.3,0-2.1.6-2.5,1.8ZM813.5,175.8c0,0,0-.2,0-.3l1.6-3c0-.2.2-.3.5-.3h3c.1,0,.2,0,.3.1,0,0,0,.2,0,.3l-2.1,3c0,.2-.2.2-.4.2h-2.5c-.1,0-.2,0-.3-.1Z"/>
    <path class="st2" d="M845.5,185.5c0,1.4-.2,2.6-.6,3.8-.5,1.3-1.2,2.3-2.2,3s-2.2,1.1-3.7,1.1-2.6-.5-3.4-1.5c0,0,0,0-.1,0,0,0,0,0,0,.1v6.4c0,.1,0,.2-.1.3s-.2.1-.3.1h-3.5c-.1,0-.2,0-.3-.1,0,0-.1-.2-.1-.3v-20.3c0-.1,0-.2.1-.3s.2-.1.3-.1h3.5c0,0,.2,0,.3.1,0,0,.1.2.1.3v1c0,0,0,0,0,.1s0,0,.1,0c.8-1.1,2-1.7,3.5-1.7s2.6.4,3.6,1.2c1,.8,1.7,1.8,2.2,3.2.4,1,.5,2.2.5,3.6ZM841.1,185.5c0-1.3-.2-2.3-.6-3-.5-.9-1.2-1.3-2.2-1.3s-1.6.4-2.1,1.3c-.4.7-.6,1.7-.6,3s.2,2.4.7,3.1c.5.8,1.1,1.2,2,1.2s1.6-.4,2.1-1.2c.5-.8.8-1.8.8-3.2Z"/>
    <path class="st2" d="M857.9,178.2c1,.5,1.8,1.1,2.4,1.8.6.8.9,1.6.9,2.6v10.2c0,.1,0,.2-.1.3s-.2.1-.3.1h-3.5c-.1,0-.2,0-.3-.1,0,0-.1-.2-.1-.3v-1c0,0,0-.1,0-.1s0,0-.1,0c-.8,1.1-2.2,1.7-4,1.7s-2.8-.4-3.8-1.1c-1-.8-1.4-1.9-1.4-3.4s.5-2.7,1.6-3.6c1.1-.9,2.6-1.3,4.6-1.3h3.1c0,0,.2,0,.2-.1v-.7c0-.7-.2-1.2-.6-1.5s-1-.6-1.8-.6-1.1.1-1.5.3c-.4.2-.7.5-.8.9,0,.2-.2.3-.4.3l-3.6-.5c-.2,0-.3-.1-.3-.3,0-.8.4-1.6,1-2.3.6-.7,1.4-1.2,2.3-1.6,1-.4,2.1-.6,3.3-.6s2.5.2,3.5.7ZM856,189.6c.6-.5.9-1.1.9-1.8v-1.1c0,0,0-.1-.2-.1h-2.2c-.9,0-1.6.2-2.1.5-.5.3-.8.8-.8,1.4s.2,1,.6,1.3c.4.3.9.5,1.5.5s1.6-.2,2.2-.7Z"/>
    <path class="st2" d="M866.7,192.9c-1-.4-1.8-.9-2.3-1.6-.6-.7-.8-1.4-.8-2.3v-.3c0-.1,0-.2.1-.3,0,0,.2-.1.3-.1h3.3c0,0,.2,0,.3.1,0,0,.1.2.1.3h0c0,.5.2.8.7,1.2.5.3,1.1.5,1.8.5s1.2-.1,1.7-.4c.4-.3.6-.6.6-1s-.2-.6-.5-.8c-.4-.2-1-.4-1.8-.6-.9-.2-1.7-.5-2.2-.7-1.3-.4-2.3-1-3.1-1.6-.8-.6-1.1-1.6-1.1-2.8s.6-2.7,1.7-3.5c1.1-.9,2.7-1.3,4.6-1.3s2.4.2,3.4.6,1.7,1,2.2,1.7c.5.7.8,1.6.8,2.5s0,.2-.1.3-.2.1-.3.1h-3.2c-.1,0-.2,0-.3-.1s-.1-.2-.1-.3c0-.4-.2-.8-.7-1.1-.4-.3-1-.5-1.8-.5s-1.2.1-1.6.4c-.4.2-.6.6-.6,1s.2.7.6.9c.4.2,1.1.4,2.1.6.2,0,.5.1.8.2.3,0,.6.2.9.3,1.4.4,2.5,1,3.4,1.6.8.7,1.2,1.6,1.2,2.9s-.6,2.6-1.8,3.5c-1.2.8-2.7,1.2-4.7,1.2s-2.5-.2-3.5-.6Z"/>
    <path class="st2" d="M888.8,178.2c1,.5,1.8,1.1,2.4,1.8.6.8.9,1.6.9,2.6v10.2c0,.1,0,.2-.1.3,0,0-.2.1-.3.1h-3.5c-.1,0-.2,0-.3-.1,0,0-.1-.2-.1-.3v-1c0,0,0-.1,0-.1,0,0,0,0-.1,0-.8,1.1-2.2,1.7-4,1.7s-2.8-.4-3.8-1.1c-1-.8-1.4-1.9-1.4-3.4s.5-2.7,1.6-3.6c1.1-.9,2.6-1.3,4.6-1.3h3.1c.1,0,.2,0,.2-.1v-.7c0-.7-.2-1.2-.6-1.5-.4-.4-1-.6-1.8-.6s-1.1.1-1.5.3c-.4.2-.7.5-.8.9,0,.2-.2.3-.4.3l-3.6-.5c-.2,0-.4-.1-.3-.3,0-.8.4-1.6,1-2.3s1.4-1.2,2.3-1.6,2.1-.6,3.3-.6,2.5.2,3.5.7ZM886.9,189.6c.6-.5.9-1.1.9-1.8v-1.1c0,0,0-.1-.2-.1h-2.2c-.9,0-1.6.2-2.1.5s-.8.8-.8,1.4.2,1,.6,1.3c.4.3.9.5,1.5.5s1.6-.2,2.2-.7Z"/>
    <path class="st2" d="M903.6,192.3c-1.2-.8-2-1.9-2.5-3.3-.3-1-.5-2.2-.5-3.5s.2-2.5.5-3.5c.5-1.4,1.3-2.4,2.5-3.2,1.2-.8,2.6-1.2,4.2-1.2s3,.4,4.2,1.2c1.2.8,2,1.8,2.4,3,.2.5.2.8.2,1.1h0c0,.2,0,.3-.3.4l-3.5.5h0c-.2,0-.3,0-.4-.3v-.5c-.2-.5-.5-.9-1-1.3-.5-.3-1-.5-1.7-.5s-1.2.2-1.6.5c-.4.3-.8.8-.9,1.3-.2.6-.3,1.4-.3,2.5s0,1.9.3,2.5c.2.6.5,1.1.9,1.4.5.3,1,.5,1.6.5s1.2-.2,1.6-.5c.5-.3.8-.8,1-1.4,0,0,0,0,0-.2,0,0,0,0,0,0,0-.2.2-.3.4-.3l3.5.5c.2,0,.3.2.3.3s0,.5-.2.9c-.4,1.3-1.2,2.4-2.4,3.1-1.2.8-2.6,1.1-4.2,1.1s-3-.4-4.2-1.2Z"/>
    <path class="st2" d="M919.4,192.1c-1.2-.9-2-2.1-2.5-3.6-.3-.9-.4-2-.4-3.1s.1-2.2.4-3.2c.5-1.5,1.3-2.6,2.5-3.5,1.2-.8,2.6-1.3,4.3-1.3s3,.4,4.2,1.2,2,2,2.5,3.5c.3,1,.5,2.1.5,3.2s-.1,2.1-.4,3c-.4,1.6-1.3,2.8-2.4,3.7-1.2.9-2.6,1.3-4.3,1.3s-3.1-.4-4.3-1.3ZM925.4,189.2c.5-.4.8-.9,1-1.6.2-.6.2-1.3.2-2.1s0-1.5-.2-2.1c-.2-.7-.6-1.2-1-1.6s-1-.6-1.7-.6-1.2.2-1.7.6-.8.9-1,1.6c-.2.5-.2,1.2-.2,2.1s0,1.6.2,2.1c.2.7.5,1.2,1,1.6.5.4,1,.6,1.7.6s1.2-.2,1.7-.6Z"/>
    <path class="st2" d="M945.5,179c1,1,1.5,2.3,1.5,4v9.8c0,.1,0,.2-.1.3s-.2.1-.3.1h-3.5c0,0-.2,0-.3-.1,0,0-.1-.2-.1-.3v-9c0-.8-.2-1.5-.7-2-.5-.5-1-.8-1.8-.8s-1.3.3-1.8.8c-.5.5-.7,1.2-.7,2v9c0,.1,0,.2-.1.3,0,0-.2.1-.3.1h-3.5c-.1,0-.2,0-.3-.1,0,0-.1-.2-.1-.3v-14.7c0-.1,0-.2.1-.3s.2-.1.3-.1h3.5c0,0,.2,0,.3.1,0,0,.1.2.1.3v1c0,0,0,0,0,.1,0,0,0,0,0,0,.8-1.2,2-1.7,3.7-1.7s2.9.5,3.9,1.5Z"/>
    <path class="st2" d="M969.8,186.5c0,.2-.2.4-.4.4h-9.3c-.1,0-.2,0-.1.1,0,.4.2.8.3,1.2.5,1.1,1.6,1.7,3.2,1.7,1.3,0,2.3-.5,3-1.6,0-.1.2-.2.3-.2s.1,0,.2.1l2.2,2.1c.1,0,.2.2.2.3s0,.1-.1.2c-.7.8-1.5,1.5-2.5,1.9-1,.4-2.2.7-3.4.7s-3.2-.4-4.4-1.2c-1.2-.8-2-1.9-2.6-3.3-.4-1-.6-2.3-.6-3.9s.2-2.1.5-2.9c.5-1.4,1.3-2.5,2.4-3.4,1.1-.8,2.5-1.3,4.1-1.3s3.6.6,4.8,1.7c1.2,1.2,1.9,2.7,2.2,4.7.1.8.2,1.6.1,2.5ZM960.2,183c0,.3-.1.6-.2,1,0,.1,0,.1.2.1h5.2c.1,0,.2,0,.1-.1,0-.6-.1-.9-.1-.8-.2-.6-.5-1.1-.9-1.4s-1-.5-1.7-.5c-1.3,0-2.1.6-2.5,1.8Z"/>
    <path class="st2" d="M972.5,193.1c0,0-.1-.2-.1-.3v-20.3c0-.1,0-.2.1-.3,0,0,.2-.1.3-.1h3.5c0,0,.2,0,.3.1s.1.2.1.3v20.3c0,.1,0,.2-.1.3,0,0-.2.1-.3.1h-3.5c-.1,0-.2,0-.3-.1Z"/>
    <path class="st2" d="M979.8,193.1c0,0-.1-.2-.1-.3v-20.3c0-.1,0-.2.1-.3s.2-.1.3-.1h3.5c0,0,.2,0,.3.1,0,0,.1.2.1.3v20.3c0,.1,0,.2-.1.3s-.2.1-.3.1h-3.5c0,0-.2,0-.3-.1Z"/>
    <path class="st2" d="M996.7,178.2c1,.5,1.8,1.1,2.4,1.8.6.8.9,1.6.9,2.6v10.2c0,.1,0,.2-.1.3s-.2.1-.3.1h-3.5c-.1,0-.2,0-.3-.1,0,0-.1-.2-.1-.3v-1c0,0,0-.1,0-.1s0,0-.1,0c-.8,1.1-2.2,1.7-4,1.7s-2.8-.4-3.8-1.1c-1-.8-1.4-1.9-1.4-3.4s.5-2.7,1.6-3.6c1.1-.9,2.6-1.3,4.6-1.3h3.1c0,0,.2,0,.2-.1v-.7c0-.7-.2-1.2-.6-1.5s-1-.6-1.8-.6-1.1.1-1.5.3c-.4.2-.7.5-.8.9,0,.2-.2.3-.4.3l-3.6-.5c-.2,0-.3-.1-.3-.3,0-.8.4-1.6,1-2.3.6-.7,1.4-1.2,2.3-1.6,1-.4,2.1-.6,3.3-.6s2.5.2,3.5.7ZM994.8,189.6c.6-.5.9-1.1.9-1.8v-1.1c0,0,0-.1-.2-.1h-2.2c-.9,0-1.6.2-2.1.5-.5.3-.8.8-.8,1.4s.2,1,.6,1.3c.4.3.9.5,1.5.5s1.6-.2,2.2-.7Z"/>
    <path class="st2" d="M834.7,208.3c0,0,.2-.1.3-.1h3.5c0,0,.2,0,.3.1s.1.2.1.3v20.3c0,.1,0,.2-.1.3,0,0-.2.1-.3.1h-3.5c-.1,0-.2,0-.3-.1,0,0-.1-.2-.1-.3v-1c0,0,0,0,0-.1,0,0,0,0-.1,0-.8,1.1-2,1.7-3.5,1.7s-2.6-.4-3.6-1.2c-1-.8-1.7-1.8-2.2-3.2-.3-1-.5-2.2-.5-3.6s.2-2.7.5-3.7c.5-1.3,1.2-2.3,2.2-3s2.2-1.1,3.7-1.1,2.6.5,3.4,1.5c0,0,0,0,.1,0,0,0,0,0,0-.1v-6.4c0-.1,0-.2.1-.3ZM834.6,221.5c0-1.3-.2-2.4-.7-3.2-.5-.8-1.1-1.2-2-1.2s-1.7.4-2.1,1.2c-.5.8-.8,1.8-.8,3.2s.2,2.2.6,3c.5.9,1.2,1.3,2.2,1.3s1.6-.4,2.1-1.3c.4-.7.6-1.8.6-3Z"/>
    <path class="st2" d="M855.8,222.5c0,.2-.2.4-.4.4h-9.3c-.1,0-.2,0-.1.1,0,.4.2.8.3,1.2.5,1.1,1.6,1.7,3.2,1.7,1.3,0,2.3-.5,3-1.6,0-.1.2-.2.3-.2s.1,0,.2.1l2.2,2.1c.1,0,.2.2.2.3s0,.1-.1.2c-.7.8-1.5,1.5-2.5,1.9-1,.4-2.2.7-3.4.7s-3.2-.4-4.4-1.2c-1.2-.8-2-1.9-2.6-3.3-.4-1-.6-2.3-.6-3.9s.2-2.1.5-2.9c.5-1.4,1.3-2.5,2.4-3.4,1.1-.8,2.5-1.3,4.1-1.3s3.6.6,4.8,1.7c1.2,1.2,1.9,2.7,2.2,4.7.1.8.2,1.6.1,2.5ZM846.2,219c0,.3-.1.6-.2,1,0,.1,0,.1.2.1h5.2c.1,0,.2,0,.1-.1,0-.6-.1-.9-.1-.8-.2-.6-.5-1.1-.9-1.4s-1-.5-1.7-.5c-1.3,0-2.1.6-2.5,1.8Z"/>
    <path class="st2" d="M860.8,228.9c-1-.4-1.8-.9-2.3-1.6-.5-.7-.8-1.4-.8-2.3v-.3c0-.1,0-.2.1-.3s.2-.1.3-.1h3.3c0,0,.2,0,.3.1,0,0,.1.2.1.3h0c0,.5.2.8.7,1.2.5.3,1.1.5,1.8.5s1.2-.1,1.6-.4c.4-.3.6-.6.6-1s-.2-.6-.5-.8c-.4-.2-1-.4-1.8-.6-.9-.2-1.7-.5-2.2-.7-1.3-.4-2.3-1-3.1-1.6-.8-.6-1.1-1.6-1.1-2.8s.6-2.7,1.7-3.5,2.7-1.3,4.6-1.3,2.4.2,3.4.6,1.7,1,2.2,1.7c.5.7.8,1.6.8,2.5s0,.2-.1.3c0,0-.2.1-.3.1h-3.2c-.1,0-.2,0-.3-.1,0,0-.1-.2-.1-.3,0-.4-.2-.8-.7-1.1s-1-.5-1.8-.5-1.2.1-1.6.4c-.4.2-.6.6-.6,1s.2.7.6.9c.4.2,1.1.4,2.1.6.2,0,.5.1.8.2s.6.2.9.3c1.4.4,2.5,1,3.4,1.6s1.2,1.6,1.2,2.9-.6,2.6-1.8,3.5c-1.2.8-2.7,1.2-4.7,1.2s-2.5-.2-3.5-.6Z"/>
    <path class="st2" d="M887.6,221.5c0,1.4-.2,2.6-.6,3.8-.5,1.3-1.2,2.3-2.2,3s-2.2,1.1-3.7,1.1-2.6-.5-3.4-1.5c0,0,0,0-.1,0,0,0,0,0,0,.1v6.4c0,.1,0,.2-.1.3s-.2.1-.3.1h-3.5c-.1,0-.2,0-.3-.1,0,0-.1-.2-.1-.3v-20.3c0-.1,0-.2.1-.3s.2-.1.3-.1h3.5c0,0,.2,0,.3.1,0,0,.1.2.1.3v1c0,0,0,0,0,.1s0,0,.1,0c.8-1.1,2-1.7,3.5-1.7s2.6.4,3.6,1.2c1,.8,1.7,1.8,2.2,3.2.4,1,.5,2.2.5,3.6ZM883.2,221.5c0-1.3-.2-2.3-.6-3-.5-.9-1.2-1.3-2.2-1.3s-1.6.4-2.1,1.3c-.4.7-.6,1.7-.6,3s.2,2.4.7,3.1c.5.8,1.1,1.2,2,1.2s1.6-.4,2.1-1.2c.5-.8.8-1.8.8-3.2Z"/>
    <path class="st2" d="M899.4,213.9c0,0,.2-.1.3-.1h3.5c0,0,.2,0,.3.1,0,0,.1.2.1.3v14.7c0,.1,0,.2-.1.3s-.2.1-.3.1h-3.5c0,0-.2,0-.3-.1,0,0-.1-.2-.1-.3v-1c0,0,0,0,0-.1,0,0,0,0-.1,0-.8,1.1-2,1.6-3.7,1.6s-2.8-.5-3.8-1.4c-1-.9-1.5-2.2-1.5-3.9v-10c0-.1,0-.2.1-.3,0,0,.2-.1.3-.1h3.5c0,0,.2,0,.3.1,0,0,.1.2.1.3v9c0,.8.2,1.5.6,2,.4.5,1,.8,1.8.8s1.2-.2,1.7-.6.7-.9.8-1.6v-9.4c0-.1,0-.2.1-.3Z"/>
    <path class="st2" d="M920.4,222.5c0,.2-.2.4-.4.4h-9.3c-.1,0-.2,0-.1.1,0,.4.2.8.3,1.2.5,1.1,1.6,1.7,3.2,1.7,1.3,0,2.3-.5,3-1.6,0-.1.2-.2.3-.2s.1,0,.2.1l2.2,2.1c.1,0,.2.2.2.3s0,.1-.1.2c-.7.8-1.5,1.5-2.5,1.9-1,.4-2.2.7-3.4.7s-3.2-.4-4.4-1.2c-1.2-.8-2-1.9-2.6-3.3-.4-1-.6-2.3-.6-3.9s.2-2.1.5-2.9c.5-1.4,1.3-2.5,2.4-3.4,1.1-.8,2.5-1.3,4.1-1.3s3.6.6,4.8,1.7c1.2,1.2,1.9,2.7,2.2,4.7.1.8.2,1.6.1,2.5ZM910.8,219c0,.3-.1.6-.2,1,0,.1,0,.1.2.1h5.2c.1,0,.2,0,.1-.1,0-.6-.1-.9-.1-.8-.2-.6-.5-1.1-.9-1.4s-1-.5-1.7-.5c-1.3,0-2.1.6-2.5,1.8ZM911.3,211.8c0,0,0-.2,0-.3l1.6-3c0-.2.2-.3.4-.3h3c.1,0,.2,0,.3.1s0,.2,0,.3l-2.1,3c-.1.2-.2.2-.4.2h-2.5c-.1,0-.2,0-.3-.1Z"/>
    <path class="st2" d="M925.4,228.9c-1-.4-1.8-.9-2.3-1.6-.5-.7-.8-1.4-.8-2.3v-.3c0-.1,0-.2.1-.3s.2-.1.3-.1h3.3c0,0,.2,0,.3.1,0,0,.1.2.1.3h0c0,.5.2.8.7,1.2.5.3,1.1.5,1.8.5s1.2-.1,1.6-.4c.4-.3.6-.6.6-1s-.2-.6-.5-.8c-.4-.2-1-.4-1.8-.6-.9-.2-1.7-.5-2.2-.7-1.3-.4-2.3-1-3.1-1.6-.8-.6-1.1-1.6-1.1-2.8s.6-2.7,1.7-3.5,2.7-1.3,4.6-1.3,2.4.2,3.4.6,1.7,1,2.2,1.7c.5.7.8,1.6.8,2.5s0,.2-.1.3c0,0-.2.1-.3.1h-3.2c-.1,0-.2,0-.3-.1,0,0-.1-.2-.1-.3,0-.4-.2-.8-.7-1.1s-1-.5-1.8-.5-1.2.1-1.6.4c-.4.2-.6.6-.6,1s.2.7.6.9c.4.2,1.1.4,2.1.6.2,0,.5.1.8.2s.6.2.9.3c1.4.4,2.5,1,3.4,1.6s1.2,1.6,1.2,2.9-.6,2.6-1.8,3.5c-1.2.8-2.7,1.2-4.7,1.2s-2.5-.2-3.5-.6Z"/>
    <path class="st2" d="M941.5,222.5c0,0-.1-.2-.1-.3v-1c0-1,.3-1.8.8-2.4.5-.6,1.2-1.3,2.2-1.9.8-.5,1.4-1,1.7-1.4.4-.4.6-.9.6-1.5s-.2-1.2-.7-1.5c-.5-.4-1.1-.6-1.9-.6s-1.5.2-2,.6-.8,1-.8,1.6v.5c0,.2-.1.3-.4.3h-3.5c-.1-.1-.2-.2-.3-.3s-.1-.2-.1-.3v-.3c0-1.2.3-2.3.9-3.2.6-.9,1.4-1.7,2.5-2.2,1.1-.5,2.3-.8,3.7-.8s2.6.2,3.6.7c1,.5,1.8,1.2,2.4,2.1.6.9.8,1.9.8,3.1s-.2,1.6-.5,2.3c-.3.6-.7,1.1-1.1,1.5-.4.4-1,.8-1.7,1.3-.7.5-1.3.9-1.6,1.3-.3.4-.5.8-.5,1.3v.7c0,0,0,.2-.1.3,0,0-.2.1-.3.1h-3.5c-.1,0-.2,0-.3-.1ZM941.6,228.6c-.5-.5-.7-1-.7-1.7s.2-1.2.7-1.7,1-.7,1.7-.7,1.3.2,1.7.6c.4.4.6,1,.6,1.7s-.2,1.2-.7,1.7c-.4.5-1,.7-1.7.7s-1.2-.2-1.7-.7Z"/>
  </g>
</svg>