<?xml version="1.0" encoding="UTF-8"?>
<svg id="Capa_2" data-name="Capa 2" xmlns="http://www.w3.org/2000/svg" xmlns:xlink="http://www.w3.org/1999/xlink" viewBox="0 0 201.38 63.26">
  <defs>
    <style>
      .cls-1 {
        fill: url(#linear-gradient);
      }

      .cls-2 {
        fill: #12100b;
      }
    </style>
    <linearGradient id="linear-gradient" x1="0" y1="31.63" x2="44.89" y2="31.63" gradientUnits="userSpaceOnUse">
      <stop offset=".1" stop-color="#7f69ab"/>
      <stop offset=".19" stop-color="#7383bd"/>
      <stop offset=".45" stop-color="#57c3ec"/>
      <stop offset=".5" stop-color="#5dc4e4"/>
      <stop offset=".59" stop-color="#6dc7cf"/>
      <stop offset=".69" stop-color="#89ccac"/>
      <stop offset=".81" stop-color="#afd37d"/>
      <stop offset=".88" stop-color="#cad85c"/>
    </linearGradient>
  </defs>
  <g id="Capa_13" data-name="Capa 13">
    <g>
      <path class="cls-1" d="M41.21,28.45L22.46,0l-10.64,16.15-.04-.03c-.41.6-.81,1.23-1.19,1.89l-6.88,10.44C1.08,32.44-.2,37.13.02,41.86h0c0,.12.02.25.04.39.03.53.08,1.06.15,1.59.73,5.38,3.39,10.32,7.48,13.89,4.09,3.57,9.33,5.53,14.76,5.53h.01l2.94-.19h0c1.94-.25,3.83-.76,5.65-1.51,2.74-1.13,5.19-2.77,7.29-4.87,3.63-3.65,5.92-8.49,6.44-13.61.52-5.12-.75-10.32-3.57-14.63ZM1.87,42c-.02-.36-.03-.72-.04-1.09.18.26.35.48.51.65.85.9,1.97,1.42,3.07,1.42.13,0,.26,0,.39-.02.84-.1,2.43-.66,3.05-2.19.6-1.46.09-3.21-1.52-5.21-2.87-3.57-1.15-7.41-.94-7.85l2.01-3.05c-.34,3.67.79,7.75,4.75,11.86,2.47,2.57,3.26,6.12,2.01,9.06-1.03,2.42-3.24,3.8-6.06,3.8-6.01,0-7.07-6.02-7.24-7.38ZM3.89,31.82c.14,1.52.67,3.22,2.01,4.88,1.13,1.4,1.57,2.59,1.26,3.36-.29.7-1.18,1.02-1.57,1.06-.64.08-1.36-.24-1.92-.83-.61-.65-1.54-2.22-.98-5.41.31-1.05.71-2.08,1.19-3.07ZM3.72,49.42c1.34,1.07,3.1,1.79,5.38,1.79,3.54,0,6.43-1.84,7.74-4.92,1.54-3.61.6-7.95-2.38-11.04-5.78-6-4.73-11.93-2.3-16.32l3.67-5.58c-.73,2.16-1.27,4.56-1.43,7.15-.37,5.97,2.55,10.16,5.37,14.2,1.35,1.93,2.73,3.92,3.72,6.07.01.03.03.06.04.09.12.27.24.54.34.81.51,1.34.77,2.75.77,4.21,0,6.51-5.3,11.81-11.81,11.81-.89,0-1.78-.1-2.64-.3-.45-.33-.89-.68-1.32-1.05-2.21-1.93-3.97-4.3-5.17-6.92ZM23.28,61.41l-.83.02c-3.03,0-6-.67-8.7-1.93,7.11-.46,12.75-6.39,12.75-13.61,0-1.66-.29-3.26-.87-4.79h0s-.03-.07-.04-.1c-.11-.28-.23-.56-.36-.84-.02-.05-.04-.1-.07-.14-.02-.04-.03-.07-.05-.11h0c-1.05-2.25-2.46-4.28-3.83-6.24-2.76-3.96-5.37-7.71-5.04-13.04.51-8.26,5.35-14.76,6.75-16.49l3.18,4.83c-2.67,2.24-4.23,5.24-4.64,8.95-.72,6.5,2.64,10.39,6.2,14.51,2.87,3.33,5.84,6.77,6.98,11.95,2.2,10-5.44,15.21-7.86,16.58-1.17.25-2.36.41-3.57.45ZM37.04,55.39c-1.4,1.4-2.98,2.58-4.7,3.52,2.88-3.05,5.68-7.98,4.16-14.92-1.24-5.64-4.5-9.42-7.38-12.76-3.43-3.97-6.39-7.4-5.76-13.11.35-3.15,1.64-5.7,3.84-7.61l3.25,4.93c-1.44,1.61-3.02,4.76-1.22,8.23,1.07,2.05,2.66,4.01,4.35,6.08,4.29,5.27,9.15,11.25,6.95,20.95-.93,1.71-2.1,3.29-3.49,4.69ZM42.96,42.89c-.04.38-.09.75-.15,1.13-.67-6.64-4.54-11.4-7.81-15.42-1.63-2-3.16-3.89-4.14-5.77-1.32-2.54-.2-4.68.65-5.78l8.18,12.41c2.59,3.96,3.76,8.73,3.28,13.44Z"/>
      <g>
        <path class="cls-2" d="M58.32,50.67c-1.7-.74-3.03-1.79-4-3.16-.97-1.36-1.45-2.95-1.45-4.77h5.54c.12,1.36.66,2.48,1.61,3.36.95.88,2.29,1.32,4.02,1.32s3.18-.43,4.18-1.29c1-.86,1.5-1.97,1.5-3.34,0-1.06-.31-1.92-.93-2.59-.62-.67-1.39-1.18-2.32-1.54-.92-.36-2.2-.76-3.84-1.18-2.06-.54-3.73-1.1-5.02-1.66-1.29-.56-2.38-1.43-3.29-2.61-.91-1.18-1.36-2.75-1.36-4.72,0-1.82.45-3.41,1.36-4.77.91-1.36,2.18-2.41,3.81-3.13,1.63-.73,3.53-1.09,5.68-1.09,3.06,0,5.56.76,7.51,2.29,1.95,1.53,3.03,3.63,3.25,6.29h-5.72c-.09-1.15-.64-2.13-1.63-2.95-1-.82-2.32-1.23-3.95-1.23-1.48,0-2.69.38-3.63,1.13-.94.76-1.41,1.85-1.41,3.27,0,.97.3,1.76.89,2.38.59.62,1.34,1.11,2.25,1.48s2.15.76,3.72,1.18c2.09.58,3.79,1.15,5.11,1.73,1.32.58,2.44,1.46,3.36,2.66.92,1.2,1.38,2.79,1.38,4.79,0,1.6-.43,3.12-1.29,4.54-.86,1.42-2.12,2.57-3.77,3.43-1.65.86-3.59,1.29-5.83,1.29-2.12,0-4.03-.37-5.72-1.11Z"/>
        <path class="cls-2" d="M103.72,26.45v25.02h-5.18v-2.95c-.82,1.03-1.88,1.84-3.2,2.43-1.32.59-2.72.89-4.2.89-1.97,0-3.73-.41-5.29-1.23-1.56-.82-2.79-2.03-3.68-3.63-.89-1.6-1.34-3.54-1.34-5.81v-14.71h5.13v13.94c0,2.24.56,3.96,1.68,5.15,1.12,1.2,2.65,1.79,4.59,1.79s3.47-.6,4.61-1.79c1.14-1.2,1.7-2.91,1.7-5.15v-13.94h5.18Z"/>
        <path class="cls-2" d="M118.73,27.11c1.26-.71,2.75-1.07,4.47-1.07v5.36h-1.32c-2.03,0-3.56.51-4.61,1.54-1.04,1.03-1.57,2.81-1.57,5.36v13.17h-5.18v-25.02h5.18v3.63c.76-1.27,1.76-2.26,3.02-2.97Z"/>
        <path class="cls-2" d="M127.81,32.17c1.04-1.94,2.47-3.44,4.27-4.52,1.8-1.07,3.79-1.61,5.97-1.61,1.97,0,3.68.39,5.15,1.16,1.47.77,2.64,1.73,3.52,2.88v-3.63h5.22v25.02h-5.22v-3.72c-.88,1.18-2.07,2.16-3.59,2.95-1.51.79-3.24,1.18-5.18,1.18-2.15,0-4.12-.55-5.9-1.66-1.79-1.1-3.2-2.65-4.25-4.63-1.04-1.98-1.57-4.23-1.57-6.74s.52-4.74,1.57-6.67ZM145.65,34.44c-.71-1.27-1.64-2.24-2.79-2.91-1.15-.67-2.39-1-3.72-1s-2.57.33-3.72.98c-1.15.65-2.08,1.6-2.79,2.86-.71,1.26-1.07,2.75-1.07,4.47s.36,3.24,1.07,4.54c.71,1.3,1.65,2.29,2.82,2.97,1.16.68,2.4,1.02,3.7,1.02s2.57-.33,3.72-1c1.15-.67,2.08-1.64,2.79-2.93.71-1.29,1.07-2.79,1.07-4.52s-.36-3.22-1.07-4.5Z"/>
        <path class="cls-2" d="M163.92,17.87v33.6h-5.18V17.87h5.18Z"/>
        <path class="cls-2" d="M171.01,22.18c-.64-.64-.95-1.42-.95-2.36s.32-1.73.95-2.36c.64-.64,1.42-.95,2.36-.95s1.68.32,2.32.95.95,1.42.95,2.36-.32,1.73-.95,2.36c-.64.64-1.41.95-2.32.95s-1.73-.32-2.36-.95ZM175.91,26.45v25.02h-5.18v-25.02h5.18Z"/>
        <path class="cls-2" d="M186.51,50.81c-1.56-.71-2.79-1.68-3.7-2.91-.91-1.23-1.39-2.59-1.45-4.11h5.36c.09,1.06.6,1.95,1.52,2.66.92.71,2.08,1.07,3.47,1.07s2.58-.28,3.38-.84c.8-.56,1.2-1.28,1.2-2.16,0-.94-.45-1.63-1.34-2.09-.89-.45-2.31-.95-4.25-1.5-1.88-.51-3.41-1.01-4.59-1.5-1.18-.48-2.2-1.23-3.06-2.22-.86-1-1.29-2.32-1.29-3.95,0-1.33.39-2.55,1.18-3.66.79-1.1,1.91-1.97,3.38-2.61,1.47-.64,3.16-.95,5.06-.95,2.84,0,5.14.72,6.88,2.16,1.74,1.44,2.67,3.4,2.79,5.88h-5.18c-.09-1.12-.54-2.01-1.36-2.68-.82-.67-1.92-1-3.31-1s-2.41.26-3.13.77c-.73.51-1.09,1.2-1.09,2.04,0,.67.24,1.23.73,1.68.48.45,1.07.81,1.77,1.07.7.26,1.73.58,3.09.98,1.82.48,3.31.98,4.47,1.48,1.16.5,2.17,1.23,3.02,2.2.85.97,1.29,2.26,1.32,3.86,0,1.42-.39,2.69-1.18,3.81-.79,1.12-1.9,2-3.34,2.63-1.44.64-3.13.95-5.06.95s-3.73-.36-5.29-1.07Z"/>
      </g>
    </g>
  </g>
</svg>