<?xml version="1.0" encoding="UTF-8"?>
<svg id="Capa_2" data-name="Capa 2" xmlns="http://www.w3.org/2000/svg" viewBox="0 0 173.97 94">
  <defs>
    <style>
      .cls-1 {
        fill: #53b373;
      }

      .cls-2 {
        fill: #9d80b8;
      }

      .cls-3 {
        fill: #1d1d1b;
      }

      .cls-4 {
        fill: #ef8a26;
      }

      .cls-5 {
        fill: #9f5099;
      }

      .cls-6 {
        fill: #fcd371;
      }

      .cls-7 {
        fill: #3c64ac;
      }

      .cls-8 {
        fill: #db1d80;
      }

      .cls-9 {
        fill: #1d8dcd;
      }

      .cls-10 {
        fill: #e44a93;
      }

      .cls-11 {
        fill: #c389bb;
      }
    </style>
  </defs>
  <g id="Capa_13" data-name="Capa 13">
    <g>
      <g>
        <g>
          <g>
            <path class="cls-9" d="M12.92,3.77c-2.21.76-3.58,2.06-5.44,3.46-1.79,1.35-3.59,2.79-4.78,4.7-.87,1.39-1.37,2.98-1.71,4.58-.98,4.67-.49,9.77,2.03,13.82,2.52,4.05,7.24,6.84,11.99,6.4.23-.02.47-.05.66-.2.28-.21.34-.59.39-.93.63-4.93.88-9.92.73-14.89-.01-.47-.08-1.02-.48-1.25-.22-.13-.48-.13-.73-.12-2.26.04-4.52.31-6.73.8-.26.06-.53.13-.72.3-.25.23-.32.6-.37.94-.14,1.13-.13,2.27.03,3.4,1.35-.06,2.69-.2,4.03-.41.47,2.23.5,4.55.09,6.79-.09.47-.23.99-.63,1.24-.39.23-.89.14-1.31,0-2.86-1.01-4.5-4.13-4.85-7.15-.4-3.4.48-6.89,2.2-9.85s4.25-5.4,7.1-7.29c.46-.3.98-.67,1.04-1.22.03-.3-.09-.59-.2-.86-.44-1.06-1.17-2.32-2.32-2.25"/>
            <path class="cls-3" d="M12.79,3.27c-1.21.42-2.31,1.05-3.35,1.81-1.05.77-2.08,1.59-3.11,2.39s-2.01,1.63-2.86,2.6c-.91,1.03-1.62,2.19-2.14,3.47C.36,15.94-.03,18.66,0,21.25s.55,5.2,1.62,7.58c1.95,4.31,6.04,7.71,10.8,8.36.6.08,1.2.12,1.8.11s1.34.01,1.82-.39c.52-.44.53-1.2.6-1.82.09-.75.18-1.51.25-2.27.29-2.99.45-6,.46-9,0-.76,0-1.52-.02-2.28-.01-.64.04-1.35-.23-1.94s-.88-.8-1.52-.79c-.74,0-1.49.05-2.23.11-1.49.12-2.98.35-4.44.66-.69.15-1.28.39-1.54,1.11-.22.62-.22,1.38-.23,2.04-.01.73.04,1.46.14,2.19.03.22.3.39.51.38,1.4-.07,2.78-.21,4.16-.42l-.64-.37c.35,1.68.44,3.4.28,5.11-.04.42-.09.84-.16,1.25-.05.31-.09.66-.27.92-.33.48-1.14.08-1.54-.12-2.31-1.13-3.54-3.67-3.93-6.1-.49-3.01.19-6.21,1.54-8.92s3.37-5,5.73-6.87c.57-.45,1.16-.86,1.76-1.27s1.23-.9,1.27-1.7c.02-.42-.16-.81-.32-1.18-.13-.29-.27-.58-.43-.86-.32-.53-.75-1.07-1.33-1.34-.31-.14-.64-.22-.98-.21-.67.03-.68,1.07,0,1.05.53-.02.94.34,1.24.78.19.28.35.57.49.87.12.25.31.58.28.86-.02.26-.27.47-.47.61-.3.23-.62.42-.93.63-.64.45-1.27.93-1.87,1.43-2.38,2-4.42,4.49-5.69,7.34-1.3,2.93-1.87,6.26-1.23,9.43.52,2.58,1.99,5.25,4.47,6.38.7.32,1.55.62,2.29.22s.87-1.24.98-1.97c.28-1.79.3-3.59.06-5.38-.06-.43-.13-.86-.22-1.29-.06-.3-.38-.41-.64-.37-1.29.2-2.58.33-3.89.39l.51.38c-.09-.68-.12-1.37-.1-2.06,0-.32.03-.63.06-.95.02-.23.03-.55.18-.74.12-.17.37-.2.56-.24.35-.08.69-.15,1.04-.22.67-.13,1.34-.24,2.01-.32s1.34-.15,2.02-.19c.34-.02.67-.04,1.01-.05.27,0,.64-.08.91.02.36.13.29.83.29,1.14.02.69.03,1.38.03,2.07.01,2.83-.1,5.67-.34,8.49-.12,1.35-.21,2.73-.44,4.07-.03.15-.05.38-.18.48-.17.13-.53.1-.73.11-.53.03-1.06.02-1.58-.03-4.32-.39-8.15-3.35-10.12-7.13C.72,24.88.55,19.71,1.86,15.21c.35-1.2.84-2.36,1.55-3.39s1.54-1.84,2.44-2.62,1.91-1.51,2.87-2.26c.9-.7,1.79-1.41,2.79-1.96.5-.28,1.02-.51,1.56-.7.27-.09.44-.36.37-.64-.07-.26-.38-.46-.64-.37h0Z"/>
          </g>
          <g>
            <path class="cls-9" d="M51.54,33.09c-1.58-8.04-2.95-16.13-4.1-24.24-.22-1.56-.56-3.33-1.9-4.15-1.06-.65-2.41-.49-3.63-.27-.65.12-1.32.26-1.86.64-.66.46-1.04,1.24-1.2,2.03s-.02,1.5-.06,2.4c-.43,8.02-1.62,16.15-3.03,24.05-.08.46-.13,1.03.24,1.32.18.14.42.18.65.21,1.41.18,2.82.32,4.24.42.08-2.69.16-5.37.23-8.06.02-.64.1-1.39.66-1.7.2-.11.44-.15.67-.18.89-.11,1.79-.15,2.68-.1.17,0,.36.02.5.12.16.11.24.29.31.47,1.1,2.79,1,5.89,1.63,8.82.04.19.09.39.23.53.17.16.43.18.67.19,1.14.04,2.28.01,3.41-.08-.04-.81-.2-1.61-.36-2.41ZM46.33,11.89c-.33.54-1,1.01-1.85,1.26-.86.25-1.9.25-2.75,0-.84-.26-1.46-.76-1.68-1.32-.22-.56-.06-1.16.38-1.68,1.1-.88,1.88-.98,2.32-1.04,1.29-.18,2.33.16,3.09.72.76.56.91,1.38.5,2.06Z"/>
            <g>
              <path class="cls-3" d="M52.05,32.95c-.98-4.95-1.87-9.92-2.68-14.91-.41-2.49-.79-4.99-1.15-7.49-.16-1.09-.27-2.19-.52-3.26-.21-.89-.55-1.78-1.18-2.47-.73-.79-1.77-1.11-2.82-1.12-.56,0-1.12.07-1.67.17-.51.09-1.03.18-1.51.36-1.04.4-1.73,1.23-2.06,2.28s-.15,2.19-.21,3.28c-.28,4.96-.84,9.91-1.56,14.83-.36,2.46-.76,4.92-1.19,7.38-.1.58-.23,1.17-.3,1.76-.06.49,0,1.03.35,1.4.41.43,1.07.43,1.61.5.62.08,1.24.14,1.86.2s1.24.11,1.87.15c.29.02.52-.26.52-.52.06-1.99.11-3.98.17-5.97.01-.49.03-.98.04-1.47.01-.38,0-.77.05-1.14.04-.25.1-.57.33-.72.31-.2.85-.18,1.2-.2.48-.04.96-.05,1.45-.04.17,0,.47-.04.63.03.11.05.13.16.18.28.32.82.53,1.68.69,2.54.33,1.77.44,3.58.75,5.35.08.45.12.98.36,1.38.29.47.81.55,1.32.57,1.1.03,2.21,0,3.31-.08.27-.02.54-.22.52-.52-.05-.86-.21-1.71-.37-2.55-.05-.28-.39-.44-.64-.37-.29.08-.42.37-.37.64.15.75.3,1.5.34,2.27l.52-.52c-1.01.08-2.03.11-3.05.08-.17,0-.46.04-.62-.04-.1-.05-.11-.16-.13-.27-.1-.44-.18-.89-.25-1.34-.28-1.84-.4-3.71-.8-5.53-.1-.46-.22-.91-.37-1.36-.13-.41-.26-.91-.57-1.23-.35-.37-.87-.37-1.34-.38-.5-.01-1,0-1.5.04-.89.06-1.94.1-2.38,1.02-.37.78-.29,1.73-.32,2.57-.07,2.32-.13,4.64-.2,6.96l.52-.52c-1.21-.09-2.42-.2-3.62-.34-.28-.03-.94.01-1.02-.32-.1-.4.07-.92.15-1.32.41-2.33.8-4.67,1.15-7.01.71-4.73,1.3-9.47,1.63-14.24.08-1.15.16-2.29.13-3.44-.02-.89.1-1.84.73-2.52s1.72-.82,2.62-.95,1.95-.16,2.74.4c.65.46.99,1.23,1.19,1.98.27.95.37,1.94.51,2.91.34,2.38.7,4.76,1.08,7.13.76,4.76,1.6,9.52,2.52,14.25.11.58.22,1.15.34,1.73.05.28.39.44.64.37.29-.08.42-.37.37-.64Z"/>
              <path class="cls-3" d="M45.88,11.62c-.52.83-1.67,1.15-2.6,1.18-.92.03-2.21-.17-2.7-1.08-.19-.36-.1-.87.2-1.19.17-.19.44-.33.66-.45.19-.11.38-.2.56-.27.77-.28,1.62-.32,2.42-.1s2.02.92,1.45,1.91c-.34.59.57,1.12.91.53s.39-1.31.07-1.94c-.29-.57-.86-.98-1.43-1.24-1.08-.5-2.35-.57-3.49-.24-.59.17-1.13.47-1.62.84-.59.44-.96,1.19-.88,1.94.17,1.51,1.83,2.2,3.15,2.32,1.51.14,3.34-.33,4.19-1.68.36-.57-.55-1.1-.91-.53Z"/>
            </g>
          </g>
          <g>
            <path class="cls-7" d="M49.21,20.28c.72,4.28,1.49,8.55,2.33,12.81.16.8.32,1.6.36,2.41-1.13.09-2.27.11-3.41.08-.24,0-.5-.03-.67-.19-.14-.13-.19-.34-.23-.53-.63-2.93-.54-6.03-1.63-8.82-.07-.18-.15-.37-.31-.47-.15-.1-.33-.11-.5-.12-.9-.04-1.79,0-2.68.1-.23.03-.46.06-.67.18-.55.32-.64,1.07-.66,1.7-.08,2.69-.16,5.37-.23,8.06-1.42-.1-2.83-.24-4.24-.42-.23-.03-.47-.07-.65-.21-.37-.29-.32-.85-.24-1.32,1.04-5.84,1.96-11.8,2.55-17.74"/>
            <path class="cls-3" d="M48.7,20.42c.66,3.94,1.37,7.87,2.13,11.79.21,1.09.48,2.18.54,3.29l.52-.52c-1.01.08-2.03.11-3.05.08-.17,0-.46.04-.62-.04-.1-.05-.11-.16-.13-.27-.1-.44-.18-.89-.25-1.34-.28-1.84-.4-3.71-.8-5.53-.1-.46-.22-.91-.37-1.36-.13-.41-.26-.91-.57-1.23-.35-.37-.87-.37-1.34-.38-.5-.01-1,0-1.5.04-.89.06-1.94.1-2.38,1.02-.37.78-.29,1.73-.32,2.57-.07,2.32-.13,4.64-.2,6.96l.52-.52c-.83-.06-1.66-.13-2.49-.22-.38-.04-.76-.08-1.14-.13-.17-.02-.34-.04-.52-.06-.13-.02-.32-.02-.43-.11-.12-.1-.1-.32-.1-.47.02-.34.1-.67.16-1,.14-.77.27-1.55.4-2.32.54-3.16,1.02-6.34,1.43-9.52.23-1.77.43-3.55.61-5.33.03-.28-.26-.52-.52-.52-.31,0-.5.24-.52.52-.33,3.34-.76,6.68-1.27,10-.25,1.63-.51,3.26-.79,4.88-.14.84-.29,1.68-.44,2.52-.12.65-.24,1.39.24,1.93.29.33.71.4,1.12.46.45.06.89.11,1.34.16.96.11,1.93.19,2.9.26.29.02.52-.26.52-.52.06-1.99.11-3.98.17-5.97.01-.49.03-.98.04-1.47.01-.38,0-.77.05-1.14.04-.25.1-.57.33-.72.31-.2.85-.18,1.2-.2.48-.04.96-.05,1.45-.04.17,0,.47-.04.63.03.11.05.13.16.18.28.32.82.53,1.68.69,2.54.33,1.77.44,3.58.75,5.35.08.45.12.98.36,1.38.29.47.81.55,1.32.57,1.1.03,2.21,0,3.31-.08.27-.02.54-.22.52-.52-.05-1-.26-1.98-.46-2.96s-.39-2.01-.58-3.02c-.38-2-.74-3.99-1.09-6-.2-1.13-.39-2.26-.58-3.39-.05-.28-.39-.44-.64-.37-.3.08-.41.36-.37.64h0Z"/>
          </g>
          <path class="cls-3" d="M38.34,16.35c1.31.75,2.7,1.37,4.1,1.93,1.35.53,2.75.91,4.06,1.53.79.37,1.56.79,2.31,1.24.58.35,1.11-.56.53-.91-1.3-.78-2.67-1.49-4.1-1.98s-2.78-.97-4.13-1.58c-.76-.35-1.52-.72-2.25-1.14-.59-.34-1.11.57-.53.91h0Z"/>
          <g>
            <path class="cls-6" d="M157.88,40.91c.05-1-.1-1.78.07-2.65s.6-1.72,1.32-2.24c.59-.42,1.33-.57,2.05-.7,1.35-.25,2.84-.42,4,.3,1.48.91,1.86,2.86,2.1,4.58,1.27,8.95,2.78,21.19,4.52,30.06.17.88.35,1.76.39,2.66-1.25.1-2.51.12-3.76.08-.26,0-.55-.03-.74-.21-.16-.15-.21-.37-.26-.58-.7-3.23-.6-7.2-1.8-10.28-.08-.2-.17-.4-.35-.52-.16-.11-.36-.12-.55-.13-.99-.05-1.98,0-2.96.12-.25.03-.51.07-.73.2-.61.35-.7,1.18-.72,1.88-.09,2.96-.17,6.48-.26,9.45-1.56-.11-3.13-.26-4.68-.47-.25-.03-.52-.07-.72-.23-.41-.32-.35-.94-.26-1.45,1.56-8.72,2.87-21,3.35-29.85"/>
            <path class="cls-3" d="M158.41,40.91c.03-.83-.11-1.69.05-2.51.14-.7.44-1.39,1-1.86.6-.5,1.44-.62,2.18-.75s1.54-.24,2.3-.12c.71.11,1.34.43,1.8.99.4.49.64,1.11.81,1.72.38,1.38.5,2.84.7,4.26.44,3.19.87,6.39,1.31,9.58.46,3.34.94,6.67,1.46,10,.25,1.58.51,3.15.78,4.72s.6,3.08.86,4.63c.08.45.13.89.15,1.34l.52-.52c-1.22.09-2.44.12-3.66.09-.12,0-.36.02-.47-.06-.14-.11-.15-.48-.18-.64-.1-.49-.18-.99-.25-1.48-.29-2.1-.41-4.22-.85-6.3-.11-.51-.24-1.01-.39-1.5-.15-.47-.29-1.04-.64-1.39-.42-.42-1.08-.37-1.63-.38-.61,0-1.23.02-1.84.08-.54.05-1.16.07-1.62.4-.39.28-.62.69-.74,1.15s-.13.92-.14,1.38c-.02.55-.03,1.1-.05,1.65-.07,2.51-.13,5.02-.2,7.54l.52-.52c-1.43-.1-2.85-.24-4.28-.41-.23-.03-.59-.02-.79-.16-.14-.1-.14-.31-.14-.47,0-.47.14-.95.22-1.41.38-2.24.72-4.49,1.03-6.75.67-4.88,1.2-9.78,1.63-14.69.22-2.52.4-5.05.54-7.58.04-.67-1.01-.67-1.05,0-.26,4.81-.69,9.61-1.21,14.39-.52,4.82-1.14,9.64-1.97,14.42-.1.59-.29,1.23-.23,1.83.07.78.57,1.27,1.34,1.38,1.62.24,3.27.38,4.91.5.29.02.52-.26.52-.52.06-2.17.12-4.33.18-6.5.03-1.03.04-2.06.09-3.09.02-.35.04-.74.22-1.05.21-.36.68-.36,1.06-.4.58-.06,1.16-.09,1.74-.09.29,0,.58,0,.87.02.23.01.29.04.39.25.38.86.59,1.83.76,2.76.38,2.01.49,4.06.79,6.08.08.54.15,1.1.3,1.63.18.65.66.96,1.31,1.01,1.3.1,2.63.02,3.92-.08.27-.02.54-.22.52-.52-.09-1.74-.55-3.46-.86-5.16-.29-1.62-.57-3.24-.83-4.86-.55-3.45-1.05-6.91-1.53-10.37-.47-3.35-.91-6.69-1.38-10.04-.2-1.47-.32-2.99-.73-4.42-.42-1.5-1.31-2.86-2.88-3.31-.83-.24-1.72-.2-2.57-.09s-1.76.25-2.55.61c-1.66.74-2.23,2.58-2.19,4.26,0,.46.03.92.01,1.37-.03.67,1.02.67,1.05,0h0Z"/>
          </g>
          <g>
            <path class="cls-4" d="M170,59.24c.61,3.5,1.26,7.54,1.95,11.02.17.88.35,1.76.39,2.66-1.25.1-2.51.12-3.76.08-.26,0-.55-.03-.74-.21-.16-.15-.21-.37-.26-.58-.7-3.23-.6-7.2-1.8-10.28-.08-.2-.17-.4-.35-.52-.16-.11-.36-.12-.55-.13-.99-.05-1.98,0-2.96.12-.25.03-.51.07-.73.2-.61.35-.7,1.18-.72,1.88-.09,2.96-.17,6.48-.26,9.45-1.56-.11-3.13-.26-4.68-.47-.25-.03-.52-.07-.72-.23-.41-.32-.35-.94-.26-1.45,1-5.58,1.89-11.82,2.53-17.5"/>
            <path class="cls-3" d="M169.5,59.38c.61,3.5,1.17,7,1.84,10.49.2,1.01.42,2.02.48,3.06l.52-.52c-1.22.09-2.44.12-3.66.09-.12,0-.36.02-.47-.06-.14-.11-.15-.48-.18-.64-.1-.49-.18-.99-.25-1.48-.29-2.1-.41-4.22-.85-6.3-.11-.51-.24-1.01-.39-1.5-.15-.47-.29-1.04-.64-1.39-.42-.42-1.08-.37-1.63-.38-.61,0-1.23.02-1.84.08-.54.05-1.16.07-1.62.4-.39.28-.62.69-.74,1.15s-.13.92-.14,1.38c-.02.55-.03,1.1-.05,1.65-.07,2.51-.13,5.02-.2,7.54l.52-.52c-.85-.06-1.7-.13-2.55-.22-.41-.04-.81-.09-1.22-.13-.38-.04-.79-.05-1.15-.16-.5-.15-.24-.96-.17-1.34.14-.79.27-1.57.4-2.36.53-3.2,1.01-6.4,1.43-9.61.23-1.77.45-3.53.65-5.3.03-.28-.26-.52-.52-.52-.31,0-.49.24-.52.52-.38,3.33-.82,6.66-1.31,9.98-.25,1.67-.51,3.33-.79,4.99-.13.8-.28,1.6-.41,2.39-.12.67-.18,1.47.4,1.96.38.32.87.36,1.34.42s.95.12,1.42.17c1,.11,2,.2,3.01.27.29.02.52-.26.52-.52.06-2.17.12-4.33.18-6.5.03-1.03.04-2.06.09-3.09.02-.35.04-.74.22-1.05.21-.36.68-.36,1.06-.4.58-.06,1.16-.09,1.74-.09.29,0,.58,0,.87.02.23.01.29.04.39.25.38.86.59,1.83.76,2.76.38,2.01.49,4.06.79,6.08.08.54.15,1.1.3,1.63.18.65.66.96,1.31,1.01,1.3.1,2.63.02,3.92-.08.27-.02.54-.22.52-.52-.05-.96-.24-1.9-.42-2.84-.17-.87-.33-1.74-.49-2.61-.32-1.79-.63-3.58-.93-5.38-.17-1-.34-1.99-.51-2.99-.05-.28-.39-.44-.64-.37-.29.08-.42.36-.37.64h0Z"/>
          </g>
          <g>
            <path class="cls-4" d="M72.93,19.11c.09,5.14.61,10.31,1.14,14.99.05.48.17,1.03.69,1.24.35.14.77.06,1.14-.03,3.49-.84,6.97-2.42,8.69-5.09.99-1.55,1.31-3.32,1.61-5.06.45-2.61.91-5.25.58-7.87-.49-3.94-2.8-7.7-6.34-10.34-1.73-1.29-4.19-2.34-6.3-1.53"/>
            <path class="cls-3" d="M72.41,19.11c.08,4.6.5,9.19,1,13.76.06.52.1,1.05.18,1.57.07.42.23.85.56,1.13.82.71,2.06.22,2.97-.04,1.83-.53,3.66-1.26,5.24-2.35,1.6-1.11,2.82-2.54,3.51-4.37.36-.96.57-1.96.75-2.97.2-1.13.4-2.25.55-3.39.3-2.2.39-4.43-.11-6.61-.41-1.79-1.18-3.5-2.2-5.02-1.09-1.62-2.46-3.03-4.01-4.21-1.52-1.15-3.45-2.1-5.41-1.98-.49.03-.98.12-1.44.3-.26.1-.45.35-.37.64.07.25.38.47.64.37,1.71-.64,3.55,0,5.03.9,1.53.93,2.88,2.22,3.99,3.63,1.05,1.32,1.88,2.84,2.4,4.45.6,1.84.74,3.74.61,5.67-.08,1.1-.24,2.2-.42,3.29-.17,1-.32,2-.55,2.98s-.5,1.87-.97,2.72c-.4.72-.93,1.36-1.54,1.91-1.26,1.15-2.84,1.95-4.44,2.54-.87.32-1.77.59-2.67.8-.29.07-.75.19-.95-.11s-.19-.69-.23-1.03c-.48-4.29-.9-8.6-1.05-12.91-.02-.55-.03-1.1-.04-1.66-.01-.67-1.06-.68-1.05,0h0Z"/>
          </g>
          <g>
            <path class="cls-6" d="M86.45,15.56c-.86-3.29-2.99-6.36-6.01-8.6-1.52-1.13-3.49-2.05-5.43-1.77s-2.03,1.9-2.07,3.62c-.07,3,.07,6.81,0,9.81"/>
            <path class="cls-3" d="M86.96,15.42c-.54-2.04-1.53-3.94-2.83-5.6s-3.04-3.3-4.98-4.29c-1.03-.53-2.16-.9-3.33-.91-.94-.01-1.97.19-2.6.94-.55.67-.7,1.53-.76,2.36-.07,1.01-.06,2.03-.06,3.04,0,2.55.08,5.11.02,7.66-.02.67,1.03.67,1.05,0,.05-2.14,0-4.29-.02-6.43,0-1.04-.01-2.09,0-3.13.02-.79,0-1.56.26-2.3.09-.26.24-.51.47-.71.07-.05.22-.15.34-.2.15-.07.38-.12.57-.15,1-.15,2.05.09,2.97.48,1.89.8,3.54,2.28,4.85,3.83,1.4,1.65,2.45,3.6,3.01,5.69.17.65,1.18.38,1.01-.28h0Z"/>
          </g>
          <path class="cls-3" d="M73.53,18.99c3.36-.39,6.69-1.06,9.93-2.03.91-.27,1.8-.57,2.7-.89.27-.1.45-.36.37-.64-.07-.26-.38-.46-.64-.37-3.11,1.12-6.32,1.95-9.58,2.5-.92.15-1.84.28-2.77.39-.28.03-.52.22-.52.52,0,.26.24.56.52.52h0Z"/>
          <g>
            <path class="cls-7" d="M114.96,9.71c-.58-2.05-1.73-4.07-3.63-5.01-3.3-1.64-7.3.63-9.55,3.55-1.38,1.8-2.44,4.14-1.75,6.3.68,2.16,3.82,3.43,5.34,1.74l.06-.7c0-1.25.02-2.54.51-3.69.49-1.15,1.59-2.14,2.84-2.11,1.6.04,2.7,1.63,3.24,3.14.55,1.53.81,3.16.77,4.78-.01.59-.08,1.21-.43,1.69-.39.53-1.05.77-1.68.93-2.21.55-4.53.36-6.78.63-2.26.28-4.65,1.18-5.75,3.17-1.49,2.71.18,6.28,2.79,7.93,2.61,1.66,5.84,1.9,8.92,2.09-.11,1.33-.22,2.65-.32,3.98,1.03.19,2.06.37,3.09.56.22.04.46.08.66-.02.31-.15.4-.55.46-.89.99-6.59,1.61-13.24,1.85-19.9.1-2.74.13-5.53-.62-8.16ZM109.52,28.34c0,.43,0,.87-.18,1.27-.31.7-1.08,1.08-1.81,1.28-.31.08-.64.15-.99.06-.31-.08-.69-.34-.82-.53-1.15-1.68-1.42-4.24-.09-6.19.62-.63,1.44-1.3,2.3-1.05.68.2,1.07.91,1.27,1.59.33,1.15.33,2.37.32,3.56Z"/>
            <g>
              <path class="cls-3" d="M115.47,9.57c-.77-2.69-2.57-5.41-5.54-5.87-2.84-.44-5.61,1.1-7.56,3.07s-3.97,5.41-2.69,8.33c.9,2.06,3.9,3.36,5.79,1.81.24-.2.39-.39.42-.7.02-.19.04-.38.05-.58.05-.73,0-1.47.11-2.2.2-1.3.87-2.77,2.29-3.08,1.26-.27,2.24.85,2.77,1.84.75,1.39,1.07,3.08,1.13,4.64.03.7.11,1.57-.28,2.19-.35.56-1.13.73-1.73.86-1.7.37-3.45.32-5.17.44-2.75.18-5.98.94-7.4,3.57-1.32,2.44-.33,5.4,1.45,7.33,2.13,2.31,5.41,2.98,8.4,3.28.77.08,1.55.13,2.33.18l-.52-.52c-.11,1.33-.22,2.65-.32,3.98-.02.21.17.47.38.51.57.1,1.13.2,1.7.31s1.13.23,1.7.3c.52.06.99-.15,1.24-.62.23-.43.25-.95.32-1.42.33-2.25.62-4.51.86-6.77.48-4.5.81-9.02.93-13.55.06-2.45,0-4.94-.67-7.31-.18-.65-1.19-.37-1.01.28.56,2,.67,4.07.65,6.14s-.14,4.23-.27,6.34c-.26,4.31-.68,8.62-1.27,12.9-.08.6-.17,1.2-.25,1.8-.04.27-.07.55-.13.83-.02.09-.05.29-.12.34-.14.09-.47-.03-.62-.06-.31-.06-.62-.11-.93-.17-.62-.11-1.23-.22-1.85-.33l.38.51c.11-1.33.22-2.65.32-3.98.02-.3-.26-.51-.52-.52-3.51-.22-7.69-.48-10.16-3.34-.98-1.14-1.65-2.65-1.58-4.17s1.05-2.81,2.37-3.57c1.53-.88,3.3-1.11,5.04-1.2,1.07-.06,2.14-.07,3.21-.18,1.01-.1,2.07-.23,3-.65.43-.19.8-.48,1.08-.86s.4-.88.46-1.36c.12-1.02.03-2.09-.13-3.11-.28-1.77-.87-3.8-2.25-5.04-.62-.55-1.41-.92-2.26-.89-.9.04-1.74.5-2.34,1.16-.65.71-1.03,1.6-1.2,2.54-.09.51-.14,1.02-.16,1.54-.02.39,0,.79-.03,1.18-.02.2-.04.4-.06.6l.15-.37c-.48.52-1.08.69-1.79.61-.65-.07-1.39-.44-1.9-.93-.61-.58-.91-1.32-.96-2.19-.06-1.08.26-2.15.74-3.11.93-1.83,2.39-3.41,4.14-4.47,1.58-.96,3.51-1.51,5.32-.89,2.12.72,3.32,2.88,3.9,4.91.19.65,1.2.37,1.01-.28Z"/>
              <path class="cls-3" d="M108.99,28.34c0,.59-.03,1.14-.53,1.54-.39.31-.97.53-1.46.58-.58.05-.87-.32-1.1-.75-.26-.48-.44-.99-.54-1.53-.22-1.09-.07-2.28.46-3.26.43-.8,1.74-1.85,2.49-.84.38.51.51,1.21.6,1.83.11.8.1,1.62.09,2.43,0,.67,1.04.68,1.05,0,0-.87,0-1.73-.12-2.59-.1-.75-.27-1.55-.71-2.18-.47-.67-1.18-1.06-2-.92-.38.06-.74.23-1.05.45-.34.23-.7.51-.95.83-.45.58-.74,1.35-.88,2.06s-.15,1.47-.04,2.21.34,1.39.68,2.02.86,1.16,1.61,1.28c.8.12,1.78-.24,2.43-.71.35-.26.63-.57.8-.97.2-.47.22-.97.23-1.47,0-.67-1.04-.68-1.05,0Z"/>
            </g>
          </g>
          <g>
            <path class="cls-1" d="M138.66,6.48c4.04-.69,12.65-.97,16.74-.83-.16,1.3-.33,2.6-.49,3.9-.03.23-.06.47-.21.64-.18.22-.48.28-.75.33-1.76.33-8.03.67-9.79,1-.27.05-.57.12-.74.33-.13.16-.17.38-.2.59-.41,2.84-.53,5.73-.35,8.6.01.21.04.44.18.6.19.19.49.19.76.17,1.4-.09,7.29-.19,8.69-.28.38-.03.78-.05,1.13.11,1,.45.89,1.88.62,2.94-1.9.41-8.3.81-10.21,1.22-.27.06-.56.13-.72.35-.18.25-.13.59-.07.89.15.78.3,1.56.45,2.33,2.12-.09,8.75.01,10.85.31.21.03.44.07.56.24.11.15.1.35.09.53-.07,1.07-.13,2.14-.2,3.22-3.95.71-12.53.69-16.47-.06.03-9.07-.18-18.06.13-27.13"/>
            <path class="cls-3" d="M138.8,6.99c.93-.16,1.78-.25,2.75-.35,1.16-.11,2.32-.19,3.48-.26,2.38-.14,4.77-.22,7.15-.24,1.07,0,2.15,0,3.22.03l-.52-.52c-.13.99-.25,1.99-.38,2.98l-.09.72c-.02.15-.02.36-.1.49-.12.18-.46.18-.66.22-.08.01-.16.02-.23.04-.05,0-.09.01-.14.02.12-.02-.03,0-.07,0-.23.03-.47.06-.7.08-.57.06-1.14.11-1.7.16-1.26.11-2.51.21-3.77.32-.98.09-1.96.16-2.93.33-.36.06-.73.16-1,.42-.34.32-.38.8-.43,1.23-.14,1-.24,2-.31,3s-.09,1.95-.09,2.92c0,.5.01.99.03,1.49.02.46,0,.98.11,1.43s.49.76.96.82c.24.03.47,0,.7,0,.41-.02.82-.03,1.24-.05,1.19-.04,2.37-.07,3.56-.1,1.04-.03,2.08-.05,3.12-.1.47-.02,1.06-.16,1.49.07.19.11.29.28.35.49.08.28.09.57.07.88s-.08.61-.16.91l.37-.37c-.76.16-1.28.21-2.05.29-.99.11-1.99.21-2.98.3-.99.1-1.98.19-2.96.3-.74.08-1.48.16-2.21.32-.35.08-.71.2-.95.49-.28.33-.31.75-.24,1.17.13.86.33,1.71.49,2.56.04.22.29.39.51.38,1.69-.07,3.39-.04,5.09,0,1.8.04,3.61.07,5.4.26.08,0,.16.02.25.03s-.13-.02-.02,0c.08.01.21.01.28.06,0,0,0,0,0,0-.03-.05-.03-.06-.02-.03,0,.05,0,.11,0,.16,0,.2-.02.4-.04.6-.06.9-.11,1.8-.17,2.7l.38-.51c-.88.16-1.74.25-2.68.32-1.13.09-2.27.14-3.41.16-2.34.05-4.68.01-7.02-.17-1.08-.08-2.05-.18-3.08-.38l.38.51c0-3.53-.01-7.06-.03-10.6-.02-3.51-.02-7.02.02-10.53.03-2,.07-4,.14-6,.02-.67-1.03-.67-1.05,0-.12,3.53-.16,7.06-.17,10.59s.02,7.02.03,10.53c0,2,.01,4,0,6.01,0,.21.16.46.38.51,2.07.39,4.19.5,6.29.57,2.39.07,4.78.05,7.16-.12,1.1-.08,2.21-.19,3.3-.38.23-.04.37-.29.38-.51.05-.83.1-1.66.16-2.49.02-.34.08-.7.04-1.04-.05-.44-.32-.77-.75-.9-.35-.11-.76-.12-1.13-.16-.42-.04-.83-.07-1.25-.09-2.08-.12-4.17-.16-6.26-.17-.88,0-1.75,0-2.63.03l.51.38c-.14-.74-.29-1.49-.43-2.23-.03-.13-.12-.43-.03-.55.09-.13.41-.14.57-.17.3-.06.61-.1.92-.15-.09.01,0,0,0,0,.05,0,.1-.01.15-.02.09-.01.18-.02.27-.03.22-.03.44-.05.66-.08,1.89-.21,3.79-.37,5.68-.58.8-.09,1.6-.17,2.39-.34.17-.04.32-.2.37-.37.32-1.26.43-3.18-1.15-3.64-.53-.16-1.11-.06-1.65-.04-.47.02-.94.03-1.41.05-2.17.06-4.35.08-6.52.19-.17,0-.44.08-.6,0,0,0-.03-.02,0,0,.04.03-.02-.07-.02-.1-.02-.08-.02-.16-.02-.24-.02-.26-.03-.51-.04-.77-.04-.99-.05-1.98-.02-2.98s.09-1.95.19-2.92c.05-.5.11-1,.18-1.49.02-.17.03-.37.09-.53.05-.13.16-.15.29-.18.2-.05.41-.08.62-.11.05,0,.09-.01.14-.02-.13.02.02,0,.05,0,.12-.01.23-.03.35-.04.54-.06,1.08-.11,1.61-.16,1.27-.11,2.53-.21,3.8-.32,1.05-.09,2.11-.18,3.15-.34.68-.1,1.36-.31,1.56-1.05.13-.45.14-.94.2-1.4.06-.5.13-.99.19-1.49l.19-1.49c.04-.29-.27-.52-.52-.52-2.11-.07-4.22-.03-6.33.03-2.41.07-4.82.19-7.22.41-1.11.1-2.23.22-3.33.41-.28.05-.44.39-.37.64.08.3.36.41.64.37h0Z"/>
          </g>
          <g>
            <path class="cls-5" d="M99.23,52.56c4.04-.69,8.15-.97,12.24-.83l-.49,3.9c-.03.23-.06.47-.21.64-.18.22-.48.28-.75.33-1.76.33-3.53.67-5.29,1-.27.05-.57.12-.74.33-.13.16-.17.38-.2.59-.41,2.84-.53,5.73-.35,8.6.01.21.04.44.18.6.19.19.49.19.76.17,1.4-.09,2.79-.19,4.19-.28.38-.03.78-.05,1.13.11,1,.45.89,1.88.62,2.94-1.9.41-3.8.81-5.71,1.22-.27.06-.56.13-.72.35-.18.25-.13.59-.07.89.15.78.3,1.56.45,2.33,2.12-.09,4.25.01,6.35.31.21.03.44.07.56.24.11.15.1.35.09.53-.07,1.07-.13,2.14-.2,3.22-3.95.71-8.03.69-11.97-.06.03-9.07-.18-18.06.13-27.13"/>
            <path class="cls-3" d="M99.37,53.07c3.99-.68,8.05-.95,12.1-.82l-.52-.52c-.14,1.13-.28,2.26-.43,3.39-.03.21-.04.43-.09.64-.04.17-.09.22-.25.28-.5.16-1.06.21-1.57.31-1.1.21-2.2.42-3.31.62-.47.09-1.03.12-1.44.39-.47.31-.55.81-.62,1.33-.31,2.22-.44,4.45-.4,6.69.01.56.03,1.13.07,1.69s.18,1.07.75,1.27c.45.16.98.06,1.44.02.56-.04,1.12-.08,1.68-.11.61-.04,1.22-.08,1.83-.12.42-.03.89-.05,1.15.29.15.2.21.56.21.87,0,.42-.07.82-.17,1.22l.37-.37c-1.83.39-3.67.78-5.5,1.18-.37.08-.76.16-1.06.42-.32.29-.41.72-.36,1.14.1.91.34,1.81.51,2.7.04.22.29.39.51.38,1.76-.07,3.53-.02,5.28.17.38.04.76.13,1.14.15-.41-.03.09.03.07.02-.03-.05-.03-.06-.02-.03,0,.04,0,.08,0,.12,0,.21-.02.43-.04.64-.06.9-.11,1.8-.17,2.7l.38-.51c-3.86.69-7.84.67-11.69-.06l.38.51c0-3.53-.01-7.06-.03-10.6-.02-3.51-.02-7.02.02-10.53.03-2,.07-4,.14-6,.02-.67-1.03-.67-1.05,0-.12,3.53-.16,7.06-.17,10.59s.02,7.02.03,10.53c0,2,.01,4,0,6.01,0,.21.16.46.38.51,4.05.77,8.19.79,12.25.06.23-.04.37-.29.38-.51.06-1,.13-2.01.19-3.01.03-.44.03-.89-.33-1.2s-.86-.31-1.29-.36c-1.95-.25-3.92-.33-5.89-.25l.51.38c-.16-.8-.34-1.6-.47-2.41-.03-.21-.07-.37.15-.45.35-.13.75-.17,1.11-.25,1.63-.35,3.26-.7,4.89-1.05.17-.04.32-.2.37-.37.19-.75.32-1.6.09-2.35-.27-.92-1.05-1.39-1.99-1.37-1.1.02-2.21.14-3.32.22-.51.03-1.02.07-1.53.09-.03,0-.07,0-.09-.02.05.03,0,0,0-.05,0-.04-.01-.07-.02-.1-.04-.28-.03-.57-.05-.85-.1-2.24-.02-4.49.24-6.71.03-.26.06-.52.1-.78.02-.17.01-.48.14-.61.09-.1.3-.11.43-.14.28-.06.57-.11.85-.16,1.12-.21,2.24-.42,3.36-.63.55-.1,1.18-.15,1.69-.38.59-.27.71-.83.79-1.41.16-1.27.32-2.53.48-3.8.04-.29-.27-.52-.52-.52-4.14-.14-8.29.16-12.38.85-.28.05-.44.39-.37.64.08.3.36.41.64.37h0Z"/>
          </g>
          <g>
            <path class="cls-1" d="M19.63,7.89c1.56-.03,3.12-.05,4.68-.08.2,0,.43,0,.55.16.12.16.07.38.02.58-.48,1.87-.55,3.82-.61,5.75-.14,4.31-.27,8.65.36,12.91.12.79.29,1.62.84,2.19s1.63.69,2.09.04c.19-.27.24-.61.29-.94.68-4.89,1.37-9.81,1.4-14.75.01-2.15-.09-4.34.41-6.43,1.13.32,2.31.47,3.49.44,0,5.69,0,11.39,0,17.08,0,2.18,0,4.39-.58,6.49-.39,1.42-1.09,2.81-2.27,3.68-2.3,1.68-5.77.76-7.67-1.35-1.9-2.12-2.56-5.07-2.81-7.91-.24-2.7-.19-5.41-.14-8.12.06-3.33-.12-6.41-.05-9.75"/>
            <path class="cls-3" d="M19.63,8.41l2.7-.05,1.35-.02c.22,0,.44-.01.66-.01.01,0,.13.01.13,0,.01-.02-.05-.09-.07-.07-.04.03-.06.25-.07.3-.02.1-.05.19-.07.29-.05.23-.1.46-.14.68-.08.44-.14.88-.19,1.32-.1.86-.14,1.73-.17,2.6-.13,3.56-.26,7.15,0,10.71.07.9.16,1.8.28,2.69.1.76.21,1.53.55,2.22.31.62.85,1.13,1.55,1.28s1.4-.01,1.83-.59c.22-.3.32-.67.37-1.03.07-.45.13-.91.19-1.37.13-.9.25-1.81.37-2.71.23-1.78.44-3.57.6-5.36s.26-3.62.28-5.43-.06-3.46.16-5.17c.05-.41.13-.82.23-1.23l-.64.37c1.18.33,2.41.49,3.63.46l-.52-.52c0,4.52,0,9.05,0,13.57,0,2.19.07,4.4-.06,6.59-.11,1.91-.43,3.96-1.53,5.58-.9,1.32-2.35,1.96-3.93,1.85s-2.98-.86-4.01-1.95c-1.23-1.31-1.91-3.02-2.31-4.75-.45-1.94-.56-3.94-.61-5.92-.05-2.21.04-4.43.04-6.64s-.08-4.37-.08-6.55c0-.55,0-1.1.01-1.65.01-.67-1.04-.67-1.05,0-.04,2.26.03,4.52.06,6.78.03,2.29-.06,4.58-.05,6.88.01,2.16.1,4.34.47,6.46.33,1.86.93,3.73,2.06,5.27,1.04,1.42,2.49,2.48,4.21,2.92,1.61.41,3.42.25,4.77-.78,1.62-1.22,2.37-3.21,2.72-5.15.4-2.22.33-4.49.33-6.74,0-4.68,0-9.36,0-14.04,0-.58,0-1.15,0-1.73,0-.28-.24-.53-.52-.52-1.14.03-2.26-.11-3.35-.42-.26-.07-.58.09-.64.37-.39,1.66-.43,3.38-.43,5.08s-.03,3.52-.14,5.27c-.23,3.52-.71,7.03-1.2,10.52-.05.33-.06.72-.21,1.02-.1.18-.28.26-.46.28-.55.04-.96-.33-1.21-.81-.31-.63-.37-1.4-.46-2.09-.11-.88-.19-1.77-.25-2.65-.23-3.49-.11-7,.03-10.5.03-.85.08-1.7.18-2.54.05-.4.11-.8.18-1.19s.23-.82.26-1.24c.04-.44-.2-.84-.63-.98-.37-.12-.81-.06-1.19-.05l-2.65.05-1.35.02c-.67.01-.68,1.06,0,1.05h0Z"/>
          </g>
          <g>
            <path class="cls-6" d="M82.55,50.85c1.56-.03,3.12-.05,4.68-.08.2,0,.43,0,.55.16.12.16.07.38.02.58-.48,1.87-.55,3.82-.61,5.75-.14,4.31-.27,8.65.36,12.91.12.79.29,1.62.84,2.19s1.63.69,2.09.04c.19-.27.24-.61.29-.94.68-4.89,1.37-9.81,1.4-14.75.01-2.15-.09-4.34.41-6.43,1.13.32,2.31.47,3.49.44,0,5.69,0,11.39,0,17.08,0,2.18,0,4.39-.58,6.49-.39,1.42-1.09,2.81-2.27,3.68-2.3,1.68-5.77.76-7.67-1.35s-2.56-5.07-2.81-7.91c-.24-2.7-.19-5.41-.14-8.12.06-3.33-.12-6.41-.05-9.75"/>
            <path class="cls-3" d="M82.55,51.38c.9-.02,1.8-.03,2.7-.05l1.35-.02c.22,0,.44-.01.66-.01.01,0,.13.01.13,0,.01-.02-.05-.09-.07-.07-.04.03-.06.25-.07.3-.02.1-.05.19-.07.29-.05.23-.1.46-.14.68-.08.44-.14.88-.19,1.32-.1.86-.14,1.73-.17,2.6-.13,3.56-.26,7.15,0,10.71.07.9.16,1.8.28,2.69.1.76.21,1.53.55,2.22.31.62.85,1.13,1.55,1.28s1.4-.01,1.83-.59c.22-.3.32-.67.37-1.03.07-.45.13-.91.19-1.37.13-.9.25-1.81.37-2.71.23-1.78.44-3.57.6-5.36s.26-3.62.28-5.43-.06-3.46.16-5.17c.05-.41.13-.82.23-1.23l-.64.37c1.18.33,2.41.49,3.63.46l-.52-.52c0,4.52,0,9.05,0,13.57,0,2.19.07,4.4-.06,6.59-.11,1.91-.43,3.96-1.53,5.58-.9,1.32-2.35,1.96-3.93,1.85-1.51-.11-2.98-.86-4.01-1.95-1.23-1.31-1.91-3.02-2.31-4.75-.45-1.94-.56-3.94-.61-5.92-.05-2.21.04-4.43.04-6.64,0-2.18-.08-4.37-.08-6.55,0-.55,0-1.1.01-1.65.01-.67-1.04-.67-1.05,0-.04,2.26.03,4.52.06,6.78.03,2.29-.06,4.58-.05,6.88.01,2.16.1,4.34.47,6.46.33,1.86.93,3.73,2.06,5.27,1.04,1.42,2.49,2.48,4.21,2.92,1.61.41,3.42.25,4.77-.78,1.62-1.22,2.37-3.21,2.72-5.15.4-2.22.33-4.49.33-6.74,0-4.68,0-9.36,0-14.04v-1.73c0-.28-.24-.53-.52-.52-1.14.03-2.26-.11-3.35-.42-.26-.07-.58.09-.64.37-.39,1.66-.43,3.38-.43,5.08s-.03,3.52-.14,5.27c-.23,3.52-.71,7.03-1.2,10.52-.05.33-.06.72-.21,1.02-.1.18-.28.26-.46.28-.55.04-.96-.33-1.21-.81-.31-.63-.37-1.4-.46-2.09-.11-.88-.19-1.77-.25-2.65-.23-3.49-.11-7,.03-10.5.03-.85.08-1.7.18-2.54.05-.4.11-.8.18-1.19s.23-.82.26-1.24c.04-.44-.2-.84-.63-.98-.37-.12-.81-.06-1.19-.05l-2.65.05-1.35.02c-.67.01-.68,1.06,0,1.05h0Z"/>
          </g>
          <g>
            <path class="cls-10" d="M89.91,33.03c.34-6.88.74-14.55,1.21-21.42,1.22-.08,2.44-.16,3.66-.25.65,6.97.35,13.99.05,20.98,0,.14-.02.28-.11.39-.1.12-.28.14-.43.15-1.37.09-3.03.35-4.38.14"/>
            <path class="cls-3" d="M90.43,33.03c.27-5.59.56-11.19.91-16.77.09-1.55.19-3.1.3-4.64l-.52.52c1.22-.08,2.44-.16,3.66-.25l-.52-.52c.64,6.91.35,13.86.06,20.78,0,.04-.04.26-.01.29-.03.08,0,.04.12-.1-.06,0-.09,0-.06.02-.17-.03-.41.03-.58.04-.42.04-.84.08-1.27.11-.81.07-1.65.13-2.46,0-.28-.04-.56.07-.64.37-.07.25.08.6.37.64.8.12,1.61.11,2.42.05.77-.05,1.55-.09,2.31-.2.48-.07.79-.39.84-.87.05-.43.04-.87.06-1.31.04-.92.08-1.84.11-2.75.14-3.64.23-7.28.14-10.92-.05-2.06-.16-4.12-.35-6.17-.02-.27-.22-.54-.52-.52-1.22.08-2.44.16-3.66.25-.3.02-.5.22-.52.52-.38,5.59-.69,11.18-.97,16.77-.08,1.55-.16,3.1-.23,4.65-.03.67,1.02.67,1.05,0h0Z"/>
          </g>
          <g>
            <path class="cls-8" d="M91.56,3.52c-1.61.82-1.87,1.99-1.9,2.64-.02.54,0,1.1.24,1.58.31.65.97,1.1,1.67,1.25s1.45.03,2.12-.24c.27-.11.52-.24.75-.41.78-.59,1.13-1.66.91-2.61-.21-.95-.94-1.75-1.84-2.13-.62-.26-1.33-.32-1.96-.09"/>
            <path class="cls-3" d="M91.3,3.06c-1.01.53-1.89,1.41-2.1,2.57-.24,1.33.09,2.77,1.32,3.5,1.33.79,3.22.48,4.38-.49,1.09-.92,1.3-2.55.69-3.79-.72-1.47-2.58-2.4-4.17-1.85-.27.09-.44.36-.37.64.07.26.38.46.64.37,1.02-.35,2.18.13,2.78,1,.55.8.58,1.93-.1,2.67-.38.41-.92.63-1.46.76s-1.12.13-1.63-.09c-.44-.19-.82-.54-.98-1-.09-.27-.12-.55-.13-.83,0-.13,0-.26,0-.4,0-.02,0-.05,0-.07,0-.01.02-.17,0-.09-.01.09,0-.05,0-.05,0-.04.02-.09.03-.13.02-.09.05-.19.08-.28.06-.17.12-.29.25-.49.3-.45.77-.79,1.26-1.05.6-.31.07-1.22-.53-.91h0Z"/>
          </g>
          <g>
            <path class="cls-5" d="M54.24,4.08c1.61-.16,3.22-.22,4.84-.18-.43,2.71-.55,5.46-.35,8.19.09,1.3-.04,3.26.02,4.57.08,1.54.24,4.91.2,6.45-.21,6.61-.15,10.74.06,17.35-1.64.1-3.28.13-4.92.1.04-10.21.08-20.42.12-30.63,0-2.03-.1-3.72.04-5.86"/>
            <path class="cls-3" d="M54.24,4.6c1.61-.16,3.22-.22,4.84-.18l-.51-.66c-.44,2.82-.53,5.63-.36,8.47.07,1.15,0,2.3,0,3.45,0,.89.06,1.79.1,2.68.05,1.03.09,2.05.11,3.08.02,1.03-.01,2.06-.04,3.09-.07,2.47-.1,4.95-.08,7.42.02,2.84.1,5.67.18,8.5l.52-.52c-1.64.09-3.28.13-4.92.1l.52.52c.02-4.83.04-9.65.06-14.48s.04-9.65.06-14.48c0-1.28,0-2.56-.01-3.83s-.02-2.47.06-3.7c.02-.28-.25-.52-.52-.52-.3,0-.51.24-.52.52-.14,2.21-.03,4.43-.04,6.64,0,2.4-.02,4.81-.03,7.21-.02,4.83-.04,9.65-.06,14.48-.01,2.72-.02,5.44-.03,8.15,0,.29.24.52.52.52,1.64.02,3.28-.01,4.92-.1.28-.02.53-.23.52-.52-.15-4.95-.24-9.9-.13-14.86.03-1.14.09-2.28.08-3.42,0-1.01-.04-2.01-.09-3.02-.04-.88-.09-1.76-.12-2.65-.04-1.12.02-2.24.02-3.37,0-1.45-.15-2.89-.12-4.34.03-1.6.17-3.19.42-4.77.05-.34-.14-.65-.51-.66-1.61-.04-3.23.02-4.84.18-.28.03-.52.22-.52.52,0,.26.24.55.52.52h0Z"/>
          </g>
          <g>
            <path class="cls-11" d="M60.22,20.01c1.52-.14,3.38-.45,4.9-.59,1.43,6.99,2.86,13.99,4.29,20.98.03.13.05.27-.02.38-.08.13-.24.16-.39.18-1.24.19-2.48.33-3.73.42-.3.02-.63.04-.89-.11-.4-.23-.52-.74-.6-1.2-.98-5.51-1.96-11.03-2.94-16.54-.21-1.17-.42-2.35-.63-3.52"/>
            <path class="cls-3" d="M60.22,20.54c1.64-.15,3.26-.44,4.9-.59l-.51-.38c1.27,6.23,2.55,12.45,3.82,18.68l.22,1.07.13.61c.01.05.08.59.13.61.04.02.15-.07.1-.11-.02-.01-.23.04-.25.04-.17.03-.33.05-.5.07-.39.05-.78.1-1.17.14-.37.04-.74.08-1.11.11s-.76.1-1.13.07c-.53-.05-.54-.79-.61-1.19-.55-3.12-1.11-6.23-1.66-9.35-.62-3.49-1.24-6.97-1.86-10.46-.05-.28-.39-.44-.64-.37-.29.08-.42.37-.37.64,1.16,6.55,2.33,13.1,3.49,19.65.12.66.21,1.41.8,1.84s1.48.26,2.18.19c.82-.08,1.64-.17,2.45-.29.33-.05.69-.06.97-.25.43-.3.36-.79.26-1.24l-1.99-9.72c-.75-3.68-1.51-7.37-2.26-11.05-.04-.21-.29-.4-.51-.38-1.64.15-3.26.44-4.9.59-.28.03-.52.22-.52.52,0,.26.24.55.52.52h0Z"/>
          </g>
          <g>
            <path class="cls-2" d="M60.52,17.45c-.02-4.34-.04-8.67-.06-13.01,0-.17,0-.36.13-.48.1-.1.26-.12.4-.14,1.39-.16,2.83-.32,4.18.08,1.62.48,2.91,1.69,4.01,2.97.32.37.64.76.86,1.2.32.65.42,1.39.39,2.11-.09,2.07-1.27,4-2.91,5.26-1.64,1.26-3.71,1.88-5.77,2.02-.39.03-.78.04-1.16-.07"/>
            <path class="cls-3" d="M61.04,17.45l-.04-8.53c0-1.42-.01-2.84-.02-4.27,0,0,.01-.36,0-.36l-.03.05c-.06.03-.07.04-.01.03-.02,0,.24-.04.14-.02.36-.05.72-.08,1.08-.11.65-.05,1.31-.08,1.96,0,1.15.13,2.19.66,3.08,1.39.45.37.86.78,1.25,1.21s.82.89,1.1,1.42c.53,1,.44,2.26.12,3.31s-.9,1.98-1.65,2.75c-.91.93-2.05,1.6-3.27,2.03-.63.22-1.28.38-1.94.48s-1.42.23-2.07.07-.93.85-.28,1.01c.71.17,1.46.09,2.18,0,.66-.09,1.32-.22,1.96-.41,1.29-.39,2.51-1.01,3.55-1.88,1.91-1.6,3.2-4.22,2.71-6.74-.26-1.35-1.28-2.43-2.23-3.37-.9-.89-1.95-1.66-3.16-2.06-1.41-.46-2.93-.33-4.38-.16-.34.04-.67.08-.91.36s-.24.65-.23,1v2.34c.03,3.49.04,6.97.06,10.46,0,.67,1.05.68,1.05,0h0Z"/>
          </g>
          <g>
            <path class="cls-9" d="M165.94,9.79c-.15-.82-.06-1.91-.16-2.71s-.46-1.61-1.12-2.08c-.66-.47-1.66-.49-2.24.07-.64.63-.58,1.66-.41,2.54.23,1.26.59,2.51,1.23,3.61.57.97,1.34,1.81,2.02,2.71.71.94,1.31,1.94,1.88,2.96,1.08,1.9,2.07,3.87,2.7,5.96s.86,4.34.41,6.48c-.07.34-.16.68-.35.96-.19.28-.46.48-.74.67-1.71,1.13-3.83,1.68-5.85,1.35-2.02-.33-3.91-1.57-4.88-3.37-.8-1.49-.95-3.24-.93-4.93,0-.43.02-.87.19-1.27.43-1.08,1.99-1.49,2.91-.78.9.69,1,1.97,1.1,3.1.1,1.13.39,2.44,1.43,2.9.83.37,1.86-.02,2.4-.75s.63-1.72.43-2.6-.65-1.69-1.13-2.46c-1.32-2.13-2.89-4.1-4.26-6.2-1.37-2.1-2.55-4.38-2.99-6.84-.28-1.61-.24-3.31.36-4.83s1.77-2.86,3.3-3.43c2.16-.82,4.65-.02,6.48,1.39.37.29.72.6,1.01.97.97,1.24,1.09,2.92,1.17,4.49.04.69.05,1.45-.42,1.96-.27.3-.68.46-1.08.54-.82.16-1.71.02-2.44-.4"/>
            <path class="cls-3" d="M166.45,9.65c-.16-.92-.03-1.87-.18-2.79s-.6-1.81-1.38-2.33c-.72-.48-1.77-.56-2.51-.08-.81.52-1.06,1.48-1,2.39.06.97.3,1.95.61,2.87.33.98.8,1.89,1.41,2.72.62.84,1.32,1.62,1.9,2.49s1.12,1.79,1.63,2.71c1.01,1.83,1.94,3.73,2.49,5.75.53,1.95.79,4.18.22,6.16-.12.43-.37.71-.74.96-.41.27-.84.51-1.28.71-.84.38-1.78.62-2.7.67-1.73.1-3.48-.43-4.79-1.59-.64-.57-1.16-1.26-1.5-2.05-.37-.87-.54-1.82-.61-2.76-.03-.5-.04-1-.03-1.5,0-.42.02-.88.26-1.24.3-.45.97-.67,1.46-.58,1.57.31,1.32,2.72,1.56,3.91.16.79.49,1.59,1.14,2.1.74.57,1.7.57,2.52.17.82-.4,1.36-1.23,1.53-2.11.19-1.02-.03-2.01-.45-2.94s-1.02-1.82-1.61-2.68-1.23-1.76-1.85-2.63c-2.32-3.25-4.82-6.95-4.65-11.12.07-1.81.77-3.59,2.18-4.76s3.18-1.27,4.83-.75,3.43,1.67,4,3.39c.28.86.36,1.76.41,2.66.04.72.2,1.76-.59,2.14s-1.8.21-2.53-.19c-.59-.33-1.12.58-.53.91.93.51,2.05.69,3.08.39.5-.14.95-.42,1.25-.85.27-.39.37-.87.4-1.34.06-.94-.05-1.93-.2-2.86s-.46-1.89-1.05-2.66c-.62-.82-1.5-1.45-2.4-1.94-.84-.45-1.75-.79-2.7-.93-1.92-.28-3.81.3-5.17,1.71s-2.03,3.46-2.04,5.45c0,2.14.66,4.22,1.58,6.13.95,1.94,2.19,3.71,3.45,5.47.65.91,1.31,1.82,1.92,2.76.57.87,1.19,1.76,1.5,2.76.26.82.3,1.8-.22,2.54-.4.56-1.21.91-1.85.57s-.86-1.17-.98-1.84c-.14-.83-.12-1.69-.37-2.51s-.81-1.62-1.68-1.9c-.73-.24-1.6-.09-2.22.35-.83.59-1.03,1.49-1.04,2.47-.02,1.05.04,2.1.26,3.13.4,1.91,1.49,3.55,3.14,4.61s3.64,1.38,5.55,1.06c1-.16,1.97-.52,2.85-1,.43-.23.86-.5,1.22-.83.39-.36.61-.83.73-1.34.52-2.16.31-4.47-.28-6.6-.58-2.11-1.55-4.09-2.61-6-.53-.95-1.07-1.9-1.69-2.79s-1.33-1.68-1.96-2.55-1.04-1.77-1.32-2.77c-.14-.5-.26-1.02-.35-1.54-.07-.39-.11-.81-.06-1.2.05-.34.19-.69.5-.87s.68-.19,1.01-.09c.81.24,1.21,1.13,1.31,1.9.12.93.02,1.86.18,2.79.05.28.39.44.64.37.3-.08.41-.36.37-.64h0Z"/>
          </g>
          <g>
            <path class="cls-10" d="M52.85,65.83c-.43-1.49-1.28-2.96-2.67-3.64-2.41-1.18-5.32.48-6.95,2.62-1,1.32-1.76,3.03-1.25,4.6.51,1.58,2.8,2.49,3.9,1.25l.04-.51c0-.91,0-1.85.36-2.7.35-.84,1.15-1.57,2.06-1.55,1.17.02,1.98,1.18,2.38,2.28.4,1.11.6,2.3.58,3.48,0,.43-.05.88-.31,1.23-.28.39-.76.57-1.22.68-1.61.41-3.3.28-4.95.49-1.65.21-3.39.88-4.18,2.34-1.08,1.98.16,4.58,2.06,5.78,1.91,1.2,4.27,1.36,6.52,1.49-.07.97-.15,1.93-.22,2.9.75.13,1.5.26,2.25.39.16.03.33.05.48-.02.23-.11.29-.4.33-.65.7-4.81,1.12-9.67,1.27-14.53.06-2,.07-4.03-.48-5.95ZM48.88,79.13c-.07.71-.27,1.44-.67,1.79-.29.26-.64.28-.96.23-.27-.04-.53-.13-.77-.32-.49-.38-.84-1.18-.89-2.03-.05-.85.2-1.74.64-2.25.32-.41.48-.5.73-.56.41-.1.67,0,.92.1.55.22.69.66.91,1.47.13.49.14,1.04.09,1.56Z"/>
            <g>
              <path class="cls-3" d="M53.36,65.69c-.58-1.99-1.92-3.99-4.11-4.35-2.1-.35-4.16.76-5.61,2.21-1.5,1.49-2.95,3.95-2.13,6.12.59,1.56,2.78,2.76,4.31,1.72.19-.13.44-.31.53-.53.06-.15.06-.35.07-.51.04-.48.01-.96.05-1.44.07-.93.43-2.08,1.41-2.41.89-.3,1.59.43,2,1.13.57.99.81,2.21.87,3.35.02.48.11,1.18-.18,1.6s-.89.5-1.34.59c-1.26.25-2.55.21-3.82.32-2,.17-4.34.83-5.29,2.79-.9,1.85-.16,4.02,1.19,5.44,1.6,1.67,4,2.16,6.21,2.36.57.05,1.13.09,1.7.12l-.52-.52c-.07.97-.15,1.93-.22,2.9-.02.21.17.47.38.51.41.07.82.14,1.23.21.44.08.89.19,1.33.22.37.02.71-.12.92-.43s.24-.7.29-1.06c.23-1.65.44-3.31.61-4.97.34-3.31.57-6.65.64-9.98.04-1.81-.02-3.65-.52-5.4-.18-.65-1.2-.37-1.01.28.41,1.44.5,2.94.49,4.43,0,1.53-.08,3.06-.17,4.58-.17,3.13-.46,6.26-.86,9.37-.05.4-.1.8-.16,1.19-.03.23-.06.46-.1.68-.01.08-.03.22-.07.28.05-.07.06,0-.06-.04-.09-.02-.19-.03-.28-.05-.22-.04-.44-.08-.67-.12-.44-.08-.89-.15-1.33-.23l.38.51c.07-.97.15-1.93.22-2.9.02-.29-.26-.51-.52-.52-2.57-.15-5.63-.32-7.41-2.45-.68-.81-1.11-1.88-1.03-2.95.08-1.12.87-1.99,1.83-2.49,1.14-.6,2.44-.72,3.7-.78.8-.04,1.59-.07,2.38-.17.72-.09,1.53-.2,2.16-.59.67-.42.93-1.11.97-1.88s-.04-1.53-.18-2.28c-.24-1.28-.71-2.74-1.77-3.59-.58-.47-1.3-.7-2.04-.54-.71.14-1.3.64-1.7,1.22-.83,1.18-.65,2.65-.77,4.01l.15-.37c-.33.36-.74.47-1.2.41s-.96-.31-1.31-.65c-.43-.42-.63-.94-.65-1.56-.03-.75.2-1.48.54-2.15.67-1.31,1.7-2.44,2.96-3.21,1.12-.68,2.47-1.07,3.74-.64,1.5.51,2.34,2.04,2.76,3.47.19.65,1.2.37,1.01-.28Z"/>
              <path class="cls-3" d="M48.35,79.13c-.06.56-.2,1.59-.96,1.51s-1.13-.85-1.25-1.55c-.13-.76.02-1.64.51-2.25.06-.07.12-.14.18-.2s.04-.04.09-.08c.02-.02.06-.03.08-.05-.02,0-.09.03,0,0,.07-.02.14-.04.21-.05.15-.01.29.03.43.09.03.01.07.03.12.06.03.02.06.04.09.06-.04-.03,0,0,.02.02.02.02.05.05.07.08-.05-.06.02.04.03.05.02.04.08.16.09.17.08.19.13.39.19.59.14.51.15,1.02.11,1.55-.02.28.26.52.52.52.3,0,.5-.24.52-.52.05-.63.01-1.25-.16-1.87-.12-.45-.27-.92-.59-1.27-.66-.71-1.91-.77-2.58-.07-.84.86-1.13,2.1-.97,3.27.16,1.12.8,2.25,2,2.45.69.12,1.32-.08,1.73-.66.38-.53.5-1.22.56-1.86.03-.28-.26-.52-.52-.52-.31,0-.5.24-.52.52Z"/>
            </g>
          </g>
          <g>
            <path class="cls-9" d="M37.96,87.9c-1.79.27-2.04.05-3.78.29-.19-3.25-.13-5.12-.21-8.18-.14-5.1-.29-6.71-.43-11.81-.03-1.02.09-2.28,1.03-2.67.28-.12.58-.13.88-.15.62-.03,1.24-.06,1.86-.09.15,0,.31,0,.42.09.11.1.13.25.14.4.42,4.42.36,8.87.29,13.3-.07,4.44-.14,4.38-.21,8.82"/>
            <path class="cls-3" d="M37.82,87.39c-1.25.18-2.52.12-3.78.29l.66.51c-.19-3.27-.15-6.55-.26-9.82-.09-2.8-.23-5.6-.33-8.4-.03-.81-.09-1.63-.05-2.44.03-.5.13-1.14.53-1.43.3-.22.71-.19,1.06-.21.48-.02.97-.05,1.45-.07.09,0,.19,0,.28-.01-.38.07.1-.02.08,0l-.07-.06c-.06-.08-.08-.08-.06-.02-.02.05.02.19.03.25.01.14.03.28.04.41.04.47.07.93.1,1.4.25,3.86.18,7.72.12,11.59-.04,2.4-.13,4.8-.18,7.21,0,.44-.02.87-.02,1.31-.01.67,1.04.68,1.05,0,.04-2.56.14-5.12.19-7.68.07-3.98.15-7.97-.08-11.95-.03-.5-.06-1-.1-1.5-.04-.45-.01-.98-.17-1.41-.19-.52-.68-.6-1.17-.58s-1,.05-1.5.07c-.47.02-.95.03-1.38.24-.32.15-.59.41-.78.71-.39.6-.47,1.36-.48,2.06-.02,1.61.09,3.22.16,4.83.06,1.36.12,2.71.17,4.07.07,1.73.12,3.47.15,5.21.02,1.61.03,3.21.1,4.82.02.47.04.94.07,1.42.02.37.32.55.66.51.59-.08,1.19-.11,1.79-.12.67-.01,1.33-.07,1.99-.17.28-.04.43-.4.37-.64-.08-.3-.36-.41-.64-.37h0Z"/>
          </g>
          <g>
            <path class="cls-4" d="M135.93,3.72c-.66-1.38-2.77-1.43-3.93-.44-1.16.99-1.15,3.36-1.09,4.88.25,6.27.01,10.64.45,16.36-3.72-5.35-5.97-11.71-6.43-18.21-.1-1.44-1.34-3.21-2.7-3.7-1.15-.42-2.44.48-2.92,1.61-.48,1.13-.38,2.41-.32,3.63.44,9.74-.67,23.24-.32,32.89-8.31.94-23.57,1.43-31.92,1.17-1.4-.01-1.79,2.2-.78,3.18s2.57,1,3.97.96c8.26-.21,22.02-.43,30.27-.64,1.17-.03,3.51-.15,4.19-1.09.49-.67.48-1.57.46-2.41-.18-5.92-.36-15.84-.54-21.77,3.02,4.86,5.02,14.35,5.82,20.01.18,1.28.33,2.63,1.08,3.69.75,1.05,2.35,1.63,3.37.83.82-.65.91-1.83.93-2.87.22-10.77.44-25.54.66-36.31.01-.6.02-1.22-.24-1.76Z"/>
            <path class="cls-3" d="M136.38,3.46c-.72-1.44-2.61-1.65-3.95-1.06-1.55.68-1.94,2.38-2.04,3.92-.05.84,0,1.68.02,2.51.04,1.07.06,2.14.08,3.22.03,1.94.04,3.89.06,5.83.03,2.21.11,4.43.28,6.64l.98-.26c-2.59-3.73-4.45-7.93-5.5-12.34-.26-1.09-.47-2.19-.62-3.3-.08-.55-.14-1.11-.19-1.67-.05-.52-.06-1.04-.22-1.54-.52-1.7-2.27-3.86-4.28-3.35-.95.24-1.76,1-2.15,1.89-.48,1.1-.47,2.31-.41,3.48.09,2,.13,4.01.12,6.01,0,4.41-.17,8.81-.3,13.21-.13,4.22-.25,8.45-.16,12.68.01.47.02.94.04,1.41l.52-.52c-3.04.34-6.09.55-9.14.73-3.55.2-7.11.34-10.66.42-3.28.08-6.55.12-9.83.07-.69-.01-1.37-.02-2.06-.05-.72-.02-1.32.22-1.72.84-.38.58-.45,1.34-.31,2,.16.78.69,1.38,1.38,1.76,1.5.82,3.37.58,5.01.54s3.22-.07,4.83-.11c3.67-.08,7.33-.15,11-.22s6.96-.14,10.44-.22c1.43-.03,2.88,0,4.3-.18.75-.09,1.52-.23,2.2-.59.79-.43,1.14-1.23,1.24-2.1.1-.81.02-1.64,0-2.46s-.04-1.57-.06-2.36c-.05-1.78-.09-3.56-.13-5.34-.08-3.56-.16-7.11-.25-10.67-.02-.72-.04-1.45-.06-2.17l-.98.26c1.04,1.68,1.79,3.53,2.43,5.39.74,2.16,1.34,4.37,1.86,6.59.48,2.08.89,4.17,1.23,6.27.17,1.03.28,2.07.47,3.1.23,1.2.68,2.4,1.69,3.15.86.64,2.09.91,3.07.37,1.06-.59,1.33-1.84,1.4-2.95s.05-2.24.08-3.36c.02-1.19.05-2.38.07-3.57.09-5.12.18-10.25.27-15.37s.19-9.75.27-14.63c.01-.67-.03-1.31-.31-1.93-.12-.26-.49-.32-.72-.19-.27.16-.3.46-.19.72.24.53.17,1.16.16,1.72s-.02,1.09-.03,1.64c-.02,1.14-.04,2.29-.07,3.43-.05,2.44-.09,4.87-.13,7.31-.09,5.01-.17,10.01-.26,15.02-.04,2.32-.08,4.65-.13,6.97-.01.55-.02,1.09-.03,1.64-.01.51-.02,1.02-.15,1.52-.11.43-.3.86-.69,1.09-.36.22-.77.23-1.17.12-1.03-.28-1.61-1.17-1.9-2.14-.31-1.04-.4-2.15-.56-3.23-.31-2.01-.68-4-1.12-5.98-.48-2.17-1.03-4.33-1.71-6.45-.61-1.93-1.32-3.84-2.26-5.64-.2-.39-.42-.77-.65-1.14-.26-.43-.99-.27-.98.26.1,3.28.17,6.56.25,9.84.08,3.43.15,6.85.25,10.28.02.76.07,1.52.06,2.28,0,.41-.04.85-.22,1.23-.09.18-.13.25-.23.34-.06.06-.09.08-.09.08-.07.05-.14.09-.21.13-.53.29-1.27.41-1.91.48-.66.07-1.32.08-1.97.1-3.24.08-6.48.15-9.72.21-3.6.07-7.2.14-10.79.21-3.18.06-6.35.16-9.53.21-.84.01-1.72,0-2.51-.3-.34-.13-.67-.34-.91-.61-.01-.01-.03-.03-.07-.09-.04-.06-.08-.13-.11-.19-.02-.05-.02-.05-.05-.13-.03-.08-.04-.16-.06-.24-.04-.19-.03-.55.02-.74.02-.07.04-.14.06-.21.03-.07,0,0,.04-.09.03-.06.07-.12.1-.18.05-.08,0-.03.09-.11.02-.02.16-.13.08-.07.05-.04.11-.07.17-.1-.09.04.09-.02.11-.02.02,0,.1-.01.02,0,.05,0,.09,0,.14,0,.31,0,.63.02.94.03,3.07.07,6.14.05,9.21,0,3.47-.06,6.94-.18,10.41-.35,3.14-.15,6.28-.35,9.4-.64.64-.06,1.29-.13,1.93-.2.27-.03.54-.22.52-.52-.15-4.04-.05-8.09.06-12.12.12-4.32.29-8.64.34-12.96.03-2,.03-4-.02-6-.03-1-.1-2.01-.11-3.01s.05-2.08.71-2.84c.51-.58,1.29-.99,2.04-.63.8.38,1.41,1.13,1.81,1.91.44.87.41,1.82.52,2.78.13,1.1.3,2.19.52,3.28.89,4.34,2.57,8.54,4.93,12.29.29.46.59.92.9,1.36.27.39,1.02.3.98-.26-.28-3.66-.28-7.33-.32-11.01-.02-1.92-.09-3.84-.14-5.76-.02-.72-.02-1.45.09-2.16.1-.62.27-1.32.68-1.77.44-.48,1.13-.7,1.77-.69s1.22.27,1.51.86,1.21.07.91-.53Z"/>
          </g>
          <g>
            <path class="cls-1" d="M96.52,85.09c8.36.27,9.11-.22,17.42-1.16-.35-9.65.75-19.15.32-28.89-.06-1.23-.16-2.5.32-3.63s1.77-2.03,2.92-1.61c1.35.49,1.6,2.27,1.7,3.7.46,6.5,2.71,12.86,6.43,18.21-.43-5.72-.2-10.09-.45-16.36-.06-1.52-.07-3.89,1.09-4.88s3.27-.93,3.93.44c.26.54.25,1.16.24,1.76-.22,10.77-.44,21.54-.66,32.31-.02,1.04-.11,2.23-.93,2.87-1.02.8-2.62.22-3.37-.83s-.89-2.41-1.08-3.69c-.8-5.66-2.8-11.15-5.82-16.01.18,5.92.36,11.84.54,17.76.03.83.03,1.73-.46,2.41-.68.95-2.02,1.06-3.19,1.09-8.26.21-7.51.43-15.77.64-1.4.04-2.96.01-3.97-.96s-.62-3.19.78-3.18"/>
            <path class="cls-3" d="M96.52,85.62c2.4.08,4.81.13,7.21-.02,1.9-.11,3.78-.36,5.67-.6,1.51-.19,3.03-.38,4.55-.55.27-.03.54-.22.52-.52-.15-4.27-.03-8.55.13-12.82.16-4.28.34-8.57.28-12.85-.01-1.07-.04-2.15-.09-3.22-.04-.94-.13-1.92.09-2.84.18-.75.59-1.4,1.28-1.77.57-.31,1.23-.25,1.68.2s.62,1.14.73,1.77c.14.79.15,1.59.24,2.39.2,1.9.55,3.78,1.04,5.63.98,3.67,2.52,7.2,4.57,10.41.25.4.51.79.78,1.17s1.02.3.98-.26c-.21-2.77-.27-5.54-.3-8.32-.01-1.4-.02-2.8-.05-4.2s-.09-2.9-.12-4.35c-.02-1.06-.02-2.21.39-3.21.35-.84,1.16-1.31,2.06-1.32.43,0,.82.08,1.18.33.38.27.56.77.59,1.3.04.76-.01,1.53-.03,2.29-.02.84-.03,1.67-.05,2.51-.13,6.55-.27,13.1-.4,19.66-.03,1.62-.07,3.24-.1,4.86-.02.82-.03,1.64-.05,2.46-.01.7,0,1.4-.07,2.09-.05.51-.16,1.08-.52,1.47-.31.34-.75.46-1.18.41-1.2-.14-1.9-1.21-2.2-2.28-.19-.67-.28-1.36-.38-2.05s-.21-1.4-.35-2.1c-.27-1.43-.63-2.86-1.05-4.25-.85-2.81-2-5.53-3.42-8.1-.35-.63-.71-1.24-1.09-1.85-.27-.43-.99-.27-.98.26.12,4.04.25,8.08.37,12.12.06,1.99.15,3.99.18,5.98,0,.72-.03,1.52-.6,2.02-.49.43-1.22.54-1.84.58-.88.07-1.76.06-2.64.09-.74.02-1.47.05-2.21.08-1.07.04-2.13.1-3.2.16-2.36.13-4.72.25-7.08.32-.86.03-1.72.08-2.58.03-.72-.04-1.45-.16-2.06-.57-.26-.17-.41-.33-.53-.57-.08-.16-.15-.45-.16-.62-.03-.49.09-.89.39-1.18.1-.1.27-.15.43-.15.67,0,.68-1.06,0-1.05-1.44.02-2.04,1.56-1.81,2.8.3,1.66,2.07,2.26,3.55,2.37.91.07,1.83,0,2.74-.02.83-.02,1.67-.05,2.5-.08,1.16-.04,2.32-.1,3.48-.17,2.55-.14,5.1-.26,7.65-.33,1.58-.04,3.65.04,4.59-1.51.47-.79.46-1.75.43-2.64-.03-1.06-.07-2.12-.1-3.19-.13-4.3-.26-8.6-.4-12.91-.02-.52-.03-1.04-.05-1.57l-.98.26c1.62,2.6,2.94,5.38,3.94,8.28.49,1.44.91,2.91,1.24,4.39.33,1.46.51,2.94.77,4.42.23,1.36.71,2.75,1.91,3.53,1.04.68,2.54.79,3.44-.19.95-1.03.86-2.58.88-3.88.03-1.71.07-3.42.1-5.12.14-6.83.28-13.66.42-20.49.03-1.71.07-3.42.1-5.12.02-.78.11-1.63-.14-2.38-.19-.57-.56-1.05-1.08-1.36-.98-.57-2.27-.49-3.25.04-1.05.56-1.52,1.67-1.7,2.8-.2,1.25-.12,2.51-.08,3.78.05,1.55.08,3.1.1,4.65.03,2.85.03,5.71.18,8.56.04.74.08,1.48.14,2.22l.98-.26c-2.22-3.2-3.92-6.75-5.01-10.5-.54-1.84-.94-3.73-1.17-5.64-.11-.89-.15-1.79-.26-2.68-.1-.78-.25-1.58-.68-2.26s-1.13-1.15-1.95-1.2-1.67.39-2.23.99c-1.42,1.51-1.09,3.76-1.02,5.65.16,4.41.02,8.83-.14,13.24s-.34,8.82-.25,13.23c.01.55.03,1.1.05,1.65l.52-.52c-4.28.49-8.53,1.2-12.85,1.23-1.52.01-3.05-.02-4.57-.07-.67-.02-.67,1.03,0,1.05h0Z"/>
          </g>
          <g>
            <path class="cls-7" d="M138.62,66.7c.17-.59.38-1.17.61-1.74,1.17-2.84,3.16-5.3,5.75-6.96,1.31-.84,2.75-1.46,4.24-1.86,1.41-.38,2.92-.09,4.18-.94.31-.21.6-.47.79-.8s.27-.73.17-1.09c-.09-.33-.35-.87-.57-1.13-.67-.76-1.16-.97-2.16-1.22-.76-.19-1.56-.26-2.35-.27-2.56-.01-5.19.84-7.43,2.05-4.8,2.6-8.48,7.41-9.3,12.86-1.18,7.78,3.58,16.06,10.89,18.95,5.21,2.06,11.7,1.29,15.63-2.7,1.08-1.09,1.99-2.53,1.86-4.06-.13-1.53-1.73-2.95-3.17-2.42-.78.29-1.29,1.02-1.88,1.62-2.98,3.02-8.01,2.44-11.98.93-1.95-.74-3.94-1.75-5.03-3.52-1.39-2.25-1-5.16-.26-7.7Z"/>
            <path class="cls-3" d="M139.12,66.84c.66-2.24,1.78-4.33,3.36-6.06,1.61-1.75,3.64-3.07,5.9-3.84.55-.19,1.12-.36,1.69-.44s1.21-.11,1.81-.2c1.15-.18,2.43-.77,2.89-1.92.44-1.08-.23-2.29-1.04-3s-1.9-.97-2.94-1.11c-2.62-.36-5.26.23-7.66,1.27-2.07.89-3.97,2.16-5.6,3.71-3.15,2.99-5.27,7.07-5.63,11.42-.33,4.07.88,8.23,3.14,11.61,2.29,3.41,5.67,6.11,9.65,7.26,4.06,1.18,8.7.8,12.35-1.41.9-.54,1.74-1.2,2.47-1.96.83-.85,1.56-1.89,1.84-3.06s.07-2.28-.68-3.2c-.66-.82-1.72-1.32-2.77-1.11-1.14.23-1.78,1.27-2.57,2.01-.68.64-1.52,1.11-2.41,1.4-1.93.63-4.04.5-6,.07-1.03-.23-2.04-.54-3.03-.92s-2.03-.87-2.93-1.51c-.86-.62-1.59-1.44-2.01-2.42-.44-1.02-.53-2.15-.47-3.24s.32-2.26.64-3.35c.19-.65-.82-.93-1.01-.28-.63,2.17-1.05,4.61-.3,6.81.75,2.18,2.58,3.59,4.62,4.51,1.91.87,3.95,1.48,6.04,1.72,1.99.23,4.07.06,5.88-.85.91-.46,1.66-1.11,2.35-1.86.63-.69,1.36-1.39,2.33-.96.77.34,1.34,1.16,1.38,2,.05,1.08-.47,2.1-1.14,2.92-2.59,3.17-6.89,4.49-10.86,4.27-3.96-.22-7.64-2.01-10.4-4.83-2.69-2.75-4.53-6.42-5-10.26-.24-1.95-.14-3.94.35-5.84.51-2.01,1.43-3.9,2.63-5.59,2.53-3.56,6.44-6.23,10.73-7.11,1.23-.25,2.49-.33,3.73-.2.91.1,1.95.3,2.61.91.33.31.56.63.72,1.07.18.5,0,.92-.38,1.26-.83.77-2.02.78-3.08.9-1.23.13-2.39.52-3.53,1.01-1.08.47-2.11,1.07-3.05,1.78-1.79,1.36-3.26,3.1-4.32,5.08-.55,1.04-.99,2.13-1.32,3.26-.19.65.82.93,1.01.28Z"/>
          </g>
          <g>
            <path class="cls-9" d="M66.21,75.85c.1-.61.23-1.21.39-1.8.81-2.96,2.48-5.65,4.85-7.62,1.19-.99,2.55-1.78,3.98-2.37,1.35-.55,2.88-.45,4.03-1.45.29-.25.54-.54.69-.89s.18-.76.03-1.11c-.14-.32-.45-.82-.71-1.05-.76-.67-1.27-.82-2.29-.94-.78-.09-1.58-.07-2.36.02-2.54.31-5.05,1.47-7.12,2.95-4.44,3.18-7.5,8.4-7.64,13.91-.21,7.86,5.53,15.49,13.15,17.46,5.42,1.41,11.77-.17,15.18-4.61.94-1.22,1.66-2.76,1.34-4.26s-2.08-2.71-3.44-2.01c-.74.38-1.16,1.17-1.66,1.84-2.58,3.37-7.65,3.41-11.78,2.4-2.03-.5-4.12-1.25-5.43-2.87-1.66-2.06-1.63-5-1.21-7.61Z"/>
            <path class="cls-3" d="M66.72,75.99c.39-2.37,1.26-4.63,2.67-6.59s3.3-3.48,5.46-4.51c.54-.26,1.08-.47,1.66-.62.54-.13,1.09-.23,1.62-.39,1.11-.34,2.36-1.1,2.62-2.32.25-1.16-.6-2.25-1.52-2.85s-2.13-.69-3.18-.68c-2.58.03-5.09.93-7.29,2.24-1.97,1.17-3.72,2.69-5.15,4.48-2.78,3.48-4.39,7.92-4.04,12.4.32,4.16,2.17,8.11,5,11.16s6.69,5.14,10.87,5.59c4.15.44,8.55-.7,11.72-3.48.82-.71,1.56-1.54,2.14-2.46.65-1.03,1.14-2.28,1.01-3.52-.12-1.08-.69-2.03-1.62-2.61-.86-.55-2-.66-2.87-.07-.9.6-1.34,1.64-2.09,2.4-.64.65-1.41,1.16-2.25,1.5-1.84.75-3.9.83-5.85.63-1-.1-1.99-.3-2.97-.55-1.08-.28-2.15-.63-3.12-1.18s-1.73-1.28-2.26-2.24-.73-2.02-.78-3.08.04-2.18.21-3.26c.04-.28-.07-.56-.37-.64-.25-.07-.6.08-.64.37-.35,2.2-.47,4.55.44,6.64.92,2.13,2.91,3.36,5.05,4.06,1.93.64,3.99,1.01,6.02,1.03,1.95.02,3.97-.31,5.68-1.3.85-.49,1.59-1.15,2.19-1.94.51-.67,1.04-1.73,1.97-1.78.81-.04,1.58.53,1.96,1.24.49.91.26,2.06-.16,2.95-.86,1.84-2.48,3.32-4.2,4.35s-3.61,1.64-5.56,1.87c-3.99.48-7.95-.61-11.2-2.96-3.18-2.3-5.58-5.71-6.68-9.48-.55-1.9-.76-3.88-.59-5.85.19-2.11.83-4.18,1.79-6.06,2.03-3.93,5.55-7.18,9.74-8.66,1.14-.4,2.33-.67,3.54-.72.97-.04,2.15-.03,2.97.5.39.25.68.57.91.98.25.45.2.88-.12,1.29-.68.88-1.82,1.08-2.83,1.3-2.32.52-4.5,1.86-6.21,3.48s-2.91,3.48-3.75,5.58c-.45,1.12-.76,2.29-.95,3.48-.05.28.07.56.37.64.25.07.6-.09.64-.37Z"/>
          </g>
          <g>
            <path class="cls-5" d="M22.52,61.78c-1.79.27-2.47.05-4.21.29.39-3.04.3-6.12.22-9.18-.14-5.1-.29-7.71-.43-12.81-.03-1.02.09-2.28,1.03-2.67.28-.12.58-.13.88-.15.62-.03,1.24-.06,1.86-.09.15,0,.31,0,.42.09.11.1.13.25.14.4.42,4.42.36,6.36.29,10.8-.07,4.44-.14,8.88-.21,13.32"/>
            <path class="cls-3" d="M22.39,61.27c-1.4.2-2.81.1-4.21.29l.66.51c.47-3.73.28-7.52.16-11.27-.1-3.06-.23-6.12-.32-9.18-.02-.79-.1-1.59-.02-2.38.05-.5.19-1.11.65-1.33.35-.16.8-.12,1.17-.14.47-.02.93-.05,1.4-.07.11,0,.21.05.09-.06s-.05.03-.04.12c.02.23.04.46.06.7.04.43.07.86.1,1.28.22,3.04.15,6.09.1,9.13-.06,3.82-.12,7.63-.18,11.45l-.02,1.46c-.01.67,1.04.68,1.05,0,.06-3.99.12-7.98.18-11.97.05-3.24.15-6.49-.06-9.73-.06-.88-.08-1.8-.23-2.68-.09-.5-.5-.76-.98-.76s-.98.05-1.47.07c-.83.04-1.7.05-2.27.75-.46.58-.6,1.33-.63,2.05-.04.85.03,1.71.06,2.56s.05,1.66.08,2.49c.06,1.53.11,3.07.17,4.6.13,3.79.36,7.62.05,11.4-.04.5-.09.99-.15,1.49-.05.38.37.54.66.51.67-.09,1.34-.11,2.02-.12.74-.01,1.46-.07,2.19-.17.28-.04.43-.4.37-.64-.08-.3-.36-.41-.64-.37h0Z"/>
          </g>
          <g>
            <path class="cls-7" d="M16.31,62.07c-2.38-.49-4.53-2.33-5.4-4.59-.87-2.27-.51-4.96.93-6.92,1.09-1.48,2.94-2.55,4.74-2.16-.13,4.56-.21,9.11-.26,13.67"/>
            <path class="cls-3" d="M16.45,61.56c-2.29-.49-4.35-2.23-5.12-4.46-.8-2.33-.27-5.17,1.52-6.92.93-.91,2.26-1.56,3.58-1.29l-.38-.51c-.1,3.55-.17,7.1-.22,10.65-.01,1.01-.03,2.02-.04,3.03,0,.67,1.04.68,1.05,0,.04-3.55.1-7.1.18-10.65.02-1.01.05-2.02.08-3.03,0-.22-.17-.46-.38-.51-3-.62-5.57,1.91-6.42,4.58s-.15,5.82,1.89,7.88c1.08,1.09,2.48,1.9,3.99,2.22.66.14.94-.87.28-1.01h0Z"/>
          </g>
          <g>
            <path class="cls-6" d="M32.14,54.44c3.88-.81,7.76-1.62,11.63-2.43.15-.03.3-.06.41-.17.23-.23.11-.62-.03-.91-.67-1.42-1.38-2.83-2.36-4.06-.98-1.23-2.25-2.27-3.75-2.72-.54-.17-1.11-.25-1.67-.32-1.3-.16-2.62-.23-3.91-.02-1.8.29-3.52,1.14-4.8,2.44-1.28,1.3-2.12,3.05-2.26,4.87-.05.69,0,1.38.06,2.07.09.93.24,1.86.55,2.74,1.02,2.87,3.76,4.85,6.67,5.75.44.13.88.25,1.34.26.43.01,1.45.08,1.88,0,1.35-.26,2.65-.54,3.89-1.13s1.82-1.66,2.48-2.86c-.85-.81-1.72-1.6-2.62-2.36-.1-.09-.22-.18-.35-.18-.12,0-.23.08-.33.16-.93.72-1.96,1.34-3.1,1.6s-2.43.1-3.35-.63c-.62-.49-.87-1.49-.38-2.12"/>
            <path class="cls-3" d="M32.28,54.94c2.52-.52,5.03-1.05,7.55-1.57,1.24-.26,2.48-.52,3.72-.78.58-.12,1.2-.28,1.27-.98.05-.52-.25-1.01-.47-1.46-.98-2.03-2.14-4.01-3.98-5.39-.88-.66-1.89-1.11-2.97-1.31-1.21-.23-2.47-.34-3.7-.29-2.23.09-4.38.87-6.05,2.36-1.61,1.43-2.64,3.49-2.79,5.64-.09,1.23.06,2.53.31,3.74.21,1.02.59,2,1.16,2.88,1.07,1.65,2.69,2.91,4.46,3.73.96.45,2.01.87,3.07.95.85.06,1.7.08,2.54-.08,1.16-.23,2.3-.51,3.38-.99.94-.41,1.65-1.08,2.21-1.94.26-.4.49-.82.71-1.23.11-.2.09-.47-.08-.64-.74-.71-1.49-1.4-2.27-2.07-.38-.33-.77-.74-1.31-.58-.22.06-.39.22-.56.35-.19.14-.39.28-.59.41-1.34.88-3.14,1.53-4.67.69-.32-.18-.61-.4-.74-.75s-.11-.65.11-.94c.17-.23.04-.59-.19-.72-.27-.16-.55-.04-.72.19-.52.71-.38,1.72.13,2.4.56.74,1.53,1.1,2.42,1.21s1.86-.04,2.72-.39c.46-.19.9-.41,1.32-.68.2-.13.4-.26.6-.41.1-.07.19-.14.29-.22.04-.03.09-.06.13-.1.06-.05.1-.03.02-.04-.14-.03.17.19.2.22.11.1.23.2.34.3.23.2.45.4.68.6.46.41.92.84,1.36,1.27l-.08-.64c-.41.75-.81,1.52-1.44,2.11-.71.66-1.72.95-2.63,1.2-.52.14-1.04.25-1.57.36-.12.03-.25.05-.37.07-.01,0-.16.02-.05.01-.04,0-.07,0-.11,0-.19.01-.38.01-.57,0-.38,0-.77-.02-1.15-.04-.5-.03-1-.2-1.47-.36-1.64-.56-3.19-1.48-4.38-2.76-.58-.62-1.07-1.34-1.41-2.13-.42-.96-.58-2.01-.68-3.04s-.13-2.14.15-3.18c.24-.93.67-1.79,1.23-2.56,1.13-1.54,2.88-2.57,4.73-2.98,1.07-.24,2.18-.24,3.27-.16,1.05.08,2.14.19,3.12.61,1.83.8,3.11,2.42,4.08,4.11.26.46.51.94.75,1.42.12.24.23.48.35.72.04.08.07.15.1.23.01.05.02.1.04.14.08.24-.1-.08.02,0,.02.01-.03-.12.05-.02,0,0-.16.04-.14.04-.13.03-.25.05-.38.08l-.92.19-1.73.36-6.94,1.45-1.73.36c-.28.06-.44.38-.37.64.08.29.37.42.64.37h0Z"/>
          </g>
          <path class="cls-3" d="M161.15,41.08c-2.6-1.7-6.13-2.41-9.17-1.78-.4.08-.83.2-1.12.49-.27.27-.38.65-.46,1.02-.42,2.02.12,4.18,1.27,5.89.32.47.69.92,1.17,1.21.54.32,1.17.44,1.79.49,1.62.15,3.4-.13,4.51-1.31.84-.89,1.14-2.14,1.51-3.31.13-.41.28-.83.6-1.11.55-.47,1.37-.37,2.08-.23.35,1.9,1.19,3.78,2.7,4.99s3.75,1.6,5.41.62c.58-.34,1.07-.83,1.41-1.41.39-.66.58-1.42.75-2.17.26-1.12.5-2.27.29-3.4-.08-.41-.22-.81-.5-1.11-.25-.27-.59-.43-.93-.54-1.12-.37-2.33-.3-3.5-.2-.9.08-1.8.17-2.7.28-1.06.13-2.23.34-2.88,1.18-.12.15-.07.1-.07.1-.14.06-.61.19-.76.18-.46-.02-.93.14-1.4.12"/>
          <path class="cls-3" d="M169.69,58.78c-3.03-1.53-6.06-3.06-9.1-4.56-.91-.45-1.83-.91-2.74-1.36-.25-.13-.57-.07-.72.19-.14.23-.07.59.19.72,3.04,1.5,6.08,3.02,9.11,4.54.91.46,1.82.92,2.73,1.38.6.3,1.13-.6.53-.91h0Z"/>
          <g>
            <path class="cls-9" d="M38.33,73.14c0-2.43.4-4.85.63-7.27.02-.21.03-.46-.12-.61-.12-.12-.3-.15-.46-.17-1.77-.23-3.57-.26-5.35-.12.05,7.89.33,8.33.02,16.21-.05,1.21.04,3.98.1,5.2.12,2.18.14,3.63.09,5.81,4.27-.44,8.59-.43,12.86.04.19.02.4.03.54-.09.13-.12.15-.32.15-.5.03-1.34.06-2.68.09-4.01-2.71,0-5.42-.15-8.11-.45q-.44-6.79-.43-14.03Z"/>
            <path class="cls-3" d="M38.85,73.14c0-1.94.26-3.86.47-5.79.05-.48.11-.95.15-1.43.04-.42-.02-.85-.38-1.12s-.9-.26-1.34-.31c-.48-.05-.96-.08-1.44-.11-1.1-.05-2.2-.03-3.29.06-.28.02-.53.22-.52.52.02,3.29.15,6.57.16,9.86,0,1.78-.04,3.56-.1,5.35-.06,1.73-.05,3.45.02,5.18.04,1.03.1,2.06.13,3.1.04,1.24.03,2.49,0,3.73,0,.26.25.55.52.52,2.46-.25,4.94-.36,7.41-.31,1.24.02,2.47.08,3.7.18.61.05,1.21.13,1.82.17.64.05,1.08-.34,1.14-.97s.03-1.34.05-2.01c.02-.72.03-1.44.05-2.16,0-.28-.25-.52-.52-.52-2.71,0-5.42-.16-8.11-.45l.52.52c-.22-3.38-.42-6.75-.43-10.14,0-1.3,0-2.59,0-3.89,0-.67-1.05-.68-1.05,0,0,3.46,0,6.91.2,10.37.07,1.22.15,2.44.23,3.66.02.31.23.49.52.52,2.69.29,5.4.44,8.11.45l-.52-.52c-.02,1.17-.05,2.33-.07,3.5,0,.05-.01.69-.03.68,0,0,.07-.08.07-.08-.01-.02-.07,0-.07,0-.11-.04-.29-.03-.4-.04-.58-.06-1.16-.11-1.74-.16-2.31-.18-4.63-.22-6.95-.13-1.3.05-2.61.14-3.91.28l.52.52c.04-2.1-.02-4.18-.11-6.27-.07-1.61-.14-3.23-.08-4.84.12-3.27.16-6.53.08-9.81-.05-2.1-.09-4.2-.1-6.29l-.52.52c1.74-.14,3.55-.16,5.28.11.11.02.16.07.13-.02.05.15-.02.4-.03.55-.04.44-.09.89-.14,1.33-.1.89-.21,1.77-.29,2.66-.1,1.01-.17,2.01-.17,3.03,0,.67,1.05.68,1.05,0Z"/>
          </g>
          <g>
            <path class="cls-4" d="M32.4,47.86c.38-.5.11-.92-.15-1.5.13.28.26.58.51.77.28.21.64.25.99.26.57.02,1.2-.01,1.63-.4-.28.04-.49.32-.53.61s.05.57.17.83c.27.62.73,1.21,1.39,1.36-.27.05-.54.02-.81.03s-.56.08-.75.27c-.12.12-.19.27-.25.42-.15.37-.26.75-.31,1.14.19-.25.06-.63-.2-.81s-.59-.2-.9-.18c-.65.04-1.31.24-1.76.7.21-.16.41-.33.55-.54s.23-.48.18-.73c-.05-.23-.2-.43-.35-.6-.32-.35-.69-.66-1.05-.97.29-.01.59-.03.86-.14s.43-.16.8-.51"/>
            <path class="cls-3" d="M32.73,48.05c.45-.64.13-1.27-.15-1.9-.09-.19-.37-.24-.54-.14-.2.11-.23.35-.14.54.15.35.33.68.65.91s.67.28,1.03.3c.73.05,1.49-.01,2.07-.51.32-.27-.03-.74-.38-.66s-.66.38-.77.74c-.14.45,0,.9.19,1.31.31.69.85,1.31,1.61,1.5v-.76c-.62.09-1.28-.09-1.77.43-.4.43-.55,1.15-.64,1.71-.07.43.46.7.72.3.21-.33.17-.75-.05-1.07-.26-.37-.7-.5-1.12-.52-.82-.03-1.71.24-2.3.82-.37.37.17.86.56.56.54-.42,1.04-1.06.79-1.78-.23-.67-.94-1.18-1.47-1.62l-.28.67c.76-.04,1.38-.25,1.94-.77.37-.34-.18-.9-.56-.56-.41.37-.84.51-1.38.54-.31.01-.56.44-.28.67.41.34.88.69,1.18,1.13.33.48-.15.88-.51,1.16l.56.56c.35-.35.84-.52,1.32-.57.18-.02,1.19-.04.92.38l.72.3c.04-.24.09-.48.16-.71.06-.21.13-.49.28-.66.13-.15.36-.17.55-.18.29-.01.58,0,.87-.04.4-.06.35-.67,0-.76-.46-.12-.77-.46-1-.86-.15-.27-.54-1.06-.03-1.18l-.38-.66c-.38.33-.96.31-1.43.28-.23-.01-.48-.03-.67-.17-.21-.15-.31-.43-.41-.65l-.68.4c.17.37.42.73.15,1.11-.29.41.39.81.68.4h0Z"/>
          </g>
          <g>
            <path class="cls-1" d="M73.28,14.68c-.74.81-.75,2.06-.46,3.12.21.79.59,1.57,1.25,2.05.64.46,1.5.58,2.27.38s1.43-.72,1.88-1.37c.79-1.12.88-2.8-.06-3.79-.59-.62-1.47-.9-2.32-.91-1.02-.02-1.9-.1-2.55.53"/>
            <path class="cls-3" d="M72.91,14.31c-1.01,1.15-.94,2.86-.41,4.21.29.73.71,1.38,1.37,1.82s1.55.58,2.35.44c1.48-.26,2.7-1.55,3.03-2.98s-.16-2.99-1.51-3.7c-.8-.42-1.66-.47-2.54-.48s-1.65.11-2.29.69c-.5.46.24,1.2.74.74.37-.34.86-.38,1.34-.39.59,0,1.2-.01,1.77.16.51.15.98.46,1.25.92.26.43.33.94.28,1.44-.09,1.05-.82,2.03-1.79,2.44-.54.22-1.15.24-1.7.04s-.9-.63-1.15-1.12c-.51-.99-.8-2.56,0-3.48.19-.21.21-.53,0-.74-.19-.19-.55-.21-.74,0h0Z"/>
          </g>
          <g>
            <path class="cls-1" d="M81.98,14.55c-.65,1.02-.81,2.34-.4,3.48.21.58.56,1.13,1.07,1.48s1.18.5,1.76.3c.44-.15.8-.46,1.12-.8.58-.61,1.08-1.32,1.28-2.13s.06-1.74-.5-2.36c-.59-.65-1.54-.86-2.42-.81-.44.03-.81,0-1.13.14-.4.19-.49.3-.85.8"/>
            <path class="cls-3" d="M81.53,14.28c-.79,1.26-.91,2.87-.31,4.24.6,1.38,2.15,2.35,3.62,1.68.68-.31,1.21-.93,1.65-1.52s.75-1.2.87-1.89.04-1.44-.29-2.09-.93-1.08-1.61-1.32c-.73-.25-1.58-.25-2.34-.16-.35.04-.68.16-.97.37s-.49.51-.7.79c-.17.23-.04.58.19.72.27.16.55.04.72-.19.25-.34.4-.58.83-.65.25-.04.52-.03.78-.04s.53,0,.79.05c.47.09.95.29,1.25.69s.39.89.36,1.37c-.06,1.04-.84,2.11-1.65,2.72-.91.69-1.96.12-2.45-.77-.59-1.08-.47-2.44.17-3.47.36-.57-.55-1.1-.91-.53h0Z"/>
          </g>
          <path class="cls-3" d="M79.03,17.96c.67.01,1.36-.09,1.99-.32.19-.07.34-.27.27-.48-.06-.19-.28-.35-.48-.27-.3.1-.6.18-.91.23-.04,0-.08.01-.12.02.07,0-.01,0-.04,0-.08,0-.15.02-.23.02-.16.01-.32.01-.48.01-.21,0-.4.18-.39.39s.17.39.39.39h0Z"/>
          <path class="cls-3" d="M63.14,9.55c.62-1.22,2.93-.53,2.79.83-.14,1.36-3.2,1.53-2.79-.83"/>
        </g>
        <circle class="cls-3" cx="43.23" cy="11.15" r=".6"/>
        <circle class="cls-3" cx="75.76" cy="16.99" r=".65"/>
        <circle class="cls-3" cx="84.22" cy="16.56" r=".65"/>
        <circle class="cls-3" cx="47.32" cy="78.53" r=".65"/>
      </g>
      <ellipse class="cls-3" cx="107.6" cy="28.35" rx=".83" ry=".87"/>
    </g>
  </g>
</svg>