<?xml version="1.0" encoding="UTF-8"?>
<svg id="Capa_1" xmlns="http://www.w3.org/2000/svg" xmlns:xlink="http://www.w3.org/1999/xlink" version="1.1" viewBox="0 0 640 280">
  <!-- Generator: Adobe Illustrator 29.3.1, SVG Export Plug-In . SVG Version: 2.1.0 Build 151)  -->
  <defs>
    <style>
      .st0 {
        fill: none;
      }

      .st1 {
        clip-path: url(#clippath-1);
      }

      .st2 {
        fill: #fff;
      }

      .st3 {
        fill: #35bdef;
      }

      .st4 {
        fill: #4e8cca;
      }

      .st5 {
        clip-path: url(#clippath);
      }
    </style>
    <clipPath id="clippath">
      <path class="st0" d="M656.3,203.7c-6-8.5-35.3-20.5-29.2-33.4-25.3-1-50.5-9.2-75.6-6.4-18.2,2-32.4,8.5-48.7,16.7-30.7,15.5-62.6,22.5-96.9,16.4-27.2-4.9-52.9-16.2-79.1-23.8s-52.4-2.6-74.6,6.4-46,27-73.5,29.4c-42.2,3.6-94.2-9.3-115.5-46.3-2.4,12.1-3.1,25.3-3.9,37.8-.6,10.5-6.3,33.1-1.5,42.8,11.7,23.6,89.8,4.1,111.6,2.6,125.7-8.7,251.8-12.9,378-12.9s51.1-.8,77.2-10.3c9.6-3.5,28.2-7.9,31.8-18.8Z"/>
    </clipPath>
    <clipPath id="clippath-1">
      <path class="st0" d="M64,145.7c21.4,37,73.3,50,115.5,46.3,27.4-2.4,48.7-19.4,73.5-29.4,22.3-8.9,50.7-13.3,74.6-6.4,26.3,7.6,52,18.9,79.1,23.8,34.3,6.2,66.2-.9,96.9-16.4,16.3-8.2,30.5-14.7,48.7-16.7,25.1-2.8,50.4,5.4,75.6,6.4,26.6,1,84.2,6.8,98.4-22.6,14.5-29.9-18.4-59.6-42.8-69.7-56.8-23.4-122.6-33.5-183.8-33.7-84.6-.4-170.2-6.6-254.5-13.2-38.6-3-70.6,8.5-106.4,21.5-26.1,9.5-59.1,19.9-82,35.7-11.1,7.6-22.6,19.7-20.1,34.7,2.5,15,20.3,32.7,27.2,39.6Z"/>
    </clipPath>
  </defs>
  <g>
    <path class="st2" d="M14.5,265.1v-17.9c0-.2,0-.3.3-.3h6.2c1.7,0,3.1.5,4.1,1.4,1,.9,1.5,2.1,1.5,3.7v8.2c0,1.6-.5,2.8-1.5,3.7-1,.9-2.4,1.4-4.1,1.4h-6.2c-.2,0-.3,0-.3-.3ZM16.4,263.7h4.6c1.1,0,2-.3,2.7-1,.7-.7,1-1.6,1-2.7v-7.7c0-1.1-.3-2-1-2.7-.7-.7-1.6-1-2.7-1h-4.6c0,0-.1,0-.1.1v14.9c0,0,0,.1.1.1Z"/>
    <path class="st2" d="M40.6,258.3v.8c0,.2,0,.3-.3.3h-8.5c0,0-.1,0-.1.1,0,1,0,1.6.2,1.9.2.8.6,1.4,1.2,1.9.6.5,1.4.7,2.4.7s1.4-.2,1.9-.5c.6-.3,1-.8,1.3-1.4.1-.2.2-.2.4-.1l1,.6c.1,0,.2.2.1.4-.4.8-1.1,1.5-2,2-.9.5-1.9.7-3,.7-1.2,0-2.3-.3-3.1-.9-.8-.6-1.4-1.4-1.8-2.4-.3-.8-.5-2-.5-3.6s0-1.3,0-1.8c0-.5,0-.9.2-1.2.3-1.1.9-2,1.8-2.7.9-.7,2-1,3.3-1s2.8.4,3.7,1.2c.9.8,1.4,1.9,1.6,3.4,0,.5.1,1.1.1,1.8ZM33.1,254.1c-.6.4-.9,1-1.1,1.8-.1.4-.2,1-.2,1.8,0,0,0,.1.1.1h6.8c0,0,.1,0,.1-.1,0-.8,0-1.3-.2-1.7-.2-.8-.6-1.4-1.2-1.9-.6-.5-1.3-.7-2.2-.7s-1.6.2-2.1.7Z"/>
    <path class="st2" d="M58.1,246.9h1.3c.2,0,.3,0,.3.3v17.9c0,.2,0,.3-.3.3h-1.3c-.2,0-.3,0-.3-.3v-1.1s0,0,0,0c0,0,0,0,0,0-.4.5-.9.9-1.4,1.2-.6.3-1.2.4-1.9.4-1.2,0-2.3-.3-3.1-.9-.8-.6-1.4-1.5-1.7-2.6-.2-.8-.4-1.9-.4-3.3s.1-2.5.3-3.3c.3-1.1.9-2,1.7-2.6.8-.6,1.9-1,3.1-1s1.3.1,1.9.4c.6.3,1.1.7,1.4,1.2,0,0,0,0,0,0,0,0,0,0,0,0v-6.2c0-.2,0-.3.3-.3ZM57.7,260.6c0-.5.1-1.1.1-2s0-1.5-.1-2c0-.5-.2-.9-.4-1.3-.2-.6-.6-1.1-1-1.4-.5-.4-1.1-.5-1.7-.5s-1.3.2-1.8.5c-.5.4-.9.8-1.1,1.4-.2.4-.4.8-.5,1.3,0,.5-.1,1.2-.1,2s0,1.5.1,1.9c0,.5.2.9.4,1.2.2.6.6,1.1,1.1,1.5.5.4,1.2.6,1.9.6s1.3-.2,1.8-.6c.5-.4.8-.9,1.1-1.5.2-.4.3-.8.3-1.2Z"/>
    <path class="st2" d="M65.7,264.6c-.9-.6-1.5-1.5-1.9-2.7-.2-.8-.4-1.9-.4-3.2s.1-2.4.4-3.2c.3-1.1,1-2,1.9-2.7.9-.6,2-1,3.3-1s2.3.3,3.2,1c.9.6,1.5,1.5,1.9,2.6.2.8.4,1.8.4,3.2s-.1,2.5-.4,3.2c-.3,1.1-.9,2-1.9,2.7-.9.6-2,1-3.2,1s-2.3-.3-3.3-1ZM71.1,263.2c.6-.5,1-1.1,1.2-1.9.2-.6.2-1.5.2-2.7s0-2-.2-2.7c-.2-.8-.6-1.4-1.2-1.9s-1.3-.7-2.2-.7-1.6.2-2.2.7c-.6.5-1,1.1-1.2,1.9-.1.6-.2,1.5-.2,2.7s0,2,.2,2.7c.2.8.6,1.4,1.2,1.9.6.5,1.3.7,2.2.7s1.6-.2,2.2-.7ZM67.8,250.2c0,0,0-.1,0-.2l1.6-2.9c0-.1.2-.2.3-.2h1.2c.1,0,.2,0,.2,0,0,0,0,.1,0,.2l-1.8,2.9c0,.1-.2.2-.3.2h-.9c-.1,0-.2,0-.2,0Z"/>
    <path class="st2" d="M86.9,253.1c.8.8,1.2,1.9,1.2,3.3v8.7c0,.2,0,.3-.3.3h-1.3c-.2,0-.3,0-.3-.3v-8.3c0-1-.3-1.8-.9-2.4-.6-.6-1.3-.9-2.3-.9s-1.7.3-2.3.9c-.6.6-.9,1.4-.9,2.3v8.4c0,.2,0,.3-.3.3h-1.3c-.2,0-.3,0-.3-.3v-12.8c0-.2,0-.3.3-.3h1.3c.2,0,.3,0,.3.3v1.1s0,0,0,0,0,0,0,0c.8-1.1,2-1.6,3.5-1.6s2.5.4,3.3,1.2Z"/>
    <path class="st2" d="M100.5,246.9h1.3c.2,0,.3,0,.3.3v17.9c0,.2,0,.3-.3.3h-1.3c-.2,0-.3,0-.3-.3v-1.1s0,0,0,0c0,0,0,0,0,0-.4.5-.9.9-1.4,1.2-.6.3-1.2.4-1.9.4-1.2,0-2.3-.3-3.1-.9-.8-.6-1.4-1.5-1.7-2.6-.2-.8-.4-1.9-.4-3.3s.1-2.5.3-3.3c.3-1.1.9-2,1.7-2.6.8-.6,1.9-1,3.1-1s1.3.1,1.9.4c.6.3,1.1.7,1.4,1.2,0,0,0,0,0,0,0,0,0,0,0,0v-6.2c0-.2,0-.3.3-.3ZM100.1,260.6c0-.5.1-1.1.1-2s0-1.5-.1-2c0-.5-.2-.9-.4-1.3-.2-.6-.6-1.1-1-1.4-.5-.4-1.1-.5-1.7-.5s-1.3.2-1.8.5c-.5.4-.9.8-1.1,1.4-.2.4-.4.8-.5,1.3,0,.5-.1,1.2-.1,2s0,1.5.1,1.9c0,.5.2.9.4,1.2.2.6.6,1.1,1.1,1.5.5.4,1.2.6,1.9.6s1.3-.2,1.8-.6c.5-.4.8-.9,1.1-1.5.2-.4.3-.8.3-1.2Z"/>
    <path class="st2" d="M116.6,258.3v.8c0,.2,0,.3-.3.3h-8.5c0,0-.1,0-.1.1,0,1,0,1.6.2,1.9.2.8.6,1.4,1.2,1.9.6.5,1.4.7,2.4.7s1.4-.2,1.9-.5c.6-.3,1-.8,1.3-1.4.1-.2.2-.2.4-.1l1,.6c.1,0,.2.2.1.4-.4.8-1.1,1.5-2,2-.9.5-1.9.7-3,.7-1.2,0-2.3-.3-3.1-.9-.8-.6-1.4-1.4-1.8-2.4-.3-.8-.5-2-.5-3.6s0-1.3,0-1.8c0-.5,0-.9.2-1.2.3-1.1.9-2,1.8-2.7.9-.7,2-1,3.3-1s2.8.4,3.7,1.2c.9.8,1.4,1.9,1.6,3.4,0,.5.1,1.1.1,1.8ZM109.1,254.1c-.6.4-.9,1-1.1,1.8-.1.4-.2,1-.2,1.8,0,0,0,.1.1.1h6.8c0,0,.1,0,.1-.1,0-.8,0-1.3-.2-1.7-.2-.8-.6-1.4-1.2-1.9-.6-.5-1.3-.7-2.2-.7s-1.6.2-2.1.7Z"/>
    <path class="st2" d="M128.6,265.1l-4.3-12.8h0c0-.2,0-.3.2-.3h1.5c.2,0,.3,0,.3.2l3.3,10.3s0,0,0,0,0,0,0,0l3.3-10.3c0-.1.2-.2.3-.2h1.5c.2,0,.3.1.2.3l-4.3,12.8c0,.1-.2.2-.3.2h-1.5c-.2,0-.3,0-.3-.2Z"/>
    <path class="st2" d="M138.3,249.2c-.3-.3-.4-.6-.4-1.1s.1-.8.4-1.1c.3-.3.6-.4,1.1-.4s.8.1,1.1.4c.3.3.4.6.4,1.1s-.1.8-.4,1.1c-.3.3-.6.4-1.1.4s-.8-.1-1.1-.4ZM138.3,265v-12.8c0-.2,0-.3.3-.3h1.3c.2,0,.3,0,.3.3v12.8c0,.2,0,.3-.3.3h-1.3c-.2,0-.3,0-.3-.3Z"/>
    <path class="st2" d="M155,258.3v.8c0,.2,0,.3-.3.3h-8.5c0,0-.1,0-.1.1,0,1,0,1.6.2,1.9.2.8.6,1.4,1.2,1.9.6.5,1.4.7,2.4.7s1.4-.2,1.9-.5c.6-.3,1-.8,1.3-1.4.1-.2.2-.2.4-.1l1,.6c.1,0,.2.2.1.4-.4.8-1.1,1.5-2,2-.9.5-1.9.7-3,.7-1.2,0-2.3-.3-3.1-.9-.8-.6-1.4-1.4-1.8-2.4-.3-.8-.5-2-.5-3.6s0-1.3,0-1.8c0-.5,0-.9.2-1.2.3-1.1.9-2,1.8-2.7.9-.7,2-1,3.3-1s2.8.4,3.7,1.2c.9.8,1.4,1.9,1.6,3.4,0,.5.1,1.1.1,1.8ZM147.5,254.1c-.6.4-.9,1-1.1,1.8-.1.4-.2,1-.2,1.8,0,0,0,.1.1.1h6.8c0,0,.1,0,.1-.1,0-.8,0-1.3-.2-1.7-.2-.8-.6-1.4-1.2-1.9-.6-.5-1.3-.7-2.2-.7s-1.6.2-2.1.7Z"/>
    <path class="st2" d="M167.6,253.1c.8.8,1.2,1.9,1.2,3.3v8.7c0,.2,0,.3-.3.3h-1.3c-.2,0-.3,0-.3-.3v-8.3c0-1-.3-1.8-.9-2.4-.6-.6-1.3-.9-2.3-.9s-1.7.3-2.3.9c-.6.6-.9,1.4-.9,2.3v8.4c0,.2,0,.3-.3.3h-1.3c-.2,0-.3,0-.3-.3v-12.8c0-.2,0-.3.3-.3h1.3c.2,0,.3,0,.3.3v1.1s0,0,0,0,0,0,0,0c.8-1.1,2-1.6,3.5-1.6s2.5.4,3.3,1.2Z"/>
    <path class="st2" d="M183,258.3v.8c0,.2,0,.3-.3.3h-8.5c0,0-.1,0-.1.1,0,1,0,1.6.2,1.9.2.8.6,1.4,1.2,1.9.6.5,1.4.7,2.4.7s1.4-.2,1.9-.5c.6-.3,1-.8,1.3-1.4.1-.2.2-.2.4-.1l1,.6c.1,0,.2.2.1.4-.4.8-1.1,1.5-2,2-.9.5-1.9.7-3,.7-1.2,0-2.3-.3-3.1-.9-.8-.6-1.4-1.4-1.8-2.4-.3-.8-.5-2-.5-3.6s0-1.3,0-1.8c0-.5,0-.9.2-1.2.3-1.1.9-2,1.8-2.7.9-.7,2-1,3.3-1s2.8.4,3.7,1.2c.9.8,1.4,1.9,1.6,3.4,0,.5.1,1.1.1,1.8ZM175.5,254.1c-.6.4-.9,1-1.1,1.8-.1.4-.2,1-.2,1.8,0,0,0,.1.1.1h6.8c0,0,.1,0,.1-.1,0-.8,0-1.3-.2-1.7-.2-.8-.6-1.4-1.2-1.9-.6-.5-1.3-.7-2.2-.7s-1.6.2-2.1.7Z"/>
    <path class="st2" d="M195.6,253.1c.8.8,1.2,1.9,1.2,3.3v8.7c0,.2,0,.3-.3.3h-1.3c-.2,0-.3,0-.3-.3v-8.3c0-1-.3-1.8-.9-2.4-.6-.6-1.3-.9-2.3-.9s-1.7.3-2.3.9c-.6.6-.9,1.4-.9,2.3v8.4c0,.2,0,.3-.3.3h-1.3c-.2,0-.3,0-.3-.3v-12.8c0-.2,0-.3.3-.3h1.3c.2,0,.3,0,.3.3v1.1s0,0,0,0,0,0,0,0c.8-1.1,2-1.6,3.5-1.6s2.5.4,3.3,1.2Z"/>
    <path class="st2" d="M205.3,270.3v-1.1c0-.2,0-.3.3-.3h.1c.7,0,1.2-.1,1.6-.3.4-.2.7-.5,1-1,.3-.5.6-1.3.9-2.3,0,0,0-.1,0-.2l-4.4-12.9h0c0-.2,0-.3.2-.3h1.4c.2,0,.3,0,.3.2l3.4,10.6s0,0,0,0,0,0,0,0l3.4-10.6c0-.1.2-.2.3-.2h1.4c.2,0,.3,0,.2.3l-4.9,14.2c-.4,1.2-.8,2-1.2,2.6-.4.6-.8.9-1.4,1.2-.6.2-1.3.3-2.3.3h-.2c-.1,0-.2,0-.2-.3Z"/>
    <path class="st2" d="M231.7,253c.9.8,1.3,1.9,1.3,3.2v8.8c0,.2,0,.3-.3.3h-1.3c-.2,0-.3,0-.3-.3v-1.1s0,0,0,0,0,0,0,0c-.4.5-1,.9-1.7,1.2-.7.3-1.5.4-2.3.4-1.2,0-2.3-.3-3.1-.9-.8-.6-1.3-1.6-1.3-2.9s.5-2.4,1.4-3.1c1-.8,2.3-1.1,4-1.1h3c0,0,.1,0,.1-.1v-1c0-.9-.2-1.6-.7-2.1-.5-.5-1.3-.8-2.3-.8s-1.5.2-2,.5c-.5.3-.8.8-1,1.4,0,.2-.2.3-.3.2l-1.4-.2c-.2,0-.3-.1-.2-.2.1-1,.7-1.8,1.6-2.4.9-.6,2-.9,3.4-.9s2.8.4,3.7,1.2ZM230,263.1c.8-.5,1.1-1.2,1.1-2.1v-2c0,0,0-.1-.1-.1h-2.8c-1.2,0-2.1.2-2.8.7-.7.5-1.1,1.1-1.1,2s.3,1.4.8,1.7c.5.4,1.2.6,2.1.6s1.9-.3,2.7-.8Z"/>
    <path class="st2" d="M250.7,246.9h1.3c.2,0,.3,0,.3.3v17.9c0,.2,0,.3-.3.3h-1.3c-.2,0-.3,0-.3-.3v-1.1s0,0,0,0c0,0,0,0,0,0-.4.5-.9.9-1.4,1.2-.6.3-1.2.4-1.9.4-1.2,0-2.3-.3-3.1-.9-.8-.6-1.4-1.5-1.7-2.6-.2-.8-.4-1.9-.4-3.3s.1-2.5.3-3.3c.3-1.1.9-2,1.7-2.6.8-.6,1.9-1,3.1-1s1.3.1,1.9.4c.6.3,1.1.7,1.4,1.2,0,0,0,0,0,0,0,0,0,0,0,0v-6.2c0-.2,0-.3.3-.3ZM250.3,260.6c0-.5.1-1.1.1-2s0-1.5-.1-2c0-.5-.2-.9-.4-1.3-.2-.6-.6-1.1-1-1.4-.5-.4-1.1-.5-1.7-.5s-1.3.2-1.8.5c-.5.4-.9.8-1.1,1.4-.2.4-.4.8-.5,1.3,0,.5-.1,1.2-.1,2s0,1.5.1,1.9c0,.5.2.9.4,1.2.2.6.6,1.1,1.1,1.5.5.4,1.2.6,1.9.6s1.3-.2,1.8-.6c.5-.4.8-.9,1.1-1.5.2-.4.3-.8.3-1.2Z"/>
    <path class="st2" d="M258.3,264.6c-.9-.6-1.5-1.5-1.9-2.7-.2-.8-.4-1.9-.4-3.2s.1-2.4.4-3.2c.3-1.1,1-2,1.9-2.7.9-.6,2-1,3.3-1s2.3.3,3.2,1c.9.6,1.5,1.5,1.9,2.6.2.8.4,1.8.4,3.2s-.1,2.5-.4,3.2c-.3,1.1-.9,2-1.9,2.7-.9.6-2,1-3.2,1s-2.3-.3-3.3-1ZM263.7,263.2c.6-.5,1-1.1,1.2-1.9.2-.6.2-1.5.2-2.7s0-2-.2-2.7c-.2-.8-.6-1.4-1.2-1.9s-1.3-.7-2.2-.7-1.6.2-2.2.7c-.6.5-1,1.1-1.2,1.9-.1.6-.2,1.5-.2,2.7s0,2,.2,2.7c.2.8.6,1.4,1.2,1.9.6.5,1.3.7,2.2.7s1.6-.2,2.2-.7ZM260.4,250.2c0,0,0-.1,0-.2l1.6-2.9c0-.1.2-.2.3-.2h1.2c.1,0,.2,0,.2,0,0,0,0,.1,0,.2l-1.8,2.9c0,.1-.2.2-.3.2h-.9c-.1,0-.2,0-.2,0Z"/>
    <path class="st2" d="M279.5,253.1c.8.8,1.2,1.9,1.2,3.3v8.7c0,.2,0,.3-.3.3h-1.3c-.2,0-.3,0-.3-.3v-8.3c0-1-.3-1.8-.9-2.4-.6-.6-1.3-.9-2.3-.9s-1.7.3-2.3.9c-.6.6-.9,1.4-.9,2.3v8.4c0,.2,0,.3-.3.3h-1.3c-.2,0-.3,0-.3-.3v-12.8c0-.2,0-.3.3-.3h1.3c.2,0,.3,0,.3.3v1.1s0,0,0,0,0,0,0,0c.8-1.1,2-1.6,3.5-1.6s2.5.4,3.3,1.2Z"/>
    <path class="st2" d="M293.1,246.9h1.3c.2,0,.3,0,.3.3v17.9c0,.2,0,.3-.3.3h-1.3c-.2,0-.3,0-.3-.3v-1.1s0,0,0,0c0,0,0,0,0,0-.4.5-.9.9-1.4,1.2-.6.3-1.2.4-1.9.4-1.2,0-2.3-.3-3.1-.9-.8-.6-1.4-1.5-1.7-2.6-.2-.8-.4-1.9-.4-3.3s.1-2.5.3-3.3c.3-1.1.9-2,1.7-2.6.8-.6,1.9-1,3.1-1s1.3.1,1.9.4c.6.3,1.1.7,1.4,1.2,0,0,0,0,0,0,0,0,0,0,0,0v-6.2c0-.2,0-.3.3-.3ZM292.7,260.6c0-.5.1-1.1.1-2s0-1.5-.1-2c0-.5-.2-.9-.4-1.3-.2-.6-.6-1.1-1-1.4-.5-.4-1.1-.5-1.7-.5s-1.3.2-1.8.5c-.5.4-.9.8-1.1,1.4-.2.4-.4.8-.5,1.3,0,.5-.1,1.2-.1,2s0,1.5.1,1.9c0,.5.2.9.4,1.2.2.6.6,1.1,1.1,1.5.5.4,1.2.6,1.9.6s1.3-.2,1.8-.6c.5-.4.8-.9,1.1-1.5.2-.4.3-.8.3-1.2Z"/>
    <path class="st2" d="M309.2,258.3v.8c0,.2,0,.3-.3.3h-8.5c0,0-.1,0-.1.1,0,1,0,1.6.2,1.9.2.8.6,1.4,1.2,1.9.6.5,1.4.7,2.4.7s1.4-.2,1.9-.5c.6-.3,1-.8,1.3-1.4.1-.2.2-.2.4-.1l1,.6c.1,0,.2.2.1.4-.4.8-1.1,1.5-2,2-.9.5-1.9.7-3,.7-1.2,0-2.3-.3-3.1-.9-.8-.6-1.4-1.4-1.8-2.4-.3-.8-.5-2-.5-3.6s0-1.3,0-1.8c0-.5,0-.9.2-1.2.3-1.1.9-2,1.8-2.7.9-.7,2-1,3.3-1s2.8.4,3.7,1.2c.9.8,1.4,1.9,1.6,3.4,0,.5.1,1.1.1,1.8ZM301.7,254.1c-.6.4-.9,1-1.1,1.8-.1.4-.2,1-.2,1.8,0,0,0,.1.1.1h6.8c0,0,.1,0,.1-.1,0-.8,0-1.3-.2-1.7-.2-.8-.6-1.4-1.2-1.9-.6-.5-1.3-.7-2.2-.7s-1.6.2-2.1.7Z"/>
    <path class="st2" d="M321.2,265.1l-4.3-12.8h0c0-.2,0-.3.2-.3h1.5c.2,0,.3,0,.3.2l3.3,10.3s0,0,0,0,0,0,0,0l3.3-10.3c0-.1.2-.2.3-.2h1.5c.2,0,.3.1.2.3l-4.3,12.8c0,.1-.2.2-.3.2h-1.5c-.2,0-.3,0-.3-.2Z"/>
    <path class="st2" d="M338.6,253c.9.8,1.3,1.9,1.3,3.2v8.8c0,.2,0,.3-.3.3h-1.3c-.2,0-.3,0-.3-.3v-1.1s0,0,0,0,0,0,0,0c-.4.5-1,.9-1.7,1.2s-1.5.4-2.3.4c-1.2,0-2.3-.3-3.1-.9-.8-.6-1.3-1.6-1.3-2.9s.5-2.4,1.4-3.1c1-.8,2.3-1.1,4-1.1h3c0,0,.1,0,.1-.1v-1c0-.9-.2-1.6-.7-2.1-.5-.5-1.3-.8-2.3-.8s-1.5.2-2,.5c-.5.3-.8.8-1,1.4,0,.2-.2.3-.3.2l-1.4-.2c-.2,0-.3-.1-.2-.2.1-1,.7-1.8,1.6-2.4.9-.6,2-.9,3.4-.9s2.8.4,3.7,1.2ZM336.9,263.1c.8-.5,1.1-1.2,1.1-2.1v-2c0,0,0-.1-.1-.1h-2.8c-1.2,0-2.1.2-2.8.7-.7.5-1.1,1.1-1.1,2s.3,1.4.8,1.7c.5.4,1.2.6,2.1.6s1.9-.3,2.7-.8Z"/>
    <path class="st2" d="M352.6,253.1c.8.8,1.2,1.9,1.2,3.3v8.7c0,.2,0,.3-.3.3h-1.3c-.2,0-.3,0-.3-.3v-8.3c0-1-.3-1.8-.9-2.4-.6-.6-1.3-.9-2.3-.9s-1.7.3-2.3.9c-.6.6-.9,1.4-.9,2.3v8.4c0,.2,0,.3-.3.3h-1.3c-.2,0-.3,0-.3-.3v-12.8c0-.2,0-.3.3-.3h1.3c.2,0,.3,0,.3.3v1.1s0,0,0,0c0,0,0,0,0,0,.8-1.1,2-1.6,3.5-1.6s2.5.4,3.3,1.2Z"/>
    <path class="st2" d="M363.2,265.1v-17.9c0-.2,0-.3.3-.3h1.3c.2,0,.3,0,.3.3v17.9c0,.2,0,.3-.3.3h-1.3c-.2,0-.3,0-.3-.3Z"/>
    <path class="st2" d="M377.5,253c.9.8,1.3,1.9,1.3,3.2v8.8c0,.2,0,.3-.3.3h-1.3c-.2,0-.3,0-.3-.3v-1.1s0,0,0,0,0,0,0,0c-.4.5-1,.9-1.7,1.2s-1.5.4-2.3.4c-1.2,0-2.3-.3-3.1-.9-.8-.6-1.3-1.6-1.3-2.9s.5-2.4,1.4-3.1c1-.8,2.3-1.1,4-1.1h3c0,0,.1,0,.1-.1v-1c0-.9-.2-1.6-.7-2.1-.5-.5-1.3-.8-2.3-.8s-1.5.2-2,.5c-.5.3-.8.8-1,1.4,0,.2-.2.3-.3.2l-1.4-.2c-.2,0-.3-.1-.2-.2.1-1,.7-1.8,1.6-2.4.9-.6,2-.9,3.4-.9s2.8.4,3.7,1.2ZM375.8,263.1c.8-.5,1.1-1.2,1.1-2.1v-2c0,0,0-.1-.1-.1h-2.8c-1.2,0-2.1.2-2.8.7-.7.5-1.1,1.1-1.1,2s.3,1.4.8,1.7c.5.4,1.2.6,2.1.6s1.9-.3,2.7-.8Z"/>
    <path class="st2" d="M384.4,265c-.8-.3-1.3-.7-1.8-1.3s-.6-1.1-.6-1.8v-.3c0-.2,0-.3.3-.3h1.3c.2,0,.3,0,.3.3v.2c0,.6.3,1.1.9,1.5.6.4,1.4.6,2.3.6s1.6-.2,2.2-.6c.6-.4.8-.9.8-1.6s-.1-.8-.4-1.1c-.3-.3-.6-.5-1-.7-.4-.2-1-.4-1.8-.6-1-.3-1.8-.6-2.4-.8-.6-.3-1.2-.7-1.6-1.2s-.6-1.1-.6-1.9c0-1.1.4-2,1.3-2.7.9-.7,2-1,3.5-1s1.8.2,2.6.5c.7.3,1.3.7,1.7,1.3.4.6.6,1.2.6,1.9h0c0,.3,0,.3-.3.3h-1.2c-.2,0-.3,0-.3-.3h0c0-.7-.3-1.2-.9-1.6-.6-.4-1.3-.6-2.3-.6s-1.6.2-2.2.5c-.5.4-.8.9-.8,1.5s.3,1.1.8,1.4c.5.3,1.3.6,2.4.9,1,.3,1.8.6,2.5.8.6.3,1.2.6,1.6,1.1.5.5.7,1.2.7,2,0,1.1-.4,2-1.3,2.7-.9.7-2.1,1-3.5,1s-1.9-.2-2.6-.5Z"/>
    <path class="st2" d="M409.6,252.1c0,0,.1,0,.2,0h1.3c.2,0,.2,0,.2.3l-1.6,12.8c0,.2-.1.3-.3.3h-1.3c0,0-.1,0-.2,0s0-.1,0-.2l.2-1.5c0,0,0,0,0,0,0,0,0,0,0,0-.4.6-1,1.1-1.6,1.5-.6.4-1.4.5-2.2.5-1.2,0-2.2-.4-3-1.2s-1.1-1.9-1.1-3.2,0-1.3.2-2.4c0-.8.2-1.4.3-2,0-.5.2-1,.4-1.4.4-1,1-1.9,1.9-2.5.9-.6,1.9-1,3.1-1s2.7.7,3.2,2c0,0,0,0,0,0,0,0,0,0,0,0l.2-1.5c0,0,0-.1,0-.2ZM408.5,260.5c0-.3.2-.9.3-1.8.1-1.2.2-1.9.2-2.2s0-.4,0-.5c0-.7-.3-1.3-.8-1.8s-1.1-.7-1.9-.7-1.5.2-2.2.7c-.6.5-1.1,1.1-1.3,1.8-.1.3-.2.6-.2.9,0,.3-.1.9-.2,1.8-.1,1-.2,1.7-.2,2.1s0,.4,0,.6c0,.7.3,1.3.9,1.8.5.5,1.2.7,2,.7s1.5-.2,2.1-.7c.6-.5,1-1.1,1.2-1.8.1-.3.2-.6.2-.9Z"/>
    <path class="st2" d="M423.5,252.1c0,0,.1,0,.2,0h1.3c.2,0,.2,0,.2.3l-1.5,12.6c-.2,2-1,3.4-2.2,4.3-1.2.9-2.8,1.4-4.7,1.4s-.7,0-.9,0c-.2,0-.3-.1-.2-.3l.2-1.2c0-.2.1-.3.3-.2h.7c1.6,0,2.7-.3,3.5-.9.8-.6,1.3-1.7,1.4-3v-1c.1,0,.1,0,0,0,0,0,0,0,0,0-.9,1.1-2.1,1.6-3.5,1.6s-2-.3-2.8-.9c-.8-.6-1.3-1.5-1.4-2.6,0-.4,0-.7,0-1,0-.6,0-1.4.2-2.2.2-1.5.4-2.6.7-3.4.4-1.1,1.1-1.9,2-2.5.9-.6,1.9-1,3-1s2.6.5,3.3,1.5c0,0,0,0,0,0,0,0,0,0,0,0v-1c.1,0,.2-.1.2-.2ZM422.4,260.4c0-.3.1-.9.2-1.8.1-1.2.2-1.9.2-2.2s0-.3,0-.4c0-.7-.3-1.3-.8-1.8-.5-.5-1.1-.7-1.9-.7s-1.5.2-2.1.7c-.6.5-1.1,1.1-1.4,1.8-.2.5-.4,1.4-.6,2.6,0,.6-.1,1.3-.1,1.9s0,.6,0,.8c0,.7.4,1.3.9,1.8.5.5,1.2.7,2,.7s1.6-.2,2.1-.7c.6-.5,1-1.1,1.2-1.8,0-.3.2-.6.2-.9Z"/>
    <path class="st2" d="M437.2,252h1.3c0,0,.2,0,.2,0,0,0,0,.1,0,.2l-1.6,12.8c0,.2-.1.3-.3.3h-1.3c-.2,0-.2,0-.2-.3l.2-1.1s0,0,0,0,0,0,0,0c-.8,1.1-2,1.6-3.6,1.6s-2.1-.3-2.9-1c-.8-.6-1.1-1.5-1.1-2.7s0-.3,0-.7l1.1-8.9c0-.2.1-.3.3-.3h1.3c.2,0,.2,0,.2.3l-1,8.3c0,.1,0,.3,0,.6,0,.8.2,1.5.7,2,.5.5,1.1.7,2,.7s1.8-.3,2.4-.9c.6-.6,1-1.4,1.2-2.4l1-8.3c0-.2.1-.3.3-.3Z"/>
    <path class="st2" d="M450.8,252.1c0,0,.1,0,.2,0h1.3c.2,0,.2,0,.2.3l-1.6,12.8c0,.2-.1.3-.3.3h-1.3c0,0-.1,0-.2,0s0-.1,0-.2l.2-1.5c0,0,0,0,0,0,0,0,0,0,0,0-.4.6-1,1.1-1.6,1.5-.6.4-1.4.5-2.2.5-1.2,0-2.2-.4-3-1.2-.8-.8-1.1-1.9-1.1-3.2s0-1.3.2-2.4c0-.8.2-1.4.3-2,0-.5.2-1,.4-1.4.4-1,1-1.9,1.9-2.5.9-.6,1.9-1,3.1-1s2.7.7,3.2,2c0,0,0,0,0,0,0,0,0,0,0,0l.2-1.5c0,0,0-.1,0-.2ZM449.7,260.5c0-.3.2-.9.3-1.8.1-1.2.2-1.9.2-2.2s0-.4,0-.5c0-.7-.3-1.3-.8-1.8s-1.1-.7-1.9-.7-1.5.2-2.2.7c-.6.5-1.1,1.1-1.3,1.8-.1.3-.2.6-.2.9,0,.3-.1.9-.2,1.8-.1,1-.2,1.7-.2,2.1s0,.4,0,.6c0,.7.3,1.3.9,1.8.5.5,1.2.7,2,.7s1.5-.2,2.1-.7c.6-.5,1-1.1,1.2-1.8.1-.3.2-.6.2-.9Z"/>
    <path class="st2" d="M456,264.6c-.8-.6-1.2-1.3-1.2-2.3s0-.3,0-.3v-.3c0-.2.2-.3.3-.3h1.2c0,0,.1,0,.2,0,0,0,0,.1,0,.2v.2c0,.4,0,.7.2,1.1.2.3.6.6,1,.8.4.2,1,.3,1.5.3.9,0,1.7-.2,2.3-.7.6-.5.9-1,.9-1.7s-.1-.7-.4-.9c-.3-.2-.6-.4-.9-.6-.3-.1-.9-.3-1.6-.6-.9-.3-1.6-.5-2.1-.8-.6-.3-1-.6-1.4-1-.4-.4-.6-1-.6-1.7s0-.3,0-.4c.1-1.1.7-2,1.6-2.7.9-.7,2.1-1,3.5-1s2.4.3,3.2.9c.8.6,1.2,1.4,1.2,2.3s0,.3,0,.4h0c0,.3-.1.3-.3.3h-1.2c0,0-.2,0-.2,0,0,0,0-.1,0-.2h0c0-.7-.1-1.2-.7-1.6-.5-.4-1.2-.6-2.2-.6s-1.7.2-2.2.6c-.6.4-.9.9-.9,1.6s.2.9.7,1.2c.5.3,1.2.6,2.2.9.9.3,1.6.5,2.2.8.5.2,1,.6,1.4,1,.4.4.6,1,.6,1.7s0,.3,0,.4c-.1,1.1-.7,2-1.6,2.7-1,.7-2.1,1-3.6,1s-2.4-.3-3.2-.9Z"/>
    <path class="st2" d="M482.1,252.1c0,0,.1,0,.2,0h1.3c.2,0,.2,0,.2.3l-2.2,17.9c0,.2-.1.3-.3.3h-1.3c0,0-.2,0-.2,0,0,0,0-.1,0-.2l.8-6.2c0,0,0,0-.1,0-.5.5-1,.9-1.6,1.2s-1.2.4-1.9.4c-1.2,0-2.2-.3-2.9-1-.7-.6-1.2-1.5-1.4-2.6,0-.3,0-.6,0-1,0-.5,0-1.3.2-2.3.2-1.4.4-2.5.8-3.3.4-1.1,1.1-1.9,2-2.6.9-.6,1.9-.9,3.1-.9s1.3.1,1.8.4.9.7,1.3,1.2c0,0,0,0,.1,0v-1.1c.1,0,.2-.1.2-.2ZM480.8,260.6c.1-.5.2-1.1.4-2,0-.7.1-1.3.1-1.9s0-1-.2-1.3c-.1-.6-.4-1.1-.8-1.5-.4-.4-1-.6-1.6-.6s-1.3.2-1.9.6c-.6.4-1,.9-1.3,1.5-.2.4-.4.8-.5,1.2-.1.5-.2,1.1-.3,1.9,0,.8-.1,1.3-.1,1.7,0,.6,0,1.2.3,1.6.2.6.5,1,.9,1.4.5.4,1,.5,1.7.5s1.2-.2,1.7-.5c.5-.4.9-.8,1.2-1.4.2-.4.4-.8.5-1.3Z"/>
    <path class="st2" d="M496.2,252h1.3c0,0,.2,0,.2,0,0,0,0,.1,0,.2l-1.6,12.8c0,.2-.1.3-.3.3h-1.3c-.2,0-.2,0-.2-.3l.2-1.1s0,0,0,0,0,0,0,0c-.8,1.1-2,1.6-3.6,1.6s-2.1-.3-2.9-1c-.8-.6-1.1-1.5-1.1-2.7s0-.3,0-.7l1.1-8.9c0-.2.1-.3.3-.3h1.3c.2,0,.2,0,.2.3l-1,8.3c0,.1,0,.3,0,.6,0,.8.2,1.5.7,2,.5.5,1.1.7,2,.7s1.8-.3,2.4-.9c.6-.6,1-1.4,1.2-2.4l1-8.3c0-.2.1-.3.3-.3Z"/>
    <path class="st2" d="M510.9,259.1c0,0,0,.1,0,.2,0,0-.1,0-.2,0h-8.2c0,0-.1,0-.1.1,0,.8-.1,1.3-.1,1.5,0,.9.3,1.6.9,2.1.6.5,1.4.8,2.4.8s1.4-.2,2-.5c.6-.3,1-.8,1.4-1.4.1-.2.3-.2.4-.1l.9.6c.1,0,.2.2,0,.4-.5.8-1.2,1.5-2.1,2-.9.5-1.9.7-3,.7-1.2,0-2.2-.3-2.9-.9-.7-.6-1.2-1.4-1.5-2.4-.1-.5-.2-1-.2-1.5s0-1.3.2-2.1c0-.8.2-1.4.3-1.8,0-.5.2-.9.3-1.2.4-1.1,1.1-2,2.1-2.7,1-.7,2.1-1,3.3-1s2.7.4,3.4,1.2c.7.8,1.1,1.9,1.1,3.4,0,.7,0,1.6-.2,2.7ZM504.2,254.1c-.6.4-1,1-1.3,1.8-.1.4-.3.9-.4,1.8,0,0,0,.1.1.1h6.6c0,0,.1,0,.1-.1,0-.7,0-1.1,0-1.3,0-.9-.3-1.6-.8-2.1-.5-.5-1.3-.8-2.2-.8s-1.5.2-2.1.7Z"/>
    <path class="st2" d="M520.7,264.6c-.8-.6-1.3-1.5-1.5-2.7,0-.4,0-.8,0-1.3s0-1.2.1-2c.2-1.3.4-2.4.7-3.2.5-1.1,1.2-2,2.1-2.7,1-.6,2.1-1,3.3-1s2.2.3,3,1c.8.6,1.3,1.5,1.5,2.6,0,.3.1.7.1,1.2s0,1.1-.2,2c-.2,1.4-.4,2.5-.7,3.2-.5,1.1-1.2,2-2.1,2.7-1,.6-2.1,1-3.3,1s-2.2-.3-3-1ZM526.1,263.2c.6-.5,1.1-1.1,1.4-1.9.2-.6.4-1.5.6-2.7.1-.8.2-1.5.2-2s0-.5,0-.6c-.1-.8-.4-1.4-1-1.9-.5-.5-1.2-.7-2-.7s-1.5.2-2.2.7c-.6.5-1.1,1.1-1.4,1.9-.2.6-.4,1.5-.5,2.7-.1.8-.2,1.5-.2,2s0,.5,0,.6c0,.8.4,1.4.9,1.9.5.5,1.2.7,2.1.7s1.5-.2,2.2-.7Z"/>
    <path class="st2" d="M534.5,264.5c-.8-.7-1.3-1.5-1.5-2.7,0-.4,0-.7,0-1.1,0-.6,0-1.3.2-2.2.2-1.3.4-2.4.7-3.2.4-1.1,1.1-2,2.1-2.6,1-.7,2.1-1,3.3-1s2.3.3,3.1,1c.8.6,1.3,1.5,1.5,2.4,0,.2,0,.5,0,.8s0,.3-.3.3l-1.3.2h0c-.1,0-.2,0-.2-.2v-.4c0-.7-.4-1.2-.9-1.7-.5-.5-1.2-.7-2.1-.7s-1.6.2-2.2.7c-.6.5-1.1,1.1-1.3,1.9-.2.6-.4,1.5-.6,2.7,0,.7-.1,1.3-.1,2s0,.6,0,.7c0,.8.4,1.4.9,1.9.5.5,1.2.7,2,.7s1.6-.2,2.2-.7c.7-.4,1.1-1,1.3-1.7,0,0,0,0,0-.1h0c0-.3.2-.4.3-.3l1.2.2c.2,0,.2.1.2.3,0,.2,0,.3-.2.5-.4,1-1.1,1.8-2.1,2.5-1,.6-2.1.9-3.4.9s-2.2-.3-3-1Z"/>
    <path class="st2" d="M555.6,252h1.3c0,0,.2,0,.2,0,0,0,0,.1,0,.2l-1.6,12.8c0,.2-.1.3-.3.3h-1.3c-.2,0-.2,0-.2-.3l.2-1.1s0,0,0,0,0,0,0,0c-.8,1.1-2,1.6-3.6,1.6s-2.1-.3-2.9-1c-.8-.6-1.1-1.5-1.1-2.7s0-.3,0-.7l1.1-8.9c0-.2.1-.3.3-.3h1.3c.2,0,.2,0,.2.3l-1,8.3c0,.1,0,.3,0,.6,0,.8.2,1.5.7,2,.5.5,1.1.7,2,.7s1.8-.3,2.4-.9c.6-.6,1-1.4,1.2-2.4l1-8.3c0-.2.1-.3.3-.3Z"/>
    <path class="st2" d="M571,256.7c0,.5,0,1.1-.1,2-.2,1.4-.4,2.5-.7,3.3-.4,1.1-1.1,2-2,2.6-.9.6-1.9,1-3.2,1s-1.3-.1-1.8-.4c-.5-.3-.9-.7-1.2-1.2,0,0,0,0,0,0,0,0,0,0,0,0l-.8,6.2c0,0,0,.1,0,.2,0,0-.1,0-.2,0h-1.3c-.2,0-.2,0-.2-.3l2.2-17.9c0-.2.1-.3.3-.3h1.3c.2,0,.2,0,.2.3v1.1c-.1,0-.1,0-.1,0,0,0,0,0,0,0,.4-.5,1-.9,1.5-1.2s1.2-.4,1.9-.4c1.2,0,2.1.3,2.9.9.7.6,1.2,1.5,1.4,2.6,0,.4.1.8.1,1.4ZM568.6,260.7c.1-.5.3-1.2.4-2,0-.6.1-1.2.1-1.8s0-.9-.2-1.4c-.1-.6-.4-1.1-.9-1.5-.5-.4-1.1-.6-1.8-.6s-1.3.2-1.8.6c-.5.4-.9.9-1.2,1.5-.2.4-.4.8-.5,1.2-.1.5-.2,1.1-.3,2,0,.6-.1,1.2-.1,1.8s0,1,.2,1.4c.1.6.4,1.1.8,1.4.4.4,1,.5,1.6.5s1.3-.2,1.8-.5c.5-.4,1-.8,1.2-1.4.2-.4.4-.8.6-1.3Z"/>
    <path class="st2" d="M583.4,252.1c0,0,.1,0,.2,0h1.3c.2,0,.2,0,.2.3l-1.6,12.8c0,.2-.1.3-.3.3h-1.3c0,0-.1,0-.2,0s0-.1,0-.2l.2-1.5c0,0,0,0,0,0,0,0,0,0,0,0-.4.6-1,1.1-1.6,1.5-.6.4-1.4.5-2.2.5-1.2,0-2.2-.4-3-1.2s-1.1-1.9-1.1-3.2,0-1.3.2-2.4c0-.8.2-1.4.3-2,0-.5.2-1,.4-1.4.4-1,1-1.9,1.9-2.5.9-.6,1.9-1,3.1-1s2.7.7,3.2,2c0,0,0,0,0,0,0,0,0,0,0,0l.2-1.5c0,0,0-.1,0-.2ZM582.2,260.5c0-.3.2-.9.3-1.8.1-1.2.2-1.9.2-2.2s0-.4,0-.5c0-.7-.3-1.3-.8-1.8s-1.1-.7-1.9-.7-1.5.2-2.2.7c-.6.5-1.1,1.1-1.3,1.8-.1.3-.2.6-.2.9,0,.3-.1.9-.2,1.8-.1,1-.2,1.7-.2,2.1s0,.4,0,.6c0,.7.3,1.3.9,1.8.5.5,1.2.7,2,.7s1.5-.2,2.1-.7c.6-.5,1-1.1,1.2-1.8.1-.3.2-.6.2-.9Z"/>
    <path class="st2" d="M605,252.8c.6.6,1,1.5,1,2.7s0,.4,0,.8l-1.1,8.8c0,.2-.1.3-.3.3h-1.3c-.2,0-.2,0-.2-.3l1.1-8.4c0-.1,0-.3,0-.5,0-.8-.2-1.4-.7-1.9s-1.1-.7-1.9-.7-1.7.3-2.3.8c-.6.6-1,1.3-1.1,2.3l-1.1,8.5c0,0,0,.1,0,.2,0,0-.1,0-.2,0h-1.3c-.2,0-.2,0-.2-.3l1.1-8.4c0-.1,0-.3,0-.6,0-.8-.2-1.4-.7-1.9-.5-.5-1.1-.7-1.9-.7s-1.6.3-2.2.8c-.6.6-1,1.3-1.1,2.3l-1.1,8.5c0,0,0,.1,0,.2s-.1,0-.2,0h-1.3c-.2,0-.2,0-.2-.3l1.6-12.8c0-.2.1-.3.3-.3h1.3c0,0,.2,0,.2,0s0,.1,0,.2v1.1c-.1,0-.1,0,0,0,0,0,0,0,0,0,.4-.5,1-.9,1.6-1.1.6-.3,1.3-.4,2-.4s1.6.2,2.2.6c.6.4,1,.9,1.2,1.6,0,0,0,0,0,0s0,0,0,0c.5-.7,1.1-1.3,1.8-1.6s1.5-.5,2.4-.5,2,.3,2.7,1Z"/>
    <path class="st2" d="M610.3,264.6c-.8-.6-1.3-1.5-1.5-2.7,0-.4,0-.8,0-1.3s0-1.2.1-2c.2-1.3.4-2.4.7-3.2.5-1.1,1.2-2,2.1-2.7,1-.6,2.1-1,3.3-1s2.2.3,3,1c.8.6,1.3,1.5,1.5,2.6,0,.3.1.7.1,1.2s0,1.1-.2,2c-.2,1.4-.4,2.5-.7,3.2-.5,1.1-1.2,2-2.1,2.7-1,.6-2.1,1-3.3,1s-2.2-.3-3-1ZM615.7,263.2c.6-.5,1.1-1.1,1.4-1.9.2-.6.4-1.5.6-2.7.1-.8.2-1.5.2-2s0-.5,0-.6c-.1-.8-.4-1.4-1-1.9-.5-.5-1.2-.7-2-.7s-1.5.2-2.2.7c-.6.5-1.1,1.1-1.4,1.9-.2.6-.4,1.5-.5,2.7-.1.8-.2,1.5-.2,2s0,.5,0,.6c0,.8.4,1.4.9,1.9.5.5,1.2.7,2.1.7s1.5-.2,2.2-.7Z"/>
    <path class="st2" d="M623.4,264.6c-.8-.6-1.2-1.3-1.2-2.3s0-.3,0-.3v-.3c0-.2.2-.3.3-.3h1.2c0,0,.1,0,.2,0,0,0,0,.1,0,.2v.2c0,.4,0,.7.2,1.1.2.3.6.6,1,.8.4.2,1,.3,1.5.3.9,0,1.7-.2,2.3-.7.6-.5.9-1,.9-1.7s-.1-.7-.4-.9c-.3-.2-.6-.4-.9-.6-.3-.1-.9-.3-1.6-.6-.9-.3-1.6-.5-2.1-.8-.6-.3-1-.6-1.4-1-.4-.4-.6-1-.6-1.7s0-.3,0-.4c.1-1.1.7-2,1.6-2.7.9-.7,2.1-1,3.5-1s2.4.3,3.2.9c.8.6,1.2,1.4,1.2,2.3s0,.3,0,.4h0c0,.3-.1.3-.3.3h-1.2c0,0-.2,0-.2,0,0,0,0-.1,0-.2h0c0-.7-.1-1.2-.7-1.6-.5-.4-1.2-.6-2.2-.6s-1.7.2-2.2.6c-.6.4-.9.9-.9,1.6s.2.9.7,1.2c.5.3,1.2.6,2.2.9.9.3,1.6.5,2.2.8.5.2,1,.6,1.4,1,.4.4.6,1,.6,1.7s0,.3,0,.4c-.1,1.1-.7,2-1.6,2.7-1,.7-2.1,1-3.6,1s-2.4-.3-3.2-.9Z"/>
  </g>
  <g>
    <path class="st2" d="M17.3,78.9c-3.9-1.7-7-4.1-9.1-7.2-2.1-3.1-3.2-6.7-3.2-10.9v-2.2c0-.3.1-.6.3-.8s.5-.3.8-.3h11.2c.3,0,.6.1.8.3.2.2.3.5.3.8v1.5c0,2.6,1.2,4.8,3.6,6.6,2.4,1.8,5.7,2.7,9.8,2.7s6.1-.7,7.8-2.2c1.7-1.5,2.6-3.3,2.6-5.5s-.5-2.9-1.6-4c-1.1-1.1-2.5-2-4.3-2.9-1.8-.8-4.7-2-8.6-3.4-4.4-1.5-8.1-3.1-11.2-4.6-3.1-1.6-5.6-3.7-7.7-6.4-2.1-2.7-3.1-6.1-3.1-10.1s1-7.4,3.1-10.3c2-3,4.9-5.2,8.5-6.8,3.6-1.6,7.8-2.4,12.5-2.4s9.4.9,13.3,2.7c3.9,1.8,7,4.2,9.2,7.4,2.2,3.2,3.3,6.9,3.3,11.1v1.5c0,.3-.1.6-.3.8s-.5.3-.8.3h-11.3c-.3,0-.6-.1-.8-.3-.2-.2-.3-.5-.3-.8v-.8c0-2.8-1.1-5.1-3.4-7-2.3-1.9-5.4-2.9-9.3-2.9s-5.5.7-7.2,2c-1.7,1.3-2.6,3.1-2.6,5.4s.5,3,1.5,4.1c1,1.1,2.5,2.1,4.5,3,2,.9,5.1,2.1,9.3,3.6,4.7,1.7,8.3,3.2,11,4.5,2.7,1.3,5.1,3.3,7.2,5.9,2.1,2.6,3.2,6,3.2,10.1,0,6.2-2.3,11-6.8,14.6-4.5,3.6-10.7,5.4-18.4,5.4s-9.8-.8-13.8-2.5Z"/>
    <path class="st2" d="M121.8,23.3c-.2.2-.5.3-.8.3h-32.3c-.3,0-.5.2-.5.5v15.3c0,.3.2.5.5.5h21.2c.3,0,.6.1.8.3.2.2.3.5.3.8v9.5c0,.3-.1.6-.3.8s-.5.3-.8.3h-21.2c-.3,0-.5.2-.5.5v15.9c0,.3.2.5.5.5h32.3c.3,0,.6.1.8.3.2.2.3.5.3.8v9.5c0,.3-.1.6-.3.8s-.5.3-.8.3h-45.5c-.3,0-.6-.1-.8-.3-.2-.2-.3-.5-.3-.8V12.9c0-.3.1-.6.3-.8s.5-.3.8-.3h45.5c.3,0,.6.1.8.3.2.2.3.5.3.8v9.5c0,.3-.1.6-.3.8Z"/>
    <path class="st2" d="M180.1,14.3c3.3,1.8,5.8,4.3,7.6,7.5,1.8,3.2,2.7,7,2.7,11.2s-.9,7.8-2.8,10.9c-1.9,3.1-4.5,5.6-7.9,7.3-3.4,1.7-7.3,2.6-11.7,2.6h-14c-.3,0-.5.2-.5.5v25.1c0,.3-.1.6-.3.8s-.5.3-.8.3h-11.5c-.3,0-.6-.1-.8-.3-.2-.2-.3-.5-.3-.8V12.8c0-.3.1-.6.3-.8s.5-.3.8-.3h27.8c4.3,0,8.1.9,11.4,2.7ZM173.9,40.1c1.8-1.7,2.8-4,2.8-6.8s-.9-5.2-2.8-7c-1.8-1.8-4.3-2.7-7.3-2.7h-12.5c-.3,0-.5.2-.5.5v18.1c0,.3.2.5.5.5h12.5c3,0,5.4-.9,7.3-2.6Z"/>
    <path class="st2" d="M244.3,79.6l-3-9.6c-.1-.3-.3-.4-.5-.4h-24.2c-.2,0-.4.1-.5.4l-2.9,9.6c-.2.7-.6,1-1.3,1h-12.5c-.4,0-.7-.1-.9-.3-.2-.2-.2-.6,0-1l21.3-66.5c.2-.7.6-1,1.3-1h15.5c.7,0,1.1.3,1.3,1l21.3,66.5c0,.1,0,.3,0,.5,0,.6-.4.9-1.1.9h-12.5c-.7,0-1.1-.3-1.3-1ZM220.1,58.8h17.3c.4,0,.5-.2.4-.6l-8.9-29.2c0-.3-.2-.4-.3-.3-.1,0-.2.1-.3.3l-8.7,29.2c0,.4,0,.6.4.6Z"/>
    <path class="st2" d="M312.6,79.7l-12.3-27.3c-.1-.3-.3-.4-.6-.4h-9.2c-.3,0-.5.2-.5.5v26.9c0,.3-.1.6-.3.8s-.5.3-.8.3h-11.5c-.3,0-.6-.1-.8-.3-.2-.2-.3-.5-.3-.8V12.9c0-.3.1-.6.3-.8s.5-.3.8-.3h28.1c4.2,0,7.9.9,11.1,2.6,3.2,1.7,5.6,4.1,7.4,7.3,1.7,3.1,2.6,6.8,2.6,10.9s-1.1,8.3-3.3,11.5c-2.2,3.2-5.3,5.4-9.3,6.7-.3.1-.4.4-.3.7l13.4,27.9c.1.3.2.5.2.6,0,.5-.4.8-1.1.8h-12.1c-.7,0-1.1-.3-1.4-.9ZM290.1,24.1v16.8c0,.3.2.5.5.5h12.9c2.8,0,5-.8,6.7-2.5,1.7-1.6,2.6-3.8,2.6-6.4s-.9-4.8-2.6-6.4c-1.7-1.7-4-2.5-6.7-2.5h-12.9c-.3,0-.5.2-.5.5Z"/>
    <path class="st2" d="M392.5,23.3c-.2.2-.5.3-.8.3h-32.3c-.3,0-.5.2-.5.5v15.3c0,.3.2.5.5.5h21.2c.3,0,.6.1.8.3.2.2.3.5.3.8v9.5c0,.3-.1.6-.3.8-.2.2-.5.3-.8.3h-21.2c-.3,0-.5.2-.5.5v15.9c0,.3.2.5.5.5h32.3c.3,0,.6.1.8.3.2.2.3.5.3.8v9.5c0,.3-.1.6-.3.8-.2.2-.5.3-.8.3h-45.5c-.3,0-.6-.1-.8-.3-.2-.2-.3-.5-.3-.8V12.9c0-.3.1-.6.3-.8.2-.2.5-.3.8-.3h45.5c.3,0,.6.1.8.3.2.2.3.5.3.8v9.5c0,.3-.1.6-.3.8Z"/>
    <path class="st2" d="M456.5,11.7h11.5c.3,0,.6.1.8.3.2.2.3.5.3.8v66.5c0,.3-.1.6-.3.8-.2.2-.5.3-.8.3h-11.5c-.3,0-.6-.1-.8-.3-.2-.2-.3-.5-.3-.8v-43.4c0-.3,0-.4-.2-.4s-.3,0-.4.3l-10.4,16.3c-.3.5-.8.8-1.4.8h-5.8c-.6,0-1.1-.3-1.4-.8l-10.4-16.3c-.1-.2-.3-.3-.4-.2-.1,0-.2.2-.2.4v43.3c0,.3-.1.6-.3.8-.2.2-.5.3-.8.3h-11.5c-.3,0-.6-.1-.8-.3-.2-.2-.3-.5-.3-.8V12.9c0-.3.1-.6.3-.8.2-.2.5-.3.8-.3h11.5c.6,0,1,.3,1.4.8l14.8,22.9c.2.4.4.4.6,0l14.9-22.9c.3-.5.8-.8,1.4-.8Z"/>
    <path class="st2" d="M500.5,78.5c-3.9-2.1-6.9-5-9.1-8.8-2.2-3.8-3.2-8.1-3.2-13v-21.1c0-4.9,1.1-9.2,3.2-12.9,2.2-3.7,5.2-6.6,9.1-8.7,3.9-2.1,8.4-3.1,13.5-3.1s9.7,1,13.6,3.1c3.9,2.1,6.9,5,9.1,8.7,2.2,3.7,3.2,8,3.2,12.9v21.1c0,4.9-1.1,9.3-3.2,13.1-2.2,3.8-5.2,6.7-9.1,8.8-3.9,2.1-8.4,3.1-13.6,3.1s-9.6-1.1-13.5-3.1ZM522.8,66.3c2.2-2.3,3.3-5.3,3.3-9.2v-21.7c0-3.8-1.1-6.9-3.3-9.2-2.2-2.3-5.1-3.5-8.8-3.5s-6.5,1.2-8.7,3.5c-2.2,2.3-3.3,5.4-3.3,9.2v21.7c0,3.8,1.1,6.9,3.3,9.2,2.2,2.3,5.1,3.4,8.7,3.4s6.5-1.1,8.8-3.4Z"/>
    <path class="st2" d="M568.9,78.9c-3.9-1.7-7-4.1-9.1-7.2-2.1-3.1-3.2-6.7-3.2-10.9v-2.2c0-.3.1-.6.3-.8.2-.2.5-.3.8-.3h11.2c.3,0,.6.1.8.3.2.2.3.5.3.8v1.5c0,2.6,1.2,4.8,3.6,6.6,2.4,1.8,5.7,2.7,9.8,2.7s6.1-.7,7.8-2.2c1.7-1.5,2.6-3.3,2.6-5.5s-.5-2.9-1.6-4c-1.1-1.1-2.5-2-4.3-2.9-1.8-.8-4.7-2-8.6-3.4-4.4-1.5-8.1-3.1-11.2-4.6-3.1-1.6-5.6-3.7-7.7-6.4-2.1-2.7-3.1-6.1-3.1-10.1s1-7.4,3.1-10.3c2-3,4.9-5.2,8.5-6.8,3.6-1.6,7.8-2.4,12.5-2.4s9.4.9,13.3,2.7c3.9,1.8,7,4.2,9.2,7.4,2.2,3.2,3.3,6.9,3.3,11.1v1.5c0,.3-.1.6-.3.8-.2.2-.5.3-.8.3h-11.3c-.3,0-.6-.1-.8-.3-.2-.2-.3-.5-.3-.8v-.8c0-2.8-1.1-5.1-3.4-7-2.3-1.9-5.4-2.9-9.3-2.9s-5.5.7-7.2,2c-1.7,1.3-2.6,3.1-2.6,5.4s.5,3,1.5,4.1c1,1.1,2.5,2.1,4.5,3,2,.9,5.1,2.1,9.3,3.6,4.7,1.7,8.3,3.2,11,4.5,2.7,1.3,5.1,3.3,7.2,5.9,2.1,2.6,3.2,6,3.2,10.1,0,6.2-2.3,11-6.8,14.6-4.5,3.6-10.7,5.4-18.4,5.4s-9.8-.8-13.8-2.5Z"/>
  </g>
  <g>
    <path class="st2" d="M8.3,131c0,0-.1-.2-.1-.4v-28c0-.1,0-.3.1-.4,0,0,.2-.1.4-.1h3.8c.1,0,.3,0,.4.1,0,0,.1.2.1.4v24.2c0,.1,0,.2.2.2h13.9c.1,0,.3,0,.4.1,0,0,.1.2.1.4v3.2c0,.1,0,.3-.1.4,0,0-.2.1-.4.1H8.6c-.1,0-.3,0-.4-.1Z"/>
    <path class="st2" d="M53.5,130.7l-1.4-4.4c0-.1-.1-.2-.2-.2h-11c0,0-.2,0-.2.2l-1.4,4.4c0,.3-.3.4-.5.4h-4.1c-.2,0-.3,0-.4-.1,0,0,0-.2,0-.4l9-28c0-.3.3-.4.5-.4h5.2c.3,0,.5.1.5.4l9,28c0,0,0,.1,0,.2,0,.2-.2.4-.5.4h-4.1c-.3,0-.5-.1-.5-.4ZM42.2,122.4h8.4c.2,0,.2,0,.2-.2l-4.3-13.9c0-.1,0-.2-.1-.2s0,0-.1.2l-4.2,13.9c0,.2,0,.2.2.2Z"/>
    <path class="st2" d="M68,130.5c-1.6-.7-2.8-1.7-3.7-2.9-.9-1.2-1.3-2.7-1.3-4.4v-1c0-.1,0-.3.1-.4,0,0,.2-.1.4-.1h3.7c.1,0,.3,0,.4.1,0,0,.1.2.1.4v.8c0,1.3.6,2.3,1.7,3.2,1.1.8,2.7,1.3,4.6,1.3s3-.4,3.8-1.1c.9-.7,1.3-1.6,1.3-2.8s-.2-1.4-.7-2c-.5-.5-1.1-1-2-1.5-.9-.4-2.2-1-3.9-1.7-2-.7-3.6-1.4-4.8-2-1.2-.6-2.2-1.5-3-2.6-.8-1.1-1.2-2.5-1.2-4.1,0-2.4.9-4.4,2.7-5.8,1.8-1.4,4.1-2.1,7.1-2.1s3.9.4,5.5,1.1c1.6.7,2.8,1.7,3.7,3,.9,1.3,1.3,2.8,1.3,4.5v.7c0,.1,0,.3-.1.4,0,0-.2.1-.4.1h-3.7c-.1,0-.3,0-.4-.1,0,0-.1-.2-.1-.4v-.5c0-1.3-.5-2.4-1.6-3.3-1.1-.9-2.5-1.3-4.4-1.3s-2.7.3-3.5,1c-.8.6-1.3,1.5-1.3,2.7s.2,1.5.7,2c.4.5,1.1,1,2,1.4.9.4,2.3,1,4.1,1.6,2,.7,3.5,1.4,4.7,2,1.2.6,2.2,1.5,3,2.6.8,1.1,1.3,2.5,1.3,4.1,0,2.5-.9,4.5-2.8,5.9-1.8,1.5-4.3,2.2-7.5,2.2s-4-.3-5.6-1Z"/>
  </g>
  <g class="st5">
    <g>
      <path class="st4" d="M157.7,222l-4.7-15.3c-.2-.4-.5-.6-.8-.6h-38.3c-.3,0-.6.2-.8.6l-4.5,15.3c-.3,1-1,1.6-2,1.6h-19.8c-.6,0-1.1-.2-1.4-.5-.3-.4-.4-.9-.2-1.6l33.6-105.2c.3-1,1-1.6,2-1.6h24.4c1,0,1.7.5,2,1.6l33.6,105.2c.1.2.2.5.2.8,0,.9-.6,1.4-1.7,1.4h-19.8c-1,0-1.7-.5-2-1.6ZM119.4,189.1h27.4c.6,0,.8-.3.6-.9l-14-46.2c-.1-.4-.3-.6-.5-.5-.2,0-.4.2-.5.5l-13.7,46.2c-.1.6.1.9.6.9Z"/>
      <path class="st4" d="M221.9,219.9c-6.1-3.2-10.9-7.7-14.2-13.5-3.4-5.8-5.1-12.4-5.1-20v-34.9c0-7.6,1.7-14.3,5.1-20.1,3.4-5.8,8.1-10.3,14.2-13.5,6.1-3.2,13.2-4.7,21.2-4.7s14.9,1.6,20.9,4.7c6.1,3.1,10.8,7.3,14.2,12.7,3.4,5.3,5.1,11.3,5.1,17.8v1.1c0,.5-.2,1-.5,1.3s-.8.5-1.3.5h-18.2c-.5,0-1-.2-1.3-.5-.4-.4-.5-.8-.5-1.3v-.5c0-4.8-1.7-8.8-5-12.1-3.3-3.3-7.7-4.9-13.2-4.9s-10.1,1.7-13.5,5.2c-3.4,3.5-5.1,8-5.1,13.6v36.1c0,5.6,1.8,10.1,5.4,13.6,3.6,3.5,8.2,5.2,13.9,5.2s9.7-1.4,12.9-4.3c3.2-2.9,4.8-6.8,4.8-11.9v-7c0-.5-.3-.8-.8-.8h-17.4c-.5,0-1-.2-1.3-.5-.4-.4-.5-.8-.5-1.3v-14.3c0-.5.2-1,.5-1.3.4-.4.8-.5,1.3-.5h38c.5,0,1,.2,1.3.5.4.4.5.8.5,1.3v20.5c0,7.9-1.7,14.7-5,20.5-3.3,5.8-8,10.2-14.1,13.3-6.1,3.1-13.1,4.6-21.1,4.6s-15-1.6-21.2-4.8Z"/>
      <path class="st4" d="M331.8,220.1c-6.1-3.1-10.8-7.5-14.2-13.2-3.4-5.7-5.1-12.2-5.1-19.5v-71c0-.5.2-1,.5-1.3s.8-.5,1.3-.5h18.2c.5,0,1,.2,1.3.5.4.4.5.8.5,1.3v71.1c0,5.5,1.7,9.9,5.1,13.3,3.4,3.4,7.8,5.1,13.3,5.1s9.9-1.7,13.3-5.1c3.4-3.4,5.1-7.8,5.1-13.3v-71.1c0-.5.2-1,.5-1.3s.8-.5,1.3-.5h18.2c.5,0,1,.2,1.3.5.4.4.5.8.5,1.3v71c0,7.4-1.7,13.9-5.1,19.5-3.4,5.7-8.1,10-14.2,13.2-6.1,3.1-13.1,4.7-21.1,4.7s-15-1.6-21.1-4.7Z"/>
      <path class="st4" d="M488.7,222l-4.7-15.3c-.2-.4-.5-.6-.8-.6h-38.3c-.3,0-.6.2-.8.6l-4.5,15.3c-.3,1-1,1.6-2,1.6h-19.8c-.6,0-1.1-.2-1.4-.5-.3-.4-.4-.9-.2-1.6l33.6-105.2c.3-1,1-1.6,2-1.6h24.4c1,0,1.7.5,2,1.6l33.6,105.2c.1.2.2.5.2.8,0,.9-.6,1.4-1.7,1.4h-19.8c-1,0-1.7-.5-2-1.6ZM450.4,189.1h27.4c.6,0,.8-.3.6-.9l-14-46.2c-.1-.4-.3-.6-.5-.5-.2,0-.4.2-.5.5l-13.7,46.2c-.1.6.1.9.6.9Z"/>
      <path class="st4" d="M547.9,220.8c-6.2-2.6-11-6.4-14.4-11.4-3.4-4.9-5.1-10.7-5.1-17.2v-3.4c0-.5.2-1,.5-1.3s.8-.5,1.3-.5h17.7c.5,0,1,.2,1.3.5.4.4.5.8.5,1.3v2.3c0,4.2,1.9,7.7,5.8,10.5,3.8,2.9,9,4.3,15.6,4.3s9.6-1.2,12.3-3.5c2.7-2.3,4-5.2,4-8.6s-.8-4.6-2.5-6.3c-1.7-1.7-3.9-3.2-6.8-4.5-2.9-1.3-7.4-3.1-13.6-5.4-7-2.4-12.8-4.8-17.7-7.3-4.8-2.5-8.9-5.9-12.1-10.2-3.3-4.3-4.9-9.6-4.9-16s1.6-11.7,4.8-16.3c3.2-4.7,7.7-8.2,13.4-10.7,5.7-2.5,12.3-3.7,19.8-3.7s14.9,1.4,21.1,4.2c6.2,2.8,11,6.7,14.5,11.8,3.5,5,5.2,10.9,5.2,17.5v2.3c0,.5-.2,1-.5,1.3-.4.4-.8.5-1.3.5h-17.9c-.5,0-1-.2-1.3-.5-.4-.4-.5-.8-.5-1.3v-1.2c0-4.4-1.8-8.1-5.4-11.1-3.6-3.1-8.5-4.6-14.7-4.6s-8.7,1-11.4,3.1c-2.8,2.1-4.1,4.9-4.1,8.6s.8,4.8,2.4,6.5c1.6,1.8,4,3.3,7.2,4.7,3.2,1.4,8.1,3.3,14.7,5.7,7.4,2.7,13.2,5.1,17.4,7.2,4.2,2.1,8,5.2,11.4,9.3,3.4,4.1,5.1,9.4,5.1,16,0,9.8-3.6,17.5-10.7,23.1-7.2,5.7-16.9,8.5-29.1,8.5s-15.6-1.3-21.8-4Z"/>
    </g>
  </g>
  <g class="st1">
    <g>
      <path class="st3" d="M158.6,205.1l-4.7-15.3c-.2-.4-.5-.6-.8-.6h-38.3c-.3,0-.6.2-.8.6l-4.5,15.3c-.3,1-1,1.6-2,1.6h-19.8c-.6,0-1.1-.2-1.4-.5-.3-.4-.4-.9-.2-1.6l33.6-105.2c.3-1,1-1.6,2-1.6h24.4c1,0,1.7.5,2,1.6l33.6,105.2c.1.2.2.5.2.8,0,.9-.6,1.4-1.7,1.4h-19.8c-1,0-1.7-.5-2-1.6ZM120.3,172.3h27.4c.6,0,.8-.3.6-.9l-14-46.2c-.1-.4-.3-.6-.5-.5-.2,0-.4.2-.5.5l-13.7,46.2c-.1.6.1.9.6.9Z"/>
      <path class="st3" d="M222.8,203.1c-6.1-3.2-10.9-7.7-14.2-13.5-3.4-5.8-5.1-12.4-5.1-20v-34.9c0-7.6,1.7-14.3,5.1-20.1,3.4-5.8,8.1-10.3,14.2-13.5,6.1-3.2,13.2-4.7,21.2-4.7s14.9,1.6,20.9,4.7c6.1,3.1,10.8,7.3,14.2,12.7,3.4,5.3,5.1,11.3,5.1,17.8v1.1c0,.5-.2,1-.5,1.3s-.8.5-1.3.5h-18.2c-.5,0-1-.2-1.3-.5-.4-.4-.5-.8-.5-1.3v-.5c0-4.8-1.7-8.8-5-12.1-3.3-3.3-7.7-4.9-13.2-4.9s-10.1,1.7-13.5,5.2c-3.4,3.5-5.1,8-5.1,13.6v36.1c0,5.6,1.8,10.1,5.4,13.6,3.6,3.5,8.2,5.2,13.9,5.2s9.7-1.4,12.9-4.3c3.2-2.9,4.8-6.8,4.8-11.9v-7c0-.5-.3-.8-.8-.8h-17.4c-.5,0-1-.2-1.3-.5-.4-.4-.5-.8-.5-1.3v-14.3c0-.5.2-1,.5-1.3s.8-.5,1.3-.5h38c.5,0,1,.2,1.3.5.4.4.5.8.5,1.3v20.5c0,7.9-1.7,14.7-5,20.5-3.3,5.8-8,10.2-14.1,13.3-6.1,3.1-13.1,4.6-21.1,4.6s-15-1.6-21.2-4.8Z"/>
      <path class="st3" d="M332.6,203.2c-6.1-3.1-10.8-7.5-14.2-13.2-3.4-5.7-5.1-12.2-5.1-19.5v-71c0-.5.2-1,.5-1.3s.8-.5,1.3-.5h18.2c.5,0,1,.2,1.3.5.4.4.5.8.5,1.3v71.1c0,5.5,1.7,9.9,5.1,13.3,3.4,3.4,7.8,5.1,13.3,5.1s9.9-1.7,13.3-5.1c3.4-3.4,5.1-7.8,5.1-13.3v-71.1c0-.5.2-1,.5-1.3.4-.4.8-.5,1.3-.5h18.2c.5,0,1,.2,1.3.5.4.4.5.8.5,1.3v71c0,7.4-1.7,13.9-5.1,19.5-3.4,5.7-8.1,10-14.2,13.2-6.1,3.1-13.1,4.7-21.1,4.7s-15-1.6-21.1-4.7Z"/>
      <path class="st3" d="M489.6,205.1l-4.7-15.3c-.2-.4-.5-.6-.8-.6h-38.3c-.3,0-.6.2-.8.6l-4.5,15.3c-.3,1-1,1.6-2,1.6h-19.8c-.6,0-1.1-.2-1.4-.5-.3-.4-.4-.9-.2-1.6l33.6-105.2c.3-1,1-1.6,2-1.6h24.4c1,0,1.7.5,2,1.6l33.6,105.2c.1.2.2.5.2.8,0,.9-.6,1.4-1.7,1.4h-19.8c-1,0-1.7-.5-2-1.6ZM451.3,172.3h27.4c.6,0,.8-.3.6-.9l-14-46.2c-.1-.4-.3-.6-.5-.5-.2,0-.4.2-.5.5l-13.7,46.2c-.1.6.1.9.6.9Z"/>
      <path class="st3" d="M548.8,203.9c-6.2-2.6-11-6.4-14.4-11.4-3.4-4.9-5.1-10.7-5.1-17.2v-3.4c0-.5.2-1,.5-1.3s.8-.5,1.3-.5h17.7c.5,0,1,.2,1.3.5.4.4.5.8.5,1.3v2.3c0,4.2,1.9,7.7,5.8,10.5,3.8,2.9,9,4.3,15.6,4.3s9.6-1.2,12.3-3.5c2.7-2.3,4-5.2,4-8.6s-.8-4.6-2.5-6.3c-1.7-1.7-3.9-3.2-6.8-4.5-2.9-1.3-7.4-3.1-13.6-5.4-7-2.4-12.8-4.8-17.7-7.3-4.8-2.5-8.9-5.9-12.1-10.2-3.3-4.3-4.9-9.6-4.9-16s1.6-11.7,4.8-16.3c3.2-4.7,7.7-8.2,13.4-10.7,5.7-2.5,12.3-3.7,19.8-3.7s14.9,1.4,21.1,4.2c6.2,2.8,11,6.7,14.5,11.8,3.5,5,5.2,10.9,5.2,17.5v2.3c0,.5-.2,1-.5,1.3-.4.4-.8.5-1.3.5h-17.9c-.5,0-1-.2-1.3-.5-.4-.4-.5-.8-.5-1.3v-1.2c0-4.4-1.8-8.1-5.4-11.1-3.6-3.1-8.5-4.6-14.7-4.6s-8.7,1-11.4,3.1c-2.8,2.1-4.1,4.9-4.1,8.6s.8,4.8,2.4,6.5c1.6,1.8,4,3.3,7.2,4.7,3.2,1.4,8.1,3.3,14.7,5.7,7.4,2.7,13.2,5.1,17.4,7.2,4.2,2.1,8,5.2,11.4,9.3,3.4,4.1,5.1,9.4,5.1,16,0,9.8-3.6,17.5-10.7,23.1-7.2,5.7-16.9,8.5-29.1,8.5s-15.6-1.3-21.8-4Z"/>
    </g>
  </g>
</svg>